{
.appVersion = "1271";
copyright = "Copyright © 2014 by Robert E. Leuschke. All rights reserved.";
customParameters = (
{
name = description;
value = "©2003-2014 by Robert E. Leuschke. All rights reserved.";
},
{
name = trademark;
value = "Ruthie-ROB is a trademark of Robert E. Leuschke.";
},
{
name = licenseURL;
value = "http://www.typesetit.com/license.html";
},
{
name = license;

glyphs = (
{
glyphname = Scaron;
lastChange = "2021-03-29 15:46:53 +0000";
layers = (
{
hints = (
{
horizontal = 1;
place = "{-93, 35}";
type = Stem;
},
{
horizontal = 1;
place = "{267, 10}";
type = Stem;
},
{
horizontal = 1;
place = "{470, 10}";
type = Stem;
},
{
horizontal = 1;
place = "{599, 12}";
type = Stem;
},
{
place = "{28, 26}";
type = Stem;
},
{
place = "{244, 13}";
type = Stem;
},
{
place = "{295, 43}";
type = Stem;
},
{
place = "{488, 18}";
type = Stem;
},
{
place = "{558, 41}";
type = Stem;
},
{
place = "{656, 24}";
type = Stem;
}
);
layerId = "89156F97-8AE0-4F29-8E8C-D321EE696556";
paths = (
{
closed = 1;
nodes = (
"585 756 LINE",
"581 762 LINE",
"571 761 OFFCURVE",
"550 751 OFFCURVE",
"521 733 CURVE SMOOTH",
"491 715 OFFCURVE",
"472 701 OFFCURVE",
"463 691 CURVE",
"408 736 OFFCURVE",
"376 759 OFFCURVE",
"370 759 CURVE SMOOTH",
"366 759 OFFCURVE",
"364 756 OFFCURVE",
"364 751 CURVE SMOOTH",
"364 746 OFFCURVE",
"380 729 OFFCURVE",
"413 701 CURVE SMOOTH",
"447 674 OFFCURVE",
"466 659 OFFCURVE",
"474 658 CURVE",
"479 660 LINE",
"501 684 OFFCURVE",
"535 713 OFFCURVE",
"581 749 CURVE"
);
},
{
closed = 1;
nodes = (
"680 541 OFFCURVE",
"676 552 OFFCURVE",
"668 562 CURVE SMOOTH",
"642 595 OFFCURVE",
"594 611 OFFCURVE",
"523 611 CURVE SMOOTH",
"444 611 OFFCURVE",
"381 588 OFFCURVE",
"334 543 CURVE",
"333 543 OFFCURVE",
"333 543 OFFCURVE",
"333 543 CURVE",
"307 543 OFFCURVE",
"286 532 OFFCURVE",
"269 514 CURVE SMOOTH",
"253 496 OFFCURVE",
"244 475 OFFCURVE",
"244 449 CURVE SMOOTH",
"244 402 OFFCURVE",
"264 359 OFFCURVE",
"308 327 CURVE SMOOTH",
"346 298 OFFCURVE",
"387 274 OFFCURVE",
"425 245 CURVE SMOOTH",
"468 213 OFFCURVE",
"488 171 OFFCURVE",
"488 124 CURVE SMOOTH",
"488 89 OFFCURVE",
"473 54 OFFCURVE",
"443 20 CURVE SMOOTH",
"415 -11 OFFCURVE",
"383 -33 OFFCURVE",
"348 -47 CURVE SMOOTH",
"335 -51 OFFCURVE",
"317 -55 OFFCURVE",
"295 -58 CURVE SMOOTH",
"291 -58 OFFCURVE",
"288 -60 OFFCURVE",
"288 -64 CURVE SMOOTH",
"288 -66 OFFCURVE",
"290 -67 OFFCURVE",
"293 -67 CURVE SMOOTH",
"340 -67 OFFCURVE",
"388 -48 OFFCURVE",
"434 -8 CURVE SMOOTH",
"483 34 OFFCURVE",
"506 78 OFFCURVE",
"506 124 CURVE SMOOTH",
"506 172 OFFCURVE",
"485 214 OFFCURVE",
"442 249 CURVE",
"402 276 OFFCURVE",
"361 302 OFFCURVE",
"322 332 CURVE SMOOTH",
"278 365 OFFCURVE",
"257 406 OFFCURVE",
"257 450 CURVE SMOOTH",
"257 471 OFFCURVE",
"264 490 OFFCURVE",
"277 508 CURVE SMOOTH",
"291 525 OFFCURVE",
"308 535 OFFCURVE",
"328 537 CURVE",
"306 513 OFFCURVE",
"295 486 OFFCURVE",
"295 457 CURVE SMOOTH",
"295 415 OFFCURVE",
"317 376 OFFCURVE",
"363 345 CURVE SMOOTH",
"405 316 OFFCURVE",
"448 293 OFFCURVE",
"489 263 CURVE SMOOTH",
"536 230 OFFCURVE",
"558 185 OFFCURVE",
"558 137 CURVE SMOOTH",
"558 52 OFFCURVE",
"508 -10 OFFCURVE",
"409 -50 CURVE SMOOTH",
"350 -74 OFFCURVE",
"295 -86 OFFCURVE",
"247 -86 CURVE SMOOTH",
"193 -86 OFFCURVE",
"147 -70 OFFCURVE",
"111 -41 CURVE SMOOTH",
"72 -10 OFFCURVE",
"53 33 OFFCURVE",
"53 86 CURVE SMOOTH",
"53 142 OFFCURVE",
"74 186 OFFCURVE",
"116 219 CURVE SMOOTH",
"155 251 OFFCURVE",
"203 268 OFFCURVE",
"259 267 CURVE SMOOTH",
"279 267 OFFCURVE",
"289 266 OFFCURVE",
"289 269 CURVE SMOOTH",
"289 275 OFFCURVE",
"274 277 OFFCURVE",
"242 277 CURVE SMOOTH",
"184 277 OFFCURVE",
"135 258 OFFCURVE",
"93 222 CURVE SMOOTH",
"49 184 OFFCURVE",
"28 137 OFFCURVE",
"28 80 CURVE SMOOTH",
"28 21 OFFCURVE",
"54 -24 OFFCURVE",
"108 -55 CURVE SMOOTH",
"152 -81 OFFCURVE",
"205 -93 OFFCURVE",
"269 -93 CURVE SMOOTH",
"349 -93 OFFCURVE",
"421 -74 OFFCURVE",
"485 -37 CURVE SMOOTH",
"561 8 OFFCURVE",
"599 67 OFFCURVE",
"599 141 CURVE SMOOTH",
"599 195 OFFCURVE",
"576 241 OFFCURVE",
"531 278 CURVE",
"489 305 OFFCURVE",
"447 331 OFFCURVE",
"406 358 CURVE SMOOTH",
"360 389 OFFCURVE",
"338 425 OFFCURVE",
"338 465 CURVE SMOOTH",
"338 483 OFFCURVE",
"343 501 OFFCURVE",
"352 517 CURVE SMOOTH",
"383 571 OFFCURVE",
"440 599 OFFCURVE",
"523 599 CURVE SMOOTH",
"552 599 OFFCURVE",
"579 594 OFFCURVE",
"604 585 CURVE SMOOTH",
"639 573 OFFCURVE",
"656 555 OFFCURVE",
"656 531 CURVE SMOOTH",
"656 513 OFFCURVE",
"645 501 OFFCURVE",
"623 491 CURVE SMOOTH",
"607 485 OFFCURVE",
"588 481 OFFCURVE",
"566 481 CURVE SMOOTH",
"500 481 OFFCURVE",
"448 493 OFFCURVE",
"411 517 CURVE SMOOTH",
"410 518 OFFCURVE",
"409 518 OFFCURVE",
"408 518 CURVE SMOOTH",
"406 518 OFFCURVE",
"405 517 OFFCURVE",
"405 515 CURVE SMOOTH",
"405 514 OFFCURVE",
"406 513 OFFCURVE",
"407 512 CURVE SMOOTH",
"424 500 OFFCURVE",
"449 488 OFFCURVE",
"485 481 CURVE SMOOTH",
"516 473 OFFCURVE",
"543 470 OFFCURVE",
"569 470 CURVE SMOOTH",
"596 470 OFFCURVE",
"618 474 OFFCURVE",
"638 482 CURVE SMOOTH",
"666 492 OFFCURVE",
"680 508 OFFCURVE",
"680 530 CURVE SMOOTH"
);
}
);
width = 634;
}
);
note = Scaron;
unicode = 0160;
},
{
glyphname = scaron;
lastChange = "2021-03-29 15:46:53 +0000";
layers = (
{
hints = (
{
horizontal = 1;
place = "{-11, 31}";
type = Stem;
},
{
horizontal = 1;
place = "{296, 29}";
type = Stem;
}
);
layerId = "89156F97-8AE0-4F29-8E8C-D321EE696556";
paths = (
{
closed = 1;
nodes = (
"300 485 LINE",
"296 490 LINE",
"286 490 OFFCURVE",
"265 481 OFFCURVE",
"236 462 CURVE SMOOTH",
"206 444 OFFCURVE",
"187 429 OFFCURVE",
"178 419 CURVE",
"123 465 OFFCURVE",
"91 487 OFFCURVE",
"85 487 CURVE SMOOTH",
"80 487 OFFCURVE",
"78 485 OFFCURVE",
"78 480 CURVE SMOOTH",
"78 474 OFFCURVE",
"95 457 OFFCURVE",
"128 429 CURVE SMOOTH",
"162 402 OFFCURVE",
"181 388 OFFCURVE",
"189 387 CURVE",
"194 389 LINE",
"215 412 OFFCURVE",
"249 442 OFFCURVE",
"295 477 CURVE"
);
},
{
closed = 1;
nodes = (
"265 141 OFFCURVE",
"264 142 OFFCURVE",
"262 142 CURVE SMOOTH",
"260 142 OFFCURVE",
"258 141 OFFCURVE",
"257 138 CURVE SMOOTH",
"244 120 OFFCURVE",
"234 106 OFFCURVE",
"226 100 CURVE SMOOTH",
"215 90 OFFCURVE",
"200 84 OFFCURVE",
"182 81 CURVE",
"182 103 OFFCURVE",
"178 128 OFFCURVE",
"169 159 CURVE SMOOTH",
"162 184 OFFCURVE",
"154 209 OFFCURVE",
"146 235 CURVE SMOOTH",
"144 240 OFFCURVE",
"143 246 OFFCURVE",
"143 251 CURVE SMOOTH",
"143 265 OFFCURVE",
"149 276 OFFCURVE",
"160 284 CURVE SMOOTH",
"170 293 OFFCURVE",
"182 296 OFFCURVE",
"197 296 CURVE SMOOTH",
"199 296 OFFCURVE",
"201 296 OFFCURVE",
"204 296 CURVE SMOOTH",
"208 295 OFFCURVE",
"211 295 OFFCURVE",
"212 295 CURVE SMOOTH",
"220 295 OFFCURVE",
"224 297 OFFCURVE",
"224 302 CURVE SMOOTH",
"224 309 OFFCURVE",
"219 314 OFFCURVE",
"211 318 CURVE SMOOTH",
"202 323 OFFCURVE",
"196 325 OFFCURVE",
"189 325 CURVE SMOOTH",
"159 325 OFFCURVE",
"133 308 OFFCURVE",
"111 274 CURVE SMOOTH",
"76 218 OFFCURVE",
"49 168 OFFCURVE",
"30 124 CURVE",
"24 133 OFFCURVE",
"17 138 OFFCURVE",
"11 138 CURVE SMOOTH",
"1 138 OFFCURVE",
"-4 128 OFFCURVE",
"-4 108 CURVE SMOOTH",
"-4 79 OFFCURVE",
"8 51 OFFCURVE",
"31 26 CURVE SMOOTH",
"55 1 OFFCURVE",
"82 -11 OFFCURVE",
"112 -11 CURVE SMOOTH",
"134 -11 OFFCURVE",
"151 -4 OFFCURVE",
"163 12 CURVE SMOOTH",
"175 27 OFFCURVE",
"181 45 OFFCURVE",
"183 67 CURVE",
"216 74 OFFCURVE",
"242 96 OFFCURVE",
"263 131 CURVE SMOOTH",
"265 134 OFFCURVE",
"265 136 OFFCURVE",
"265 138 CURVE SMOOTH"
);
},
{
closed = 1;
nodes = (
"144 77 OFFCURVE",
"144 73 OFFCURVE",
"143 68 CURVE",
"127 69 OFFCURVE",
"108 74 OFFCURVE",
"88 84 CURVE SMOOTH",
"78 88 OFFCURVE",
"61 98 OFFCURVE",
"37 111 CURVE",
"74 184 OFFCURVE",
"101 230 OFFCURVE",
"118 248 CURVE",
"115 234 OFFCURVE",
"119 207 OFFCURVE",
"128 168 CURVE SMOOTH",
"139 126 OFFCURVE",
"144 98 OFFCURVE",
"144 82 CURVE SMOOTH"
);
},
{
closed = 1;
nodes = (
"134 32 OFFCURVE",
"118 20 OFFCURVE",
"92 20 CURVE SMOOTH",
"78 20 OFFCURVE",
"64 28 OFFCURVE",
"49 44 CURVE SMOOTH",
"35 59 OFFCURVE",
"28 74 OFFCURVE",
"27 88 CURVE",
"53 67 OFFCURVE",
"92 57 OFFCURVE",
"143 57 CURVE"
);
}
);
width = 241;
}
);
note = scaron;
unicode = 0161;
},
{
glyphname = Yacute;
lastChange = "2021-03-29 15:46:53 +0000";
layers = (
{
hints = (
{
horizontal = 1;
place = "{-432, 40}";
type = Stem;
},
{
horizontal = 1;
place = "{-45, 19}";
type = Stem;
},
{
horizontal = 1;
place = "{573, 24}";
type = Stem;
},
{
place = "{-14, 22}";
type = Stem;
},
{
place = "{108, 128}";
type = Stem;
}
);
layerId = "89156F97-8AE0-4F29-8E8C-D321EE696556";
paths = (
{
closed = 1;
nodes = (
"681 677 OFFCURVE",
"678 682 OFFCURVE",
"672 687 CURVE SMOOTH",
"665 692 OFFCURVE",
"659 694 OFFCURVE",
"653 694 CURVE SMOOTH",
"638 694 OFFCURVE",
"630 689 OFFCURVE",
"627 679 CURVE SMOOTH",
"621 663 OFFCURVE",
"610 647 OFFCURVE",
"592 631 CURVE SMOOTH",
"589 628 OFFCURVE",
"574 616 OFFCURVE",
"544 594 CURVE SMOOTH",
"535 587 OFFCURVE",
"530 580 OFFCURVE",
"530 576 CURVE SMOOTH",
"530 575 OFFCURVE",
"531 575 OFFCURVE",
"533 574 CURVE",
"538 574 OFFCURVE",
"555 582 OFFCURVE",
"583 600 CURVE SMOOTH",
"601 612 OFFCURVE",
"618 623 OFFCURVE",
"637 635 CURVE SMOOTH",
"645 640 OFFCURVE",
"655 644 OFFCURVE",
"663 650 CURVE SMOOTH",
"675 657 OFFCURVE",
"681 664 OFFCURVE",
"681 671 CURVE SMOOTH"
);
},
{
closed = 1;
nodes = (
"736 482 OFFCURVE",
"730 484 OFFCURVE",
"715 484 CURVE SMOOTH",
"695 484 OFFCURVE",
"677 480 OFFCURVE",
"661 472 CURVE SMOOTH",
"634 459 OFFCURVE",
"611 427 OFFCURVE",
"596 373 CURVE SMOOTH",
"592 361 OFFCURVE",
"590 352 OFFCURVE",
"589 347 CURVE",
"573 320 OFFCURVE",
"560 299 OFFCURVE",
"550 284 CURVE SMOOTH",
"509 221 OFFCURVE",
"467 162 OFFCURVE",
"423 107 CURVE SMOOTH",
"352 19 OFFCURVE",
"299 -26 OFFCURVE",
"268 -26 CURVE SMOOTH",
"247 -26 OFFCURVE",
"237 -5 OFFCURVE",
"237 36 CURVE SMOOTH",
"237 136 OFFCURVE",
"285 276 OFFCURVE",
"381 455 CURVE SMOOTH",
"392 477 OFFCURVE",
"403 496 OFFCURVE",
"413 514 CURVE SMOOTH",
"419 523 OFFCURVE",
"424 531 OFFCURVE",
"427 536 CURVE",
"428 539 LINE",
"428 551 OFFCURVE",
"401 564 OFFCURVE",
"349 579 CURVE",
"360 593 OFFCURVE",
"376 609 OFFCURVE",
"397 629 CURVE",
"399 630 OFFCURVE",
"400 632 OFFCURVE",
"401 634 CURVE",
"401 636 OFFCURVE",
"400 637 OFFCURVE",
"397 637 CURVE SMOOTH",
"390 637 OFFCURVE",
"371 618 OFFCURVE",
"340 581 CURVE",
"299 592 OFFCURVE",
"258 597 OFFCURVE",
"218 597 CURVE SMOOTH",
"126 597 OFFCURVE",
"57 573 OFFCURVE",
"10 524 CURVE SMOOTH",
"-7 508 OFFCURVE",
"-14 493 OFFCURVE",
"-14 478 CURVE SMOOTH",
"-14 447 OFFCURVE",
"12 419 OFFCURVE",
"66 395 CURVE SMOOTH",
"79 390 OFFCURVE",
"88 387 OFFCURVE",
"93 387 CURVE SMOOTH",
"94 387 OFFCURVE",
"95 387 OFFCURVE",
"95 388 CURVE SMOOTH",
"95 390 OFFCURVE",
"87 394 OFFCURVE",
"72 401 CURVE SMOOTH",
"53 409 OFFCURVE",
"39 418 OFFCURVE",
"30 426 CURVE SMOOTH",
"15 438 OFFCURVE",
"8 452 OFFCURVE",
"8 468 CURVE SMOOTH",
"8 481 OFFCURVE",
"14 493 OFFCURVE",
"27 505 CURVE SMOOTH",
"74 550 OFFCURVE",
"133 573 OFFCURVE",
"204 573 CURVE SMOOTH",
"241 573 OFFCURVE",
"279 566 OFFCURVE",
"318 553 CURVE",
"263 479 OFFCURVE",
"215 387 OFFCURVE",
"174 277 CURVE SMOOTH",
"130 161 OFFCURVE",
"108 60 OFFCURVE",
"108 -26 CURVE SMOOTH",
"108 -46 OFFCURVE",
"109 -55 OFFCURVE",
"112 -55 CURVE SMOOTH",
"115 -55 OFFCURVE",
"117 -52 OFFCURVE",
"117 -46 CURVE SMOOTH",
"117 41 OFFCURVE",
"139 144 OFFCURVE",
"182 265 CURVE SMOOTH",
"224 380 OFFCURVE",
"273 475 OFFCURVE",
"327 550 CURVE",
"340 545 OFFCURVE",
"353 540 OFFCURVE",
"367 534 CURVE",
"325 462 OFFCURVE",
"286 382 OFFCURVE",
"251 294 CURVE SMOOTH",
"207 184 OFFCURVE",
"185 102 OFFCURVE",
"185 44 CURVE SMOOTH",
"185 -15 OFFCURVE",
"206 -45 OFFCURVE",
"249 -45 CURVE SMOOTH",
"296 -45 OFFCURVE",
"359 4 OFFCURVE",
"436 101 CURVE SMOOTH",
"485 161 OFFCURVE",
"532 231 OFFCURVE",
"580 311 CURVE",
"571 279 LINE SMOOTH",
"545 184 OFFCURVE",
"534 112 OFFCURVE",
"524 64 CURVE SMOOTH",
"503 -44 OFFCURVE",
"479 -124 OFFCURVE",
"455 -178 CURVE SMOOTH",
"417 -260 OFFCURVE",
"363 -322 OFFCURVE",
"292 -362 CURVE SMOOTH",
"256 -382 OFFCURVE",
"217 -392 OFFCURVE",
"174 -392 CURVE SMOOTH",
"106 -392 OFFCURVE",
"56 -367 OFFCURVE",
"23 -316 CURVE SMOOTH",
"16 -307 OFFCURVE",
"10 -293 OFFCURVE",
"3 -275 CURVE",
"0 -270 OFFCURVE",
"-2 -267 OFFCURVE",
"-4 -267 CURVE SMOOTH",
"-6 -267 OFFCURVE",
"-7 -269 OFFCURVE",
"-7 -272 CURVE SMOOTH",
"-7 -274 OFFCURVE",
"-7 -276 OFFCURVE",
"-6 -277 CURVE SMOOTH",
"10 -324 OFFCURVE",
"36 -360 OFFCURVE",
"69 -388 CURVE SMOOTH",
"106 -417 OFFCURVE",
"148 -432 OFFCURVE",
"195 -432 CURVE SMOOTH",
"230 -432 OFFCURVE",
"262 -424 OFFCURVE",
"293 -407 CURVE SMOOTH",
"359 -370 OFFCURVE",
"416 -310 OFFCURVE",
"462 -227 CURVE SMOOTH",
"498 -162 OFFCURVE",
"529 -80 OFFCURVE",
"557 22 CURVE SMOOTH",
"560 33 OFFCURVE",
"580 116 OFFCURVE",
"616 269 CURVE SMOOTH",
"641 376 OFFCURVE",
"672 441 OFFCURVE",
"708 464 CURVE",
"718 467 OFFCURVE",
"725 470 OFFCURVE",
"730 470 CURVE",
"734 472 OFFCURVE",
"736 474 OFFCURVE",
"736 477 CURVE SMOOTH"
);
}
);
width = 672;
}
);
note = Yacute;
unicode = 00DD;
},
{
glyphname = yacute;
lastChange = "2021-03-29 15:46:53 +0000";
layers = (
{
hints = (
{
horizontal = 1;
place = "{-388, 33}";
type = Stem;
},
{
horizontal = 1;
place = "{295, 27}";
type = Stem;
},
{
place = "{107, 29}";
type = Stem;
}
);
layerId = "89156F97-8AE0-4F29-8E8C-D321EE696556";
paths = (
{
closed = 1;
nodes = (
"324 523 OFFCURVE",
"321 528 OFFCURVE",
"314 533 CURVE SMOOTH",
"308 537 OFFCURVE",
"302 540 OFFCURVE",
"296 540 CURVE SMOOTH",
"282 540 OFFCURVE",
"274 535 OFFCURVE",
"270 524 CURVE SMOOTH",
"264 508 OFFCURVE",
"254 492 OFFCURVE",
"236 476 CURVE SMOOTH",
"233 473 OFFCURVE",
"217 462 OFFCURVE",
"187 439 CURVE SMOOTH",
"179 432 OFFCURVE",
"174 427 OFFCURVE",
"174 422 CURVE SMOOTH",
"174 421 OFFCURVE",
"175 420 OFFCURVE",
"177 420 CURVE SMOOTH",
"181 420 OFFCURVE",
"199 428 OFFCURVE",
"227 447 CURVE SMOOTH",
"244 457 OFFCURVE",
"261 468 OFFCURVE",
"279 480 CURVE SMOOTH",
"288 485 OFFCURVE",
"297 489 OFFCURVE",
"306 495 CURVE SMOOTH",
"318 503 OFFCURVE",
"324 510 OFFCURVE",
"324 517 CURVE SMOOTH"
);
},
{
closed = 1;
nodes = (
"365 380 OFFCURVE",
"359 382 OFFCURVE",
"348 382 CURVE SMOOTH",
"317 382 OFFCURVE",
"294 372 OFFCURVE",
"277 352 CURVE SMOOTH",
"265 338 OFFCURVE",
"255 314 OFFCURVE",
"245 280 CURVE",
"208 261 OFFCURVE",
"163 203 OFFCURVE",
"111 106 CURVE",
"128 157 OFFCURVE",
"137 202 OFFCURVE",
"137 245 CURVE SMOOTH",
"137 296 OFFCURVE",
"124 322 OFFCURVE",
"97 322 CURVE SMOOTH",
"83 322 OFFCURVE",
"66 314 OFFCURVE",
"45 299 CURVE SMOOTH",
"25 285 OFFCURVE",
"10 271 OFFCURVE",
"2 257 CURVE",
"1 255 OFFCURVE",
"0 253 OFFCURVE",
"0 251 CURVE SMOOTH",
"0 248 OFFCURVE",
"1 247 OFFCURVE",
"3 247 CURVE SMOOTH",
"4 247 OFFCURVE",
"12 256 OFFCURVE",
"29 272 CURVE SMOOTH",
"47 287 OFFCURVE",
"62 295 OFFCURVE",
"74 295 CURVE SMOOTH",
"96 295 OFFCURVE",
"107 270 OFFCURVE",
"107 218 CURVE SMOOTH",
"107 150 OFFCURVE",
"102 98 OFFCURVE",
"89 62 CURVE",
"89 61 OFFCURVE",
"86 54 OFFCURVE",
"81 42 CURVE SMOOTH",
"76 29 OFFCURVE",
"73 23 OFFCURVE",
"73 22 CURVE SMOOTH",
"73 17 OFFCURVE",
"76 12 OFFCURVE",
"81 8 CURVE SMOOTH",
"86 3 OFFCURVE",
"90 1 OFFCURVE",
"95 1 CURVE SMOOTH",
"98 1 OFFCURVE",
"99 2 OFFCURVE",
"99 3 CURVE",
"155 150 OFFCURVE",
"203 239 OFFCURVE",
"242 270 CURVE",
"226 211 LINE SMOOTH",
"204 131 OFFCURVE",
"195 70 OFFCURVE",
"187 29 CURVE SMOOTH",
"169 -62 OFFCURVE",
"149 -129 OFFCURVE",
"129 -174 CURVE SMOOTH",
"97 -243 OFFCURVE",
"51 -295 OFFCURVE",
"-9 -329 CURVE SMOOTH",
"-39 -346 OFFCURVE",
"-72 -354 OFFCURVE",
"-107 -354 CURVE SMOOTH",
"-177 -354 OFFCURVE",
"-225 -321 OFFCURVE",
"-252 -255 CURVE SMOOTH",
"-254 -251 OFFCURVE",
"-255 -249 OFFCURVE",
"-257 -249 CURVE SMOOTH",
"-258 -249 OFFCURVE",
"-259 -250 OFFCURVE",
"-259 -253 CURVE SMOOTH",
"-259 -284 OFFCURVE",
"-240 -314 OFFCURVE",
"-201 -344 CURVE SMOOTH",
"-162 -373 OFFCURVE",
"-125 -388 OFFCURVE",
"-90 -388 CURVE SMOOTH",
"-61 -388 OFFCURVE",
"-33 -380 OFFCURVE",
"-8 -366 CURVE SMOOTH",
"48 -334 OFFCURVE",
"95 -284 OFFCURVE",
"134 -215 CURVE SMOOTH",
"164 -161 OFFCURVE",
"191 -91 OFFCURVE",
"215 -6 CURVE SMOOTH",
"218 4 OFFCURVE",
"234 73 OFFCURVE",
"264 201 CURVE SMOOTH",
"285 289 OFFCURVE",
"309 343 OFFCURVE",
"338 364 CURVE",
"344 367 OFFCURVE",
"352 370 OFFCURVE",
"360 371 CURVE SMOOTH",
"363 372 OFFCURVE",
"365 373 OFFCURVE",
"365 376 CURVE SMOOTH"
);
}
);
width = 324;
}
);
note = yacute;
unicode = 00FD;
},
{
glyphname = Thorn;
lastChange = "2021-03-29 15:46:53 +0000";
layers = (
{
hints = (
{
horizontal = 1;
place = "{-267, 11}";
type = Stem;
},
{
horizontal = 1;
place = "{190, 21}";
type = Stem;
},
{
place = "{-54, 56}";
type = Stem;
},
{
place = "{370, 42}";
type = Stem;
}
);
layerId = "89156F97-8AE0-4F29-8E8C-D321EE696556";
paths = (
{
closed = 1;
nodes = (
"411 357 OFFCURVE",
"361 442 OFFCURVE",
"260 551 CURVE",
"292 618 OFFCURVE",
"315 662 OFFCURVE",
"330 685 CURVE SMOOTH",
"336 695 OFFCURVE",
"342 702 OFFCURVE",
"349 706 CURVE SMOOTH",
"355 710 OFFCURVE",
"360 715 OFFCURVE",
"365 723 CURVE SMOOTH",
"366 724 OFFCURVE",
"366 726 OFFCURVE",
"366 728 CURVE SMOOTH",
"366 733 OFFCURVE",
"360 736 OFFCURVE",
"348 736 CURVE SMOOTH",
"330 736 OFFCURVE",
"317 731 OFFCURVE",
"310 719 CURVE SMOOTH",
"303 708 OFFCURVE",
"297 696 OFFCURVE",
"292 686 CURVE SMOOTH",
"199 504 OFFCURVE",
"108 301 OFFCURVE",
"20 80 CURVE SMOOTH",
"5 43 OFFCURVE",
"-11 6 OFFCURVE",
"-26 -31 CURVE SMOOTH",
"-46 -83 OFFCURVE",
"-54 -122 OFFCURVE",
"-54 -145 CURVE SMOOTH",
"-54 -148 LINE SMOOTH",
"-54 -180 OFFCURVE",
"-44 -207 OFFCURVE",
"-20 -231 CURVE SMOOTH",
"4 -255 OFFCURVE",
"31 -267 OFFCURVE",
"63 -267 CURVE SMOOTH",
"76 -267 OFFCURVE",
"91 -262 OFFCURVE",
"109 -254 CURVE SMOOTH",
"126 -245 OFFCURVE",
"138 -235 OFFCURVE",
"144 -224 CURVE",
"110 -245 OFFCURVE",
"81 -256 OFFCURVE",
"57 -256 CURVE SMOOTH",
"20 -256 OFFCURVE",
"2 -227 OFFCURVE",
"2 -171 CURVE SMOOTH",
"2 -109 OFFCURVE",
"19 -31 OFFCURVE",
"53 65 CURVE SMOOTH",
"69 108 OFFCURVE",
"101 184 OFFCURVE",
"147 292 CURVE SMOOTH",
"197 405 OFFCURVE",
"230 485 OFFCURVE",
"248 530 CURVE",
"329 440 OFFCURVE",
"370 362 OFFCURVE",
"370 296 CURVE SMOOTH",
"370 270 OFFCURVE",
"358 249 OFFCURVE",
"334 233 CURVE SMOOTH",
"314 219 OFFCURVE",
"289 211 OFFCURVE",
"260 211 CURVE SMOOTH",
"221 211 OFFCURVE",
"182 225 OFFCURVE",
"143 254 CURVE SMOOTH",
"140 256 OFFCURVE",
"139 257 OFFCURVE",
"138 257 CURVE SMOOTH",
"136 257 OFFCURVE",
"135 256 OFFCURVE",
"135 253 CURVE SMOOTH",
"135 244 OFFCURVE",
"140 236 OFFCURVE",
"149 228 CURVE SMOOTH",
"181 202 OFFCURVE",
"219 190 OFFCURVE",
"265 190 CURVE SMOOTH",
"300 190 OFFCURVE",
"333 199 OFFCURVE",
"361 217 CURVE SMOOTH",
"394 238 OFFCURVE",
"411 264 OFFCURVE",
"411 297 CURVE SMOOTH"
);
}
);
width = 417;
}
);
note = Thorn;
unicode = 00DE;
},
{
glyphname = thorn;
lastChange = "2021-03-29 15:46:53 +0000";
layers = (
{
hints = (
{
horizontal = 1;
place = "{-479, 11}";
type = Stem;
},
{
horizontal = 1;
place = "{-3, 15}";
type = Stem;
},
{
place = "{-162, 56}";
type = Stem;
},
{
place = "{183, 43}";
type = Stem;
}
);
layerId = "89156F97-8AE0-4F29-8E8C-D321EE696556";
paths = (
{
closed = 1;
nodes = (
"314 642 OFFCURVE",
"308 645 OFFCURVE",
"296 645 CURVE SMOOTH",
"277 645 OFFCURVE",
"264 639 OFFCURVE",
"257 629 CURVE SMOOTH",
"256 626 OFFCURVE",
"249 615 OFFCURVE",
"238 593 CURVE SMOOTH",
"137 392 OFFCURVE",
"32 161 OFFCURVE",
"-74 -102 CURVE SMOOTH",
"-91 -144 OFFCURVE",
"-109 -186 OFFCURVE",
"-126 -229 CURVE SMOOTH",
"-150 -288 OFFCURVE",
"-162 -332 OFFCURVE",
"-162 -357 CURVE SMOOTH",
"-162 -359 LINE SMOOTH",
"-162 -390 OFFCURVE",
"-150 -419 OFFCURVE",
"-126 -443 CURVE SMOOTH",
"-103 -466 OFFCURVE",
"-76 -479 OFFCURVE",
"-45 -479 CURVE SMOOTH",
"-31 -479 OFFCURVE",
"-16 -474 OFFCURVE",
"2 -466 CURVE SMOOTH",
"20 -457 OFFCURVE",
"31 -447 OFFCURVE",
"37 -436 CURVE",
"3 -457 OFFCURVE",
"-27 -467 OFFCURVE",
"-50 -467 CURVE SMOOTH",
"-87 -467 OFFCURVE",
"-105 -439 OFFCURVE",
"-105 -383 CURVE SMOOTH",
"-105 -306 OFFCURVE",
"-81 -203 OFFCURVE",
"-29 -76 CURVE SMOOTH",
"12 24 OFFCURVE",
"56 124 OFFCURVE",
"99 223 CURVE",
"155 162 OFFCURVE",
"183 109 OFFCURVE",
"183 67 CURVE SMOOTH",
"183 50 OFFCURVE",
"176 37 OFFCURVE",
"162 27 CURVE SMOOTH",
"147 17 OFFCURVE",
"132 12 OFFCURVE",
"115 12 CURVE SMOOTH",
"98 12 OFFCURVE",
"79 18 OFFCURVE",
"58 29 CURVE SMOOTH",
"38 38 OFFCURVE",
"29 44 OFFCURVE",
"32 44 CURVE SMOOTH",
"31 44 OFFCURVE",
"30 43 OFFCURVE",
"30 41 CURVE SMOOTH",
"30 29 OFFCURVE",
"43 18 OFFCURVE",
"68 9 CURVE SMOOTH",
"88 1 OFFCURVE",
"106 -3 OFFCURVE",
"123 -3 CURVE SMOOTH",
"148 -3 OFFCURVE",
"171 4 OFFCURVE",
"191 16 CURVE SMOOTH",
"215 30 OFFCURVE",
"226 49 OFFCURVE",
"226 73 CURVE SMOOTH",
"226 115 OFFCURVE",
"190 175 OFFCURVE",
"119 254 CURVE",
"203 422 OFFCURVE",
"268 548 OFFCURVE",
"313 632 CURVE SMOOTH",
"314 634 OFFCURVE",
"314 636 OFFCURVE",
"314 637 CURVE SMOOTH"
);
}
);
width = 221;
}
);
note = thorn;
unicode = 00FE;
},
{
glyphname = Lslash;
lastChange = "2021-03-29 15:46:53 +0000";
layers = (
{
hints = (
{
horizontal = 1;
place = "{-115, 60}";
type = Stem;
},
{
horizontal = 1;
place = "{-46, 20}";
type = Stem;
},
{
horizontal = 1;
place = "{624, 28}";
type = Stem;
},
{
place = "{618, 13}";
type = Stem;
},
{
place = "{667, 10}";
type = Stem;
}
);
layerId = "89156F97-8AE0-4F29-8E8C-D321EE696556";
paths = (
{
closed = 1;
nodes = (
"676 48 OFFCURVE",
"665 71 OFFCURVE",
"641 93 CURVE SMOOTH",
"635 100 OFFCURVE",
"630 103 OFFCURVE",
"628 103 CURVE SMOOTH",
"627 103 OFFCURVE",
"626 102 OFFCURVE",
"626 101 CURVE SMOOTH",
"626 98 OFFCURVE",
"633 86 OFFCURVE",
"647 67 CURVE SMOOTH",
"660 47 OFFCURVE",
"667 30 OFFCURVE",
"667 16 CURVE SMOOTH",
"667 -11 OFFCURVE",
"645 -30 OFFCURVE",
"602 -43 CURVE SMOOTH",
"575 -50 OFFCURVE",
"542 -55 OFFCURVE",
"503 -55 CURVE SMOOTH",
"444 -55 OFFCURVE",
"371 -47 OFFCURVE",
"285 -29 CURVE SMOOTH",
"213 -15 OFFCURVE",
"141 0 OFFCURVE",
"68 14 CURVE",
"88 33 OFFCURVE",
"107 57 OFFCURVE",
"128 86 CURVE SMOOTH",
"139 100 OFFCURVE",
"157 126 OFFCURVE",
"181 163 CURVE SMOOTH",
"258 285 LINE",
"311 307 OFFCURVE",
"357 324 OFFCURVE",
"399 335 CURVE SMOOTH",
"430 344 OFFCURVE",
"455 349 OFFCURVE",
"471 352 CURVE SMOOTH",
"475 353 OFFCURVE",
"477 355 OFFCURVE",
"477 359 CURVE SMOOTH",
"477 364 OFFCURVE",
"474 366 OFFCURVE",
"469 366 CURVE SMOOTH",
"467 366 OFFCURVE",
"458 365 OFFCURVE",
"440 363 CURVE SMOOTH",
"386 356 OFFCURVE",
"334 346 OFFCURVE",
"288 331 CURVE",
"341 413 OFFCURVE",
"386 480 OFFCURVE",
"421 531 CURVE SMOOTH",
"464 593 OFFCURVE",
"503 624 OFFCURVE",
"540 624 CURVE SMOOTH",
"565 624 OFFCURVE",
"585 609 OFFCURVE",
"599 580 CURVE SMOOTH",
"611 557 OFFCURVE",
"618 531 OFFCURVE",
"618 502 CURVE SMOOTH",
"618 472 OFFCURVE",
"611 443 OFFCURVE",
"598 413 CURVE SMOOTH",
"597 410 OFFCURVE",
"596 409 OFFCURVE",
"596 408 CURVE SMOOTH",
"596 404 OFFCURVE",
"598 402 OFFCURVE",
"602 402 CURVE SMOOTH",
"605 402 OFFCURVE",
"608 403 OFFCURVE",
"609 405 CURVE SMOOTH",
"623 439 OFFCURVE",
"631 476 OFFCURVE",
"631 517 CURVE SMOOTH",
"631 552 OFFCURVE",
"624 582 OFFCURVE",
"609 607 CURVE SMOOTH",
"591 637 OFFCURVE",
"565 652 OFFCURVE",
"533 652 CURVE SMOOTH",
"486 652 OFFCURVE",
"439 622 OFFCURVE",
"393 560 CURVE SMOOTH",
"363 518 OFFCURVE",
"343 485 OFFCURVE",
"329 463 CURVE SMOOTH",
"280 388 OFFCURVE",
"247 336 OFFCURVE",
"229 309 CURVE",
"169 283 OFFCURVE",
"124 264 OFFCURVE",
"95 251 CURVE SMOOTH",
"64 238 OFFCURVE",
"39 227 OFFCURVE",
"23 220 CURVE SMOOTH",
"20 219 OFFCURVE",
"19 217 OFFCURVE",
"19 212 CURVE SMOOTH",
"19 196 OFFCURVE",
"23 188 OFFCURVE",
"31 188 CURVE SMOOTH",
"35 188 OFFCURVE",
"89 211 OFFCURVE",
"193 257 CURVE",
"65 68 OFFCURVE",
"-24 -26 OFFCURVE",
"-70 -26 CURVE SMOOTH",
"-85 -26 OFFCURVE",
"-92 -29 OFFCURVE",
"-92 -33 CURVE SMOOTH",
"-92 -42 OFFCURVE",
"-82 -46 OFFCURVE",
"-61 -46 CURVE SMOOTH",
"-45 -46 OFFCURVE",
"-26 -41 OFFCURVE",
"-6 -29 CURVE SMOOTH",
"11 -20 OFFCURVE",
"29 -10 OFFCURVE",
"45 0 CURVE",
"68 -5 OFFCURVE",
"140 -29 OFFCURVE",
"260 -69 CURVE SMOOTH",
"352 -100 OFFCURVE",
"424 -115 OFFCURVE",
"478 -115 CURVE SMOOTH",
"494 -115 OFFCURVE",
"510 -113 OFFCURVE",
"526 -110 CURVE SMOOTH",
"560 -104 OFFCURVE",
"592 -87 OFFCURVE",
"622 -65 CURVE SMOOTH",
"658 -37 OFFCURVE",
"676 -9 OFFCURVE",
"676 22 CURVE SMOOTH"
);
}
);
width = 697;
}
);
note = Lslash;
unicode = 0141;
},
{
glyphname = Zcaron;
lastChange = "2021-03-29 15:46:53 +0000";
layers = (
{
hints = (
{
horizontal = 1;
place = "{-115, 40}";
type = Stem;
},
{
horizontal = 1;
place = "{-71, 21}";
type = Stem;
},
{
horizontal = 1;
place = "{-23, 114}";
type = Stem;
},
{
horizontal = 1;
place = "{544, 29}";
type = Stem;
},
{
horizontal = 1;
place = "{588, 40}";
type = Stem;
},
{
place = "{-9, 16}";
type = Stem;
},
{
place = "{258, 13}";
type = Stem;
},
{
place = "{806, 10}";
type = Stem;
},
{
place = "{937, 36}";
type = Stem;
}
);
layerId = "89156F97-8AE0-4F29-8E8C-D321EE696556";
paths = (
{
closed = 1;
nodes = (
"816 764 LINE",
"812 770 LINE",
"802 770 OFFCURVE",
"781 760 OFFCURVE",
"751 741 CURVE SMOOTH",
"722 723 OFFCURVE",
"703 709 OFFCURVE",
"694 698 CURVE",
"638 744 OFFCURVE",
"607 767 OFFCURVE",
"600 767 CURVE SMOOTH",
"597 767 OFFCURVE",
"595 764 OFFCURVE",
"595 759 CURVE SMOOTH",
"595 753 OFFCURVE",
"611 736 OFFCURVE",
"644 709 CURVE SMOOTH",
"677 681 OFFCURVE",
"697 667 OFFCURVE",
"705 666 CURVE",
"710 669 LINE",
"732 693 OFFCURVE",
"766 721 OFFCURVE",
"812 756 CURVE"
);
},
{
closed = 1;
nodes = (
"973 580 OFFCURVE",
"961 584 OFFCURVE",
"938 584 CURVE SMOOTH",
"909 584 OFFCURVE",
"877 576 OFFCURVE",
"842 559 CURVE",
"819 561 OFFCURVE",
"792 565 OFFCURVE",
"761 572 CURVE",
"792 591 OFFCURVE",
"824 608 OFFCURVE",
"854 620 CURVE SMOOTH",
"875 629 OFFCURVE",
"892 635 OFFCURVE",
"903 638 CURVE SMOOTH",
"910 641 OFFCURVE",
"913 645 OFFCURVE",
"913 650 CURVE SMOOTH",
"913 651 OFFCURVE",
"912 652 OFFCURVE",
"911 652 CURVE SMOOTH",
"901 652 OFFCURVE",
"873 640 OFFCURVE",
"829 618 CURVE SMOOTH",
"794 601 OFFCURVE",
"768 586 OFFCURVE",
"749 574 CURVE",
"696 586 OFFCURVE",
"645 598 OFFCURVE",
"593 609 CURVE SMOOTH",
"531 622 OFFCURVE",
"479 628 OFFCURVE",
"434 628 CURVE SMOOTH",
"412 628 OFFCURVE",
"392 626 OFFCURVE",
"374 623 CURVE SMOOTH",
"346 618 OFFCURVE",
"320 607 OFFCURVE",
"297 588 CURVE SMOOTH",
"272 567 OFFCURVE",
"258 543 OFFCURVE",
"258 518 CURVE SMOOTH",
"258 499 OFFCURVE",
"266 480 OFFCURVE",
"280 461 CURVE",
"283 460 LINE",
"288 461 OFFCURVE",
"290 463 OFFCURVE",
"290 467 CURVE SMOOTH",
"290 466 OFFCURVE",
"287 472 OFFCURVE",
"280 483 CURVE SMOOTH",
"275 493 OFFCURVE",
"272 503 OFFCURVE",
"272 511 CURVE SMOOTH",
"272 538 OFFCURVE",
"293 559 OFFCURVE",
"333 573 CURVE SMOOTH",
"363 583 OFFCURVE",
"394 588 OFFCURVE",
"428 588 CURVE SMOOTH",
"465 588 OFFCURVE",
"513 583 OFFCURVE",
"572 575 CURVE SMOOTH",
"620 568 OFFCURVE",
"668 561 OFFCURVE",
"716 553 CURVE",
"628 493 OFFCURVE",
"527 403 OFFCURVE",
"413 282 CURVE",
"319 278 OFFCURVE",
"272 260 OFFCURVE",
"272 229 CURVE SMOOTH",
"272 220 OFFCURVE",
"275 214 OFFCURVE",
"280 207 CURVE SMOOTH",
"288 198 OFFCURVE",
"295 193 OFFCURVE",
"301 193 CURVE",
"302 194 OFFCURVE",
"302 194 OFFCURVE",
"302 195 CURVE",
"302 194 OFFCURVE",
"301 196 OFFCURVE",
"299 200 CURVE SMOOTH",
"297 202 OFFCURVE",
"296 206 OFFCURVE",
"296 209 CURVE SMOOTH",
"296 227 OFFCURVE",
"325 240 OFFCURVE",
"383 251 CURVE",
"286 147 OFFCURVE",
"232 89 OFFCURVE",
"221 78 CURVE",
"184 86 OFFCURVE",
"151 91 OFFCURVE",
"121 91 CURVE SMOOTH",
"89 91 OFFCURVE",
"61 86 OFFCURVE",
"37 73 CURVE SMOOTH",
"7 58 OFFCURVE",
"-9 36 OFFCURVE",
"-9 7 CURVE SMOOTH",
"-9 -15 OFFCURVE",
"3 -33 OFFCURVE",
"27 -49 CURVE SMOOTH",
"48 -64 OFFCURVE",
"69 -71 OFFCURVE",
"91 -71 CURVE SMOOTH",
"133 -71 OFFCURVE",
"171 -61 OFFCURVE",
"205 -39 CURVE SMOOTH",
"231 -23 OFFCURVE",
"261 4 OFFCURVE",
"295 41 CURVE",
"357 10 OFFCURVE",
"419 -23 OFFCURVE",
"481 -54 CURVE SMOOTH",
"561 -95 OFFCURVE",
"625 -115 OFFCURVE",
"672 -115 CURVE SMOOTH",
"703 -115 OFFCURVE",
"732 -107 OFFCURVE",
"762 -92 CURVE SMOOTH",
"797 -74 OFFCURVE",
"815 -51 OFFCURVE",
"815 -24 CURVE SMOOTH",
"815 -13 OFFCURVE",
"811 -1 OFFCURVE",
"803 13 CURVE SMOOTH",
"794 28 OFFCURVE",
"786 36 OFFCURVE",
"777 40 CURVE",
"796 12 OFFCURVE",
"806 -11 OFFCURVE",
"806 -30 CURVE SMOOTH",
"806 -60 OFFCURVE",
"779 -75 OFFCURVE",
"726 -75 CURVE SMOOTH",
"670 -75 OFFCURVE",
"599 -61 OFFCURVE",
"513 -29 CURVE SMOOTH",
"443 -2 OFFCURVE",
"374 26 OFFCURVE",
"305 52 CURVE",
"398 146 OFFCURVE",
"467 217 OFFCURVE",
"513 264 CURVE",
"542 265 OFFCURVE",
"571 266 OFFCURVE",
"599 266 CURVE SMOOTH",
"609 266 OFFCURVE",
"623 265 OFFCURVE",
"642 264 CURVE SMOOTH",
"661 263 OFFCURVE",
"675 262 OFFCURVE",
"685 262 CURVE SMOOTH",
"689 262 OFFCURVE",
"691 263 OFFCURVE",
"691 264 CURVE SMOOTH",
"691 265 OFFCURVE",
"689 267 OFFCURVE",
"684 268 CURVE SMOOTH",
"647 276 OFFCURVE",
"597 280 OFFCURVE",
"532 282 CURVE",
"656 405 OFFCURVE",
"757 492 OFFCURVE",
"836 543 CURVE",
"927 542 OFFCURVE",
"973 551 OFFCURVE",
"973 570 CURVE SMOOTH"
);
},
{
closed = 1;
nodes = (
"937 561 OFFCURVE",
"922 557 OFFCURVE",
"892 557 CURVE SMOOTH",
"882 557 LINE SMOOTH",
"878 557 OFFCURVE",
"872 557 OFFCURVE",
"865 558 CURVE",
"887 567 OFFCURVE",
"907 572 OFFCURVE",
"923 572 CURVE SMOOTH",
"932 572 OFFCURVE",
"937 571 OFFCURVE",
"937 568 CURVE SMOOTH"
);
},
{
closed = 1;
nodes = (
"711 487 OFFCURVE",
"602 400 OFFCURVE",
"491 283 CURVE",
"473 284 OFFCURVE",
"455 284 OFFCURVE",
"437 283 CURVE",
"557 409 OFFCURVE",
"655 499 OFFCURVE",
"731 551 CURVE",
"760 548 OFFCURVE",
"789 545 OFFCURVE",
"814 544 CURVE"
);
},
{
closed = 1;
nodes = (
"390 171 OFFCURVE",
"331 104 OFFCURVE",
"292 57 CURVE",
"272 64 OFFCURVE",
"254 69 OFFCURVE",
"237 74 CURVE",
"314 154 OFFCURVE",
"372 214 OFFCURVE",
"410 255 CURVE",
"428 257 OFFCURVE",
"448 259 OFFCURVE",
"469 261 CURVE"
);
},
{
closed = 1;
nodes = (
"266 23 OFFCURVE",
"238 1 OFFCURVE",
"199 -20 CURVE SMOOTH",
"160 -40 OFFCURVE",
"126 -50 OFFCURVE",
"99 -50 CURVE SMOOTH",
"77 -50 OFFCURVE",
"57 -45 OFFCURVE",
"39 -33 CURVE SMOOTH",
"18 -20 OFFCURVE",
"8 -3 OFFCURVE",
"8 18 CURVE SMOOTH",
"8 41 OFFCURVE",
"22 59 OFFCURVE",
"49 71 CURVE SMOOTH",
"71 81 OFFCURVE",
"95 86 OFFCURVE",
"122 86 CURVE SMOOTH",
"143 86 OFFCURVE",
"174 81 OFFCURVE",
"213 70 CURVE",
"155 13 OFFCURVE",
"109 -15 OFFCURVE",
"78 -15 CURVE SMOOTH",
"75 -15 OFFCURVE",
"74 -15 OFFCURVE",
"73 -15 CURVE",
"77 -20 OFFCURVE",
"84 -23 OFFCURVE",
"94 -23 CURVE SMOOTH",
"124 -23 OFFCURVE",
"169 7 OFFCURVE",
"229 66 CURVE",
"254 59 OFFCURVE",
"272 51 OFFCURVE",
"282 45 CURVE"
);
}
);
width = 778;
}
);
note = Zcaron;
unicode = 017D;
},
{
glyphname = zcaron;
lastChange = "2021-03-29 15:46:53 +0000";
layers = (
{
hints = (
{
horizontal = 1;
place = "{-366, 27}";
type = Stem;
},
{
horizontal = 1;
place = "{152, 30}";
type = Stem;
},
{
horizontal = 1;
place = "{311, -20}";
target = down;
type = TopGhost;
},
{
place = "{-290, 19}";
type = Stem;
},
{
place = "{181, 31}";
type = Stem;
},
{
place = "{213, 32}";
type = Stem;
},
{
place = "{312, 12}";
type = Stem;
}
);
layerId = "89156F97-8AE0-4F29-8E8C-D321EE696556";
paths = (
{
closed = 1;
nodes = (
"329 477 LINE",
"325 483 LINE",
"314 482 OFFCURVE",
"294 472 OFFCURVE",
"264 454 CURVE SMOOTH",
"235 436 OFFCURVE",
"216 422 OFFCURVE",
"206 411 CURVE",
"150 457 OFFCURVE",
"119 480 OFFCURVE",
"112 480 CURVE SMOOTH",
"108 480 OFFCURVE",
"106 477 OFFCURVE",
"106 471 CURVE SMOOTH",
"106 466 OFFCURVE",
"124 449 OFFCURVE",
"157 422 CURVE SMOOTH",
"190 394 OFFCURVE",
"210 380 OFFCURVE",
"217 379 CURVE",
"222 381 LINE",
"243 405 OFFCURVE",
"277 434 OFFCURVE",
"324 469 CURVE"
);
},
{
closed = 1;
nodes = (
"324 -29 OFFCURVE",
"312 -18 OFFCURVE",
"288 -10 CURVE SMOOTH",
"269 -3 OFFCURVE",
"251 0 OFFCURVE",
"235 1 CURVE",
"241 27 OFFCURVE",
"245 54 OFFCURVE",
"245 86 CURVE SMOOTH",
"245 150 OFFCURVE",
"227 182 OFFCURVE",
"190 182 CURVE SMOOTH",
"178 182 OFFCURVE",
"162 177 OFFCURVE",
"145 166 CURVE",
"190 215 OFFCURVE",
"212 254 OFFCURVE",
"212 282 CURVE SMOOTH",
"212 301 OFFCURVE",
"198 311 OFFCURVE",
"169 311 CURVE SMOOTH",
"134 311 OFFCURVE",
"95 274 OFFCURVE",
"51 200 CURVE SMOOTH",
"36 174 OFFCURVE",
"24 153 OFFCURVE",
"13 135 CURVE SMOOTH",
"11 132 OFFCURVE",
"10 129 OFFCURVE",
"10 127 CURVE SMOOTH",
"10 124 OFFCURVE",
"11 123 OFFCURVE",
"14 123 CURVE SMOOTH",
"16 123 OFFCURVE",
"19 124 OFFCURVE",
"21 128 CURVE SMOOTH",
"87 238 OFFCURVE",
"136 292 OFFCURVE",
"167 292 CURVE SMOOTH",
"176 292 OFFCURVE",
"181 287 OFFCURVE",
"181 277 CURVE SMOOTH",
"181 262 OFFCURVE",
"168 238 OFFCURVE",
"144 206 CURVE SMOOTH",
"125 181 OFFCURVE",
"107 159 OFFCURVE",
"89 143 CURVE SMOOTH",
"86 140 OFFCURVE",
"85 137 OFFCURVE",
"85 134 CURVE SMOOTH",
"85 128 OFFCURVE",
"87 125 OFFCURVE",
"94 125 CURVE",
"94 125 OFFCURVE",
"104 130 OFFCURVE",
"122 139 CURVE SMOOTH",
"140 147 OFFCURVE",
"154 152 OFFCURVE",
"166 152 CURVE SMOOTH",
"198 152 OFFCURVE",
"213 129 OFFCURVE",
"213 83 CURVE SMOOTH",
"213 58 OFFCURVE",
"208 30 OFFCURVE",
"200 1 CURVE",
"80 -2 OFFCURVE",
"-25 -29 OFFCURVE",
"-114 -82 CURVE SMOOTH",
"-158 -107 OFFCURVE",
"-196 -137 OFFCURVE",
"-228 -171 CURVE SMOOTH",
"-270 -216 OFFCURVE",
"-290 -258 OFFCURVE",
"-290 -297 CURVE SMOOTH",
"-290 -343 OFFCURVE",
"-262 -366 OFFCURVE",
"-208 -366 CURVE SMOOTH",
"-169 -366 OFFCURVE",
"-123 -352 OFFCURVE",
"-67 -327 CURVE SMOOTH",
"4 -294 OFFCURVE",
"65 -252 OFFCURVE",
"117 -200 CURVE SMOOTH",
"177 -143 OFFCURVE",
"215 -80 OFFCURVE",
"232 -13 CURVE",
"244 -13 OFFCURVE",
"259 -16 OFFCURVE",
"277 -23 CURVE SMOOTH",
"300 -30 OFFCURVE",
"312 -39 OFFCURVE",
"312 -48 CURVE SMOOTH",
"312 -48 OFFCURVE",
"312 -50 OFFCURVE",
"311 -52 CURVE SMOOTH",
"310 -53 OFFCURVE",
"310 -55 OFFCURVE",
"310 -56 CURVE SMOOTH",
"310 -59 OFFCURVE",
"311 -60 OFFCURVE",
"313 -60 CURVE SMOOTH",
"320 -60 OFFCURVE",
"324 -53 OFFCURVE",
"324 -41 CURVE SMOOTH"
);
},
{
closed = 1;
nodes = (
"172 -97 OFFCURVE",
"122 -170 OFFCURVE",
"46 -236 CURVE SMOOTH",
"-35 -305 OFFCURVE",
"-116 -339 OFFCURVE",
"-199 -339 CURVE SMOOTH",
"-247 -339 OFFCURVE",
"-271 -323 OFFCURVE",
"-271 -292 CURVE SMOOTH",
"-271 -261 OFFCURVE",
"-252 -227 OFFCURVE",
"-214 -187 CURVE SMOOTH",
"-184 -157 OFFCURVE",
"-153 -130 OFFCURVE",
"-118 -109 CURVE SMOOTH",
"-75 -83 OFFCURVE",
"-25 -61 OFFCURVE",
"33 -43 CURVE SMOOTH",
"91 -26 OFFCURVE",
"145 -16 OFFCURVE",
"197 -14 CURVE"
);
}
);
width = 265;
}
);
note = zcaron;
unicode = 017E;
},
{
glyphname = onehalf;
lastChange = "2021-03-29 15:46:53 +0000";
layers = (
{
hints = (
{
horizontal = 1;
place = "{-45, 29}";
type = Stem;
},
{
horizontal = 1;
place = "{35, 17}";
type = Stem;
},
{
horizontal = 1;
place = "{267, 30}";
type = Stem;
},
{
horizontal = 1;
place = "{320, 10}";
type = Stem;
},
{
place = "{170, 13}";
type = Stem;
},
{
place = "{318, 11}";
type = Stem;
},
{
place = "{532, 33}";
type = Stem;
}
);
layerId = "89156F97-8AE0-4F29-8E8C-D321EE696556";
paths = (
{
closed = 1;
nodes = (
"698 677 OFFCURVE",
"694 679 OFFCURVE",
"686 679 CURVE SMOOTH",
"670 679 OFFCURVE",
"654 674 OFFCURVE",
"636 661 CURVE",
"583 618 OFFCURVE",
"544 584 OFFCURVE",
"516 558 CURVE SMOOTH",
"416 465 OFFCURVE",
"321 369 OFFCURVE",
"233 269 CURVE SMOOTH",
"112 133 OFFCURVE",
"36 27 OFFCURVE",
"4 -52 CURVE SMOOTH",
"-5 -73 OFFCURVE",
"-9 -86 OFFCURVE",
"-9 -92 CURVE SMOOTH",
"-9 -95 OFFCURVE",
"-6 -100 OFFCURVE",
"-1 -105 CURVE SMOOTH",
"4 -109 OFFCURVE",
"7 -111 OFFCURVE",
"10 -111 CURVE SMOOTH",
"10 -111 OFFCURVE",
"10 -111 OFFCURVE",
"11 -110 CURVE",
"19 -81 OFFCURVE",
"28 -56 OFFCURVE",
"37 -35 CURVE SMOOTH",
"85 68 OFFCURVE",
"182 194 OFFCURVE",
"330 343 CURVE SMOOTH",
"437 452 OFFCURVE",
"559 561 OFFCURVE",
"694 669 CURVE SMOOTH",
"696 672 OFFCURVE",
"698 674 OFFCURVE",
"698 675 CURVE SMOOTH"
);
},
{
closed = 1;
nodes = (
"300 631 OFFCURVE",
"295 637 OFFCURVE",
"287 637 CURVE SMOOTH",
"280 637 OFFCURVE",
"265 625 OFFCURVE",
"240 603 CURVE SMOOTH",
"185 554 OFFCURVE",
"149 523 OFFCURVE",
"134 507 CURVE",
"130 504 OFFCURVE",
"128 502 OFFCURVE",
"128 499 CURVE SMOOTH",
"128 497 OFFCURVE",
"130 496 OFFCURVE",
"134 496 CURVE SMOOTH",
"138 496 OFFCURVE",
"155 508 OFFCURVE",
"184 534 CURVE SMOOTH",
"203 550 OFFCURVE",
"220 561 OFFCURVE",
"235 568 CURVE",
"234 566 OFFCURVE",
"233 563 OFFCURVE",
"230 561 CURVE",
"194 502 LINE SMOOTH",
"155 438 OFFCURVE",
"134 406 OFFCURVE",
"133 404 CURVE SMOOTH",
"107 363 OFFCURVE",
"96 326 OFFCURVE",
"93 297 CURVE",
"48 295 OFFCURVE",
"20 295 OFFCURVE",
"8 295 CURVE SMOOTH",
"5 295 OFFCURVE",
"4 292 OFFCURVE",
"4 285 CURVE SMOOTH",
"4 273 OFFCURVE",
"6 267 OFFCURVE",
"10 267 CURVE SMOOTH",
"27 267 OFFCURVE",
"55 270 OFFCURVE",
"95 276 CURVE",
"98 269 OFFCURVE",
"105 265 OFFCURVE",
"118 265 CURVE SMOOTH",
"121 265 OFFCURVE",
"122 268 OFFCURVE",
"122 274 CURVE SMOOTH",
"122 275 OFFCURVE",
"122 277 OFFCURVE",
"122 280 CURVE",
"147 284 OFFCURVE",
"168 286 OFFCURVE",
"184 286 CURVE SMOOTH",
"187 286 OFFCURVE",
"190 286 OFFCURVE",
"195 286 CURVE SMOOTH",
"200 285 OFFCURVE",
"202 285 OFFCURVE",
"204 285 CURVE SMOOTH",
"208 285 OFFCURVE",
"210 287 OFFCURVE",
"210 291 CURVE SMOOTH",
"210 294 OFFCURVE",
"208 295 OFFCURVE",
"205 295 CURVE SMOOTH",
"195 297 OFFCURVE",
"173 298 OFFCURVE",
"142 298 CURVE SMOOTH",
"122 298 LINE",
"122 299 LINE SMOOTH",
"138 384 OFFCURVE",
"181 469 OFFCURVE",
"252 557 CURVE SMOOTH",
"270 579 OFFCURVE",
"285 594 OFFCURVE",
"295 604 CURVE SMOOTH",
"298 608 OFFCURVE",
"300 614 OFFCURVE",
"300 620 CURVE SMOOTH"
);
},
{
closed = 1;
nodes = (
"581 33 OFFCURVE",
"573 49 OFFCURVE",
"556 65 CURVE SMOOTH",
"540 80 OFFCURVE",
"523 87 OFFCURVE",
"504 87 CURVE",
"502 86 OFFCURVE",
"500 86 OFFCURVE",
"500 85 CURVE SMOOTH",
"500 84 OFFCURVE",
"501 84 OFFCURVE",
"504 83 CURVE SMOOTH",
"520 78 OFFCURVE",
"534 70 OFFCURVE",
"548 60 CURVE SMOOTH",
"565 48 OFFCURVE",
"574 34 OFFCURVE",
"574 20 CURVE SMOOTH",
"574 8 OFFCURVE",
"565 -2 OFFCURVE",
"548 -9 CURVE SMOOTH",
"536 -13 OFFCURVE",
"522 -15 OFFCURVE",
"506 -15 CURVE SMOOTH",
"488 -15 OFFCURVE",
"459 -10 OFFCURVE",
"420 -1 CURVE SMOOTH",
"364 12 OFFCURVE",
"323 23 OFFCURVE",
"295 30 CURVE",
"357 58 OFFCURVE",
"412 89 OFFCURVE",
"460 124 CURVE SMOOTH",
"530 176 OFFCURVE",
"565 223 OFFCURVE",
"565 265 CURVE SMOOTH",
"565 287 OFFCURVE",
"556 304 OFFCURVE",
"538 315 CURVE SMOOTH",
"522 325 OFFCURVE",
"503 330 OFFCURVE",
"480 330 CURVE SMOOTH",
"447 330 OFFCURVE",
"413 321 OFFCURVE",
"379 304 CURVE SMOOTH",
"338 283 OFFCURVE",
"318 258 OFFCURVE",
"318 229 CURVE SMOOTH",
"318 224 OFFCURVE",
"320 218 OFFCURVE",
"322 210 CURVE SMOOTH",
"325 200 OFFCURVE",
"328 196 OFFCURVE",
"332 196 CURVE SMOOTH",
"333 196 OFFCURVE",
"333 197 OFFCURVE",
"333 200 CURVE SMOOTH",
"333 202 OFFCURVE",
"332 205 OFFCURVE",
"332 210 CURVE",
"330 214 OFFCURVE",
"330 217 OFFCURVE",
"330 219 CURVE SMOOTH",
"330 249 OFFCURVE",
"348 273 OFFCURVE",
"384 294 CURVE SMOOTH",
"414 311 OFFCURVE",
"446 320 OFFCURVE",
"478 320 CURVE SMOOTH",
"514 320 OFFCURVE",
"532 306 OFFCURVE",
"532 277 CURVE SMOOTH",
"532 238 OFFCURVE",
"503 193 OFFCURVE",
"442 145 CURVE SMOOTH",
"420 128 OFFCURVE",
"403 117 OFFCURVE",
"390 109 CURVE SMOOTH",
"346 81 OFFCURVE",
"307 57 OFFCURVE",
"274 40 CURVE",
"248 48 OFFCURVE",
"227 52 OFFCURVE",
"211 52 CURVE SMOOTH",
"183 52 OFFCURVE",
"170 43 OFFCURVE",
"170 24 CURVE SMOOTH",
"170 9 OFFCURVE",
"181 1 OFFCURVE",
"200 1 CURVE SMOOTH",
"219 1 OFFCURVE",
"243 8 OFFCURVE",
"276 21 CURVE",
"309 7 OFFCURVE",
"343 -7 OFFCURVE",
"377 -21 CURVE SMOOTH",
"416 -37 OFFCURVE",
"451 -45 OFFCURVE",
"485 -45 CURVE SMOOTH",
"509 -45 OFFCURVE",
"530 -41 OFFCURVE",
"547 -32 CURVE SMOOTH",
"570 -22 OFFCURVE",
"581 -6 OFFCURVE",
"581 16 CURVE SMOOTH"
);
},
{
closed = 1;
nodes = (
"241 25 OFFCURVE",
"234 21 OFFCURVE",
"226 16 CURVE SMOOTH",
"217 11 OFFCURVE",
"208 10 OFFCURVE",
"200 10 CURVE SMOOTH",
"189 10 OFFCURVE",
"183 13 OFFCURVE",
"183 20 CURVE SMOOTH",
"183 30 OFFCURVE",
"193 35 OFFCURVE",
"211 35 CURVE SMOOTH",
"217 35 OFFCURVE",
"230 33 OFFCURVE",
"250 29 CURVE"
);
}
);
width = 632;
}
);
note = onehalf;
unicode = 00BD;
},
{
glyphname = onequarter;
lastChange = "2021-03-29 15:46:53 +0000";
layers = (
{
hints = (
{
horizontal = 1;
place = "{-30, 29}";
type = Stem;
},
{
horizontal = 1;
place = "{80, 31}";
type = Stem;
},
{
horizontal = 1;
place = "{121, 11}";
type = Stem;
},
{
horizontal = 1;
place = "{279, 30}";
type = Stem;
},
{
place = "{170, 10}";
type = Stem;
}
);
layerId = "89156F97-8AE0-4F29-8E8C-D321EE696556";
paths = (
{
closed = 1;
nodes = (
"698 677 OFFCURVE",
"694 679 OFFCURVE",
"686 679 CURVE SMOOTH",
"670 679 OFFCURVE",
"654 674 OFFCURVE",
"636 661 CURVE",
"583 618 OFFCURVE",
"544 584 OFFCURVE",
"516 558 CURVE SMOOTH",
"416 465 OFFCURVE",
"321 369 OFFCURVE",
"233 269 CURVE SMOOTH",
"112 133 OFFCURVE",
"36 27 OFFCURVE",
"4 -52 CURVE SMOOTH",
"-5 -73 OFFCURVE",
"-9 -86 OFFCURVE",
"-9 -92 CURVE SMOOTH",
"-9 -95 OFFCURVE",
"-6 -100 OFFCURVE",
"-1 -105 CURVE SMOOTH",
"4 -109 OFFCURVE",
"7 -111 OFFCURVE",
"10 -111 CURVE SMOOTH",
"10 -111 OFFCURVE",
"10 -111 OFFCURVE",
"11 -110 CURVE",
"19 -81 OFFCURVE",
"28 -56 OFFCURVE",
"37 -35 CURVE SMOOTH",
"85 68 OFFCURVE",
"182 194 OFFCURVE",
"330 343 CURVE SMOOTH",
"437 452 OFFCURVE",
"559 561 OFFCURVE",
"694 669 CURVE SMOOTH",
"696 672 OFFCURVE",
"698 674 OFFCURVE",
"698 675 CURVE SMOOTH"
);
},
{
closed = 1;
nodes = (
"310 643 OFFCURVE",
"305 649 OFFCURVE",
"296 649 CURVE SMOOTH",
"290 649 OFFCURVE",
"275 637 OFFCURVE",
"250 616 CURVE SMOOTH",
"195 566 OFFCURVE",
"159 535 OFFCURVE",
"143 521 CURVE SMOOTH",
"140 517 OFFCURVE",
"138 514 OFFCURVE",
"138 511 CURVE SMOOTH",
"138 509 OFFCURVE",
"140 508 OFFCURVE",
"143 508 CURVE SMOOTH",
"147 508 OFFCURVE",
"164 521 OFFCURVE",
"194 546 CURVE SMOOTH",
"213 563 OFFCURVE",
"230 575 OFFCURVE",
"244 580 CURVE",
"243 579 OFFCURVE",
"241 576 OFFCURVE",
"239 573 CURVE SMOOTH",
"203 514 LINE SMOOTH",
"164 450 OFFCURVE",
"143 418 OFFCURVE",
"142 416 CURVE SMOOTH",
"119 374 OFFCURVE",
"105 339 OFFCURVE",
"103 310 CURVE",
"58 309 OFFCURVE",
"29 308 OFFCURVE",
"17 308 CURVE SMOOTH",
"14 308 OFFCURVE",
"13 304 OFFCURVE",
"13 297 CURVE SMOOTH",
"13 285 OFFCURVE",
"15 279 OFFCURVE",
"20 279 CURVE SMOOTH",
"36 279 OFFCURVE",
"65 282 OFFCURVE",
"105 289 CURVE",
"107 281 OFFCURVE",
"115 277 OFFCURVE",
"126 277 CURVE SMOOTH",
"129 277 OFFCURVE",
"131 280 OFFCURVE",
"131 286 CURVE SMOOTH",
"131 288 OFFCURVE",
"131 291 OFFCURVE",
"131 294 CURVE",
"157 297 OFFCURVE",
"178 299 OFFCURVE",
"194 299 CURVE SMOOTH",
"197 299 OFFCURVE",
"200 299 OFFCURVE",
"204 298 CURVE SMOOTH",
"209 298 OFFCURVE",
"212 298 OFFCURVE",
"214 298 CURVE SMOOTH",
"218 298 OFFCURVE",
"219 300 OFFCURVE",
"219 303 CURVE SMOOTH",
"219 306 OFFCURVE",
"218 307 OFFCURVE",
"215 308 CURVE SMOOTH",
"204 310 OFFCURVE",
"182 311 OFFCURVE",
"151 311 CURVE SMOOTH",
"131 311 LINE",
"131 312 LINE SMOOTH",
"147 396 OFFCURVE",
"189 483 OFFCURVE",
"260 569 CURVE SMOOTH",
"278 591 OFFCURVE",
"294 607 OFFCURVE",
"304 618 CURVE SMOOTH",
"308 621 OFFCURVE",
"310 626 OFFCURVE",
"310 633 CURVE SMOOTH"
);
},
{
closed = 1;
nodes = (
"611 166 OFFCURVE",
"602 182 OFFCURVE",
"584 195 CURVE SMOOTH",
"566 207 OFFCURVE",
"548 214 OFFCURVE",
"528 214 CURVE SMOOTH",
"523 214 OFFCURVE",
"522 213 OFFCURVE",
"522 211 CURVE SMOOTH",
"522 210 OFFCURVE",
"523 210 OFFCURVE",
"525 209 CURVE",
"534 208 OFFCURVE",
"542 206 OFFCURVE",
"547 204 CURVE SMOOTH",
"584 192 OFFCURVE",
"602 174 OFFCURVE",
"602 152 CURVE SMOOTH",
"602 135 OFFCURVE",
"585 123 OFFCURVE",
"550 114 CURVE SMOOTH",
"542 112 OFFCURVE",
"531 111 OFFCURVE",
"516 111 CURVE SMOOTH",
"494 111 OFFCURVE",
"466 113 OFFCURVE",
"430 118 CURVE",
"452 159 OFFCURVE",
"469 189 OFFCURVE",
"480 209 CURVE SMOOTH",
"488 225 OFFCURVE",
"496 239 OFFCURVE",
"502 250 CURVE",
"506 255 OFFCURVE",
"510 258 OFFCURVE",
"512 260 CURVE",
"514 261 OFFCURVE",
"523 281 OFFCURVE",
"541 318 CURVE SMOOTH",
"557 355 OFFCURVE",
"565 374 OFFCURVE",
"565 375 CURVE SMOOTH",
"565 379 OFFCURVE",
"561 381 OFFCURVE",
"553 381 CURVE SMOOTH",
"542 381 OFFCURVE",
"532 377 OFFCURVE",
"525 370 CURVE SMOOTH",
"507 350 OFFCURVE",
"493 334 OFFCURVE",
"485 325 CURVE SMOOTH",
"395 227 OFFCURVE",
"322 167 OFFCURVE",
"265 147 CURVE",
"241 152 OFFCURVE",
"222 155 OFFCURVE",
"208 155 CURVE SMOOTH",
"182 155 OFFCURVE",
"170 149 OFFCURVE",
"170 139 CURVE SMOOTH",
"170 126 OFFCURVE",
"180 121 OFFCURVE",
"198 121 CURVE SMOOTH",
"209 121 OFFCURVE",
"228 124 OFFCURVE",
"254 130 CURVE",
"311 114 OFFCURVE",
"357 103 OFFCURVE",
"393 94 CURVE",
"379 55 OFFCURVE",
"370 23 OFFCURVE",
"366 -1 CURVE",
"331 -2 OFFCURVE",
"306 -3 OFFCURVE",
"292 -3 CURVE SMOOTH",
"289 -3 OFFCURVE",
"288 -6 OFFCURVE",
"288 -12 CURVE SMOOTH",
"288 -25 OFFCURVE",
"290 -30 OFFCURVE",
"295 -30 CURVE SMOOTH",
"314 -30 OFFCURVE",
"343 -28 OFFCURVE",
"382 -21 CURVE SMOOTH",
"420 -14 OFFCURVE",
"448 -11 OFFCURVE",
"468 -11 CURVE SMOOTH",
"471 -11 OFFCURVE",
"474 -11 OFFCURVE",
"478 -11 CURVE SMOOTH",
"483 -12 OFFCURVE",
"485 -12 OFFCURVE",
"488 -12 CURVE SMOOTH",
"492 -12 OFFCURVE",
"494 -10 OFFCURVE",
"494 -8 CURVE SMOOTH",
"494 -5 OFFCURVE",
"492 -3 OFFCURVE",
"489 -2 CURVE SMOOTH",
"479 0 OFFCURVE",
"458 1 OFFCURVE",
"426 1 CURVE SMOOTH",
"414 1 OFFCURVE",
"401 1 OFFCURVE",
"385 0 CURVE",
"389 23 OFFCURVE",
"399 52 OFFCURVE",
"417 89 CURVE",
"452 83 OFFCURVE",
"482 80 OFFCURVE",
"504 80 CURVE SMOOTH",
"529 80 OFFCURVE",
"552 85 OFFCURVE",
"572 94 CURVE SMOOTH",
"598 106 OFFCURVE",
"611 124 OFFCURVE",
"611 147 CURVE SMOOTH"
);
},
{
closed = 1;
nodes = (
"446 216 OFFCURVE",
"423 165 OFFCURVE",
"405 121 CURVE",
"356 127 OFFCURVE",
"314 135 OFFCURVE",
"281 143 CURVE",
"339 166 OFFCURVE",
"404 210 OFFCURVE",
"475 274 CURVE"
);
},
{
closed = 1;
nodes = (
"225 134 OFFCURVE",
"215 132 OFFCURVE",
"207 132 CURVE SMOOTH",
"189 132 OFFCURVE",
"180 134 OFFCURVE",
"180 138 CURVE SMOOTH",
"180 144 OFFCURVE",
"187 147 OFFCURVE",
"201 147 CURVE SMOOTH",
"212 147 OFFCURVE",
"224 144 OFFCURVE",
"238 138 CURVE"
);
}
);
width = 694;
}
);
note = onequarter;
unicode = 00BC;
},
{
glyphname = onesuperior;
lastChange = "2021-03-29 15:46:53 +0000";
layers = (
{
hints = (
{
horizontal = 1;
place = "{267, 30}";
type = Stem;
}
);
layerId = "89156F97-8AE0-4F29-8E8C-D321EE696556";
paths = (
{
closed = 1;
nodes = (
"307 631 OFFCURVE",
"302 637 OFFCURVE",
"294 637 CURVE SMOOTH",
"287 637 OFFCURVE",
"272 625 OFFCURVE",
"247 603 CURVE SMOOTH",
"191 554 OFFCURVE",
"155 523 OFFCURVE",
"140 507 CURVE SMOOTH",
"137 504 OFFCURVE",
"135 502 OFFCURVE",
"135 499 CURVE SMOOTH",
"135 497 OFFCURVE",
"137 496 OFFCURVE",
"141 496 CURVE SMOOTH",
"143 496 OFFCURVE",
"161 508 OFFCURVE",
"191 534 CURVE SMOOTH",
"210 550 OFFCURVE",
"227 561 OFFCURVE",
"241 568 CURVE",
"240 566 OFFCURVE",
"238 563 OFFCURVE",
"237 561 CURVE SMOOTH",
"200 502 LINE SMOOTH",
"162 438 OFFCURVE",
"140 406 OFFCURVE",
"139 404 CURVE SMOOTH",
"115 361 OFFCURVE",
"103 326 OFFCURVE",
"100 297 CURVE",
"55 295 OFFCURVE",
"27 295 OFFCURVE",
"14 295 CURVE SMOOTH",
"11 295 OFFCURVE",
"10 292 OFFCURVE",
"10 285 CURVE SMOOTH",
"10 273 OFFCURVE",
"12 267 OFFCURVE",
"17 267 CURVE SMOOTH",
"33 267 OFFCURVE",
"62 270 OFFCURVE",
"101 276 CURVE",
"105 269 OFFCURVE",
"112 265 OFFCURVE",
"124 265 CURVE SMOOTH",
"126 265 OFFCURVE",
"128 268 OFFCURVE",
"128 274 CURVE SMOOTH",
"128 275 OFFCURVE",
"128 277 OFFCURVE",
"127 280 CURVE",
"153 284 OFFCURVE",
"175 286 OFFCURVE",
"191 286 CURVE SMOOTH",
"193 286 OFFCURVE",
"196 286 OFFCURVE",
"200 286 CURVE SMOOTH",
"205 285 OFFCURVE",
"208 285 OFFCURVE",
"211 285 CURVE SMOOTH",
"214 285 OFFCURVE",
"216 287 OFFCURVE",
"216 291 CURVE SMOOTH",
"216 294 OFFCURVE",
"215 295 OFFCURVE",
"212 295 CURVE SMOOTH",
"200 297 OFFCURVE",
"180 298 OFFCURVE",
"148 298 CURVE SMOOTH",
"128 298 LINE",
"128 299 LINE SMOOTH",
"144 384 OFFCURVE",
"186 470 OFFCURVE",
"257 557 CURVE SMOOTH",
"276 579 OFFCURVE",
"291 594 OFFCURVE",
"300 604 CURVE SMOOTH",
"305 609 OFFCURVE",
"307 614 OFFCURVE",
"307 620 CURVE SMOOTH"
);
}
);
width = 305;
}
);
note = onesuperior;
unicode = 00B9;
},
{
glyphname = threequarters;
lastChange = "2021-03-29 15:46:53 +0000";
layers = (
{
hints = (
{
horizontal = 1;
place = "{-30, 29}";
type = Stem;
},
{
horizontal = 1;
place = "{80, 31}";
type = Stem;
},
{
horizontal = 1;
place = "{121, 11}";
type = Stem;
},
{
horizontal = 1;
place = "{463, 11}";
type = Stem;
},
{
horizontal = 1;
place = "{661, 12}";
type = Stem;
},
{
place = "{11, 21}";
type = Stem;
},
{
place = "{158, 18}";
type = Stem;
},
{
place = "{217, 10}";
type = Stem;
},
{
place = "{357, 15}";
type = Stem;
}
);
layerId = "89156F97-8AE0-4F29-8E8C-D321EE696556";
paths = (
{
closed = 1;
nodes = (
"747 691 OFFCURVE",
"743 693 OFFCURVE",
"735 693 CURVE SMOOTH",
"719 693 OFFCURVE",
"701 687 OFFCURVE",
"684 674 CURVE SMOOTH",
"632 632 OFFCURVE",
"593 597 OFFCURVE",
"564 570 CURVE SMOOTH",
"465 478 OFFCURVE",
"371 382 OFFCURVE",
"281 281 CURVE SMOOTH",
"162 146 OFFCURVE",
"86 39 OFFCURVE",
"53 -40 CURVE SMOOTH",
"45 -61 OFFCURVE",
"40 -74 OFFCURVE",
"40 -80 CURVE SMOOTH",
"40 -83 OFFCURVE",
"43 -86 OFFCURVE",
"48 -91 CURVE SMOOTH",
"52 -96 OFFCURVE",
"56 -99 OFFCURVE",
"59 -99 CURVE SMOOTH",
"60 -99 OFFCURVE",
"60 -99 OFFCURVE",
"60 -98 CURVE",
"68 -68 OFFCURVE",
"77 -44 OFFCURVE",
"86 -22 CURVE SMOOTH",
"134 82 OFFCURVE",
"231 207 OFFCURVE",
"378 355 CURVE SMOOTH",
"485 465 OFFCURVE",
"607 573 OFFCURVE",
"742 681 CURVE SMOOTH",
"745 684 OFFCURVE",
"747 686 OFFCURVE",
"747 688 CURVE SMOOTH"
);
},
{
closed = 1;
nodes = (
"372 640 OFFCURVE",
"359 654 OFFCURVE",
"333 663 CURVE SMOOTH",
"313 670 OFFCURVE",
"292 674 OFFCURVE",
"270 674 CURVE SMOOTH",
"248 674 OFFCURVE",
"226 670 OFFCURVE",
"203 663 CURVE SMOOTH",
"173 654 OFFCURVE",
"158 640 OFFCURVE",
"158 624 CURVE SMOOTH",
"158 614 OFFCURVE",
"162 608 OFFCURVE",
"168 608 CURVE SMOOTH",
"173 608 OFFCURVE",
"176 611 OFFCURVE",
"176 618 CURVE SMOOTH",
"176 633 OFFCURVE",
"188 645 OFFCURVE",
"212 653 CURVE SMOOTH",
"230 658 OFFCURVE",
"248 661 OFFCURVE",
"268 661 CURVE SMOOTH",
"286 661 OFFCURVE",
"304 659 OFFCURVE",
"320 656 CURVE SMOOTH",
"345 650 OFFCURVE",
"357 641 OFFCURVE",
"357 630 CURVE SMOOTH",
"357 614 OFFCURVE",
"342 599 OFFCURVE",
"312 584 CURVE SMOOTH",
"290 574 OFFCURVE",
"267 566 OFFCURVE",
"244 562 CURVE SMOOTH",
"227 560 OFFCURVE",
"215 558 OFFCURVE",
"206 556 CURVE SMOOTH",
"199 555 OFFCURVE",
"195 551 OFFCURVE",
"195 545 CURVE SMOOTH",
"195 541 OFFCURVE",
"198 538 OFFCURVE",
"202 538 CURVE SMOOTH",
"290 538 OFFCURVE",
"333 517 OFFCURVE",
"333 474 CURVE SMOOTH",
"333 437 OFFCURVE",
"309 408 OFFCURVE",
"257 385 CURVE SMOOTH",
"217 367 OFFCURVE",
"175 358 OFFCURVE",
"132 358 CURVE SMOOTH",
"106 358 OFFCURVE",
"85 364 OFFCURVE",
"67 373 CURVE SMOOTH",
"44 386 OFFCURVE",
"32 403 OFFCURVE",
"32 426 CURVE SMOOTH",
"32 450 OFFCURVE",
"53 463 OFFCURVE",
"95 463 CURVE SMOOTH",
"101 463 OFFCURVE",
"104 464 OFFCURVE",
"104 466 CURVE SMOOTH",
"104 471 OFFCURVE",
"95 474 OFFCURVE",
"79 474 CURVE SMOOTH",
"63 474 OFFCURVE",
"48 469 OFFCURVE",
"34 461 CURVE SMOOTH",
"19 451 OFFCURVE",
"11 439 OFFCURVE",
"11 423 CURVE SMOOTH",
"11 396 OFFCURVE",
"29 377 OFFCURVE",
"62 365 CURVE SMOOTH",
"86 356 OFFCURVE",
"113 352 OFFCURVE",
"145 352 CURVE SMOOTH",
"194 352 OFFCURVE",
"239 360 OFFCURVE",
"282 378 CURVE SMOOTH",
"337 401 OFFCURVE",
"365 433 OFFCURVE",
"365 474 CURVE SMOOTH",
"365 513 OFFCURVE",
"333 538 OFFCURVE",
"270 550 CURVE",
"338 562 OFFCURVE",
"372 587 OFFCURVE",
"372 622 CURVE SMOOTH"
);
},
{
closed = 1;
nodes = (
"657 166 OFFCURVE",
"649 182 OFFCURVE",
"631 195 CURVE SMOOTH",
"613 207 OFFCURVE",
"595 214 OFFCURVE",
"575 214 CURVE SMOOTH",
"570 214 OFFCURVE",
"568 213 OFFCURVE",
"568 211 CURVE SMOOTH",
"568 210 OFFCURVE",
"569 210 OFFCURVE",
"571 209 CURVE",
"580 208 OFFCURVE",
"588 206 OFFCURVE",
"594 204 CURVE SMOOTH",
"631 192 OFFCURVE",
"649 174 OFFCURVE",
"649 152 CURVE SMOOTH",
"649 135 OFFCURVE",
"632 123 OFFCURVE",
"597 114 CURVE SMOOTH",
"589 112 OFFCURVE",
"578 111 OFFCURVE",
"562 111 CURVE SMOOTH",
"541 111 OFFCURVE",
"512 113 OFFCURVE",
"477 118 CURVE",
"499 159 OFFCURVE",
"515 189 OFFCURVE",
"526 209 CURVE SMOOTH",
"536 225 OFFCURVE",
"542 239 OFFCURVE",
"548 250 CURVE",
"553 255 OFFCURVE",
"557 258 OFFCURVE",
"559 260 CURVE",
"561 261 OFFCURVE",
"570 281 OFFCURVE",
"587 318 CURVE SMOOTH",
"603 355 OFFCURVE",
"612 374 OFFCURVE",
"612 375 CURVE SMOOTH",
"612 379 OFFCURVE",
"607 381 OFFCURVE",
"599 381 CURVE SMOOTH",
"588 381 OFFCURVE",
"579 377 OFFCURVE",
"572 370 CURVE SMOOTH",
"554 350 OFFCURVE",
"540 334 OFFCURVE",
"530 325 CURVE SMOOTH",
"441 227 OFFCURVE",
"369 167 OFFCURVE",
"312 147 CURVE",
"288 152 OFFCURVE",
"269 155 OFFCURVE",
"255 155 CURVE SMOOTH",
"229 155 OFFCURVE",
"217 149 OFFCURVE",
"217 139 CURVE SMOOTH",
"217 126 OFFCURVE",
"226 121 OFFCURVE",
"244 121 CURVE SMOOTH",
"256 121 OFFCURVE",
"275 124 OFFCURVE",
"300 130 CURVE",
"357 114 OFFCURVE",
"404 103 OFFCURVE",
"440 94 CURVE",
"426 55 OFFCURVE",
"416 23 OFFCURVE",
"412 -1 CURVE",
"377 -2 OFFCURVE",
"352 -3 OFFCURVE",
"338 -3 CURVE SMOOTH",
"335 -3 OFFCURVE",
"334 -6 OFFCURVE",
"334 -12 CURVE SMOOTH",
"334 -25 OFFCURVE",
"336 -30 OFFCURVE",
"341 -30 CURVE SMOOTH",
"360 -30 OFFCURVE",
"389 -28 OFFCURVE",
"428 -21 CURVE SMOOTH",
"466 -14 OFFCURVE",
"495 -11 OFFCURVE",
"515 -11 CURVE SMOOTH",
"517 -11 OFFCURVE",
"520 -11 OFFCURVE",
"524 -11 CURVE SMOOTH",
"529 -12 OFFCURVE",
"532 -12 OFFCURVE",
"535 -12 CURVE SMOOTH",
"538 -12 OFFCURVE",
"540 -10 OFFCURVE",
"540 -8 CURVE SMOOTH",
"540 -5 OFFCURVE",
"539 -3 OFFCURVE",
"536 -2 CURVE SMOOTH",
"525 0 OFFCURVE",
"504 1 OFFCURVE",
"472 1 CURVE SMOOTH",
"461 1 OFFCURVE",
"447 1 OFFCURVE",
"431 0 CURVE",
"435 23 OFFCURVE",
"446 52 OFFCURVE",
"464 89 CURVE",
"499 83 OFFCURVE",
"528 80 OFFCURVE",
"550 80 CURVE SMOOTH",
"576 80 OFFCURVE",
"599 85 OFFCURVE",
"618 94 CURVE SMOOTH",
"644 106 OFFCURVE",
"657 124 OFFCURVE",
"657 147 CURVE SMOOTH"
);
},
{
closed = 1;
nodes = (
"492 216 OFFCURVE",
"468 165 OFFCURVE",
"450 121 CURVE",
"402 127 OFFCURVE",
"361 135 OFFCURVE",
"328 143 CURVE",
"386 166 OFFCURVE",
"450 210 OFFCURVE",
"522 274 CURVE"
);
},
{
closed = 1;
nodes = (
"272 134 OFFCURVE",
"261 132 OFFCURVE",
"254 132 CURVE SMOOTH",
"236 132 OFFCURVE",
"226 134 OFFCURVE",
"226 138 CURVE SMOOTH",
"226 144 OFFCURVE",
"234 147 OFFCURVE",
"248 147 CURVE SMOOTH",
"258 147 OFFCURVE",
"271 144 OFFCURVE",
"285 138 CURVE"
);
}
);
width = 713;
}
);
note = threequarters;
unicode = 00BE;
},
{
glyphname = threesuperior;
lastChange = "2021-03-29 15:46:53 +0000";
layers = (
{
hints = (
{
horizontal = 1;
place = "{463, 11}";
type = Stem;
},
{
horizontal = 1;
place = "{661, 12}";
type = Stem;
},
{
place = "{11, 21}";
type = Stem;
},
{
place = "{158, 18}";
type = Stem;
},
{
place = "{357, 15}";
type = Stem;
}
);
layerId = "89156F97-8AE0-4F29-8E8C-D321EE696556";
paths = (
{
closed = 1;
nodes = (
"372 640 OFFCURVE",
"359 654 OFFCURVE",
"333 663 CURVE SMOOTH",
"313 670 OFFCURVE",
"292 674 OFFCURVE",
"270 674 CURVE SMOOTH",
"248 674 OFFCURVE",
"226 670 OFFCURVE",
"203 663 CURVE SMOOTH",
"173 654 OFFCURVE",
"158 640 OFFCURVE",
"158 624 CURVE SMOOTH",
"158 614 OFFCURVE",
"162 608 OFFCURVE",
"168 608 CURVE SMOOTH",
"173 608 OFFCURVE",
"176 611 OFFCURVE",
"176 618 CURVE SMOOTH",
"176 633 OFFCURVE",
"188 645 OFFCURVE",
"212 653 CURVE SMOOTH",
"230 658 OFFCURVE",
"248 661 OFFCURVE",
"268 661 CURVE SMOOTH",
"286 661 OFFCURVE",
"304 659 OFFCURVE",
"320 656 CURVE SMOOTH",
"345 650 OFFCURVE",
"357 641 OFFCURVE",
"357 630 CURVE SMOOTH",
"357 614 OFFCURVE",
"342 599 OFFCURVE",
"312 584 CURVE SMOOTH",
"290 574 OFFCURVE",
"267 566 OFFCURVE",
"244 562 CURVE SMOOTH",
"227 560 OFFCURVE",
"215 558 OFFCURVE",
"206 556 CURVE SMOOTH",
"199 555 OFFCURVE",
"195 551 OFFCURVE",
"195 545 CURVE SMOOTH",
"195 541 OFFCURVE",
"198 538 OFFCURVE",
"202 538 CURVE SMOOTH",
"290 538 OFFCURVE",
"333 517 OFFCURVE",
"333 474 CURVE SMOOTH",
"333 437 OFFCURVE",
"309 408 OFFCURVE",
"257 385 CURVE SMOOTH",
"217 367 OFFCURVE",
"175 358 OFFCURVE",
"132 358 CURVE SMOOTH",
"106 358 OFFCURVE",
"85 364 OFFCURVE",
"67 373 CURVE SMOOTH",
"44 386 OFFCURVE",
"32 403 OFFCURVE",
"32 426 CURVE SMOOTH",
"32 450 OFFCURVE",
"53 463 OFFCURVE",
"95 463 CURVE SMOOTH",
"101 463 OFFCURVE",
"104 464 OFFCURVE",
"104 466 CURVE SMOOTH",
"104 471 OFFCURVE",
"95 474 OFFCURVE",
"79 474 CURVE SMOOTH",
"63 474 OFFCURVE",
"48 469 OFFCURVE",
"34 461 CURVE SMOOTH",
"19 451 OFFCURVE",
"11 439 OFFCURVE",
"11 423 CURVE SMOOTH",
"11 396 OFFCURVE",
"29 377 OFFCURVE",
"62 365 CURVE SMOOTH",
"86 356 OFFCURVE",
"113 352 OFFCURVE",
"145 352 CURVE SMOOTH",
"194 352 OFFCURVE",
"239 360 OFFCURVE",
"282 378 CURVE SMOOTH",
"337 401 OFFCURVE",
"365 433 OFFCURVE",
"365 474 CURVE SMOOTH",
"365 513 OFFCURVE",
"333 538 OFFCURVE",
"270 550 CURVE",
"338 562 OFFCURVE",
"372 587 OFFCURVE",
"372 622 CURVE SMOOTH"
);
}
);
width = 401;
}
);
note = threesuperior;
unicode = 00B3;
},
{
glyphname = twosuperior;
lastChange = "2021-03-29 15:46:53 +0000";
layers = (
{
hints = (
{
horizontal = 1;
place = "{362, 24}";
type = Stem;
},
{
horizontal = 1;
place = "{428, 14}";
type = Stem;
},
{
place = "{33, 10}";
type = Stem;
},
{
place = "{155, 10}";
type = Stem;
},
{
place = "{330, 28}";
type = Stem;
}
);
layerId = "89156F97-8AE0-4F29-8E8C-D321EE696556";
paths = (
{
closed = 1;
nodes = (
"371 427 OFFCURVE",
"364 440 OFFCURVE",
"350 452 CURVE SMOOTH",
"335 465 OFFCURVE",
"322 470 OFFCURVE",
"308 470 CURVE SMOOTH",
"305 470 OFFCURVE",
"304 469 OFFCURVE",
"304 468 CURVE",
"305 467 OFFCURVE",
"306 466 OFFCURVE",
"307 466 CURVE",
"319 463 OFFCURVE",
"332 457 OFFCURVE",
"343 448 CURVE SMOOTH",
"357 438 OFFCURVE",
"364 427 OFFCURVE",
"364 415 CURVE SMOOTH",
"364 395 OFFCURVE",
"346 386 OFFCURVE",
"310 386 CURVE SMOOTH",
"294 386 OFFCURVE",
"270 390 OFFCURVE",
"238 397 CURVE SMOOTH",
"193 409 OFFCURVE",
"159 417 OFFCURVE",
"136 423 CURVE",
"186 447 OFFCURVE",
"232 472 OFFCURVE",
"271 501 CURVE SMOOTH",
"329 542 OFFCURVE",
"357 581 OFFCURVE",
"357 617 CURVE SMOOTH",
"357 635 OFFCURVE",
"350 648 OFFCURVE",
"334 657 CURVE SMOOTH",
"322 666 OFFCURVE",
"306 670 OFFCURVE",
"287 670 CURVE SMOOTH",
"260 670 OFFCURVE",
"233 662 OFFCURVE",
"204 648 CURVE SMOOTH",
"171 631 OFFCURVE",
"155 610 OFFCURVE",
"155 586 CURVE SMOOTH",
"155 568 OFFCURVE",
"159 560 OFFCURVE",
"165 560 CURVE SMOOTH",
"166 560 OFFCURVE",
"166 561 OFFCURVE",
"166 562 CURVE SMOOTH",
"166 564 OFFCURVE",
"166 567 OFFCURVE",
"165 571 CURVE SMOOTH",
"164 574 OFFCURVE",
"164 577 OFFCURVE",
"164 579 CURVE SMOOTH",
"164 602 OFFCURVE",
"179 623 OFFCURVE",
"208 639 CURVE SMOOTH",
"234 654 OFFCURVE",
"259 661 OFFCURVE",
"285 661 CURVE SMOOTH",
"314 661 OFFCURVE",
"330 650 OFFCURVE",
"330 626 CURVE SMOOTH",
"330 594 OFFCURVE",
"306 557 OFFCURVE",
"256 518 CURVE SMOOTH",
"238 504 OFFCURVE",
"223 495 OFFCURVE",
"214 488 CURVE SMOOTH",
"178 465 OFFCURVE",
"145 446 OFFCURVE",
"118 431 CURVE",
"96 438 OFFCURVE",
"79 442 OFFCURVE",
"67 442 CURVE SMOOTH",
"45 442 OFFCURVE",
"33 434 OFFCURVE",
"33 418 CURVE SMOOTH",
"33 406 OFFCURVE",
"42 399 OFFCURVE",
"58 399 CURVE SMOOTH",
"72 399 OFFCURVE",
"93 405 OFFCURVE",
"120 416 CURVE",
"147 405 OFFCURVE",
"175 392 OFFCURVE",
"202 381 CURVE SMOOTH",
"235 368 OFFCURVE",
"264 362 OFFCURVE",
"291 362 CURVE SMOOTH",
"344 362 OFFCURVE",
"371 379 OFFCURVE",
"371 412 CURVE SMOOTH"
);
},
{
closed = 1;
nodes = (
"74 411 OFFCURVE",
"61 406 OFFCURVE",
"57 406 CURVE SMOOTH",
"48 406 OFFCURVE",
"44 409 OFFCURVE",
"44 415 CURVE SMOOTH",
"44 424 OFFCURVE",
"51 428 OFFCURVE",
"67 428 CURVE SMOOTH",
"71 428 OFFCURVE",
"82 426 OFFCURVE",
"98 422 CURVE"
);
}
);
width = 401;
}
);
note = twosuperior;
unicode = 00B2;
},
{
glyphname = brokenbar;
lastChange = "2021-03-29 15:46:53 +0000";
layers = (
{
hints = (
{
horizontal = 1;
place = "{225, 234}";
type = Stem;
},
{
place = "{89, 28}";
type = Stem;
}
);
layerId = "89156F97-8AE0-4F29-8E8C-D321EE696556";
paths = (
{
closed = 1;
nodes = (
"117 439 OFFCURVE",
"107 459 OFFCURVE",
"89 459 CURVE SMOOTH",
"82 459 OFFCURVE",
"78 456 OFFCURVE",
"78 451 CURVE SMOOTH",
"78 447 OFFCURVE",
"79 442 OFFCURVE",
"82 433 CURVE SMOOTH",
"84 425 OFFCURVE",
"85 420 OFFCURVE",
"85 417 CURVE",
"88 396 OFFCURVE",
"89 368 OFFCURVE",
"89 331 CURVE SMOOTH",
"89 319 OFFCURVE",
"88 302 OFFCURVE",
"87 280 CURVE SMOOTH",
"86 258 OFFCURVE",
"86 241 OFFCURVE",
"86 231 CURVE SMOOTH",
"86 227 OFFCURVE",
"88 225 OFFCURVE",
"94 225 CURVE SMOOTH",
"100 225 OFFCURVE",
"105 227 OFFCURVE",
"106 231 CURVE SMOOTH",
"114 243 OFFCURVE",
"117 299 OFFCURVE",
"117 398 CURVE SMOOTH"
);
},
{
closed = 1;
nodes = (
"100 186 OFFCURVE",
"97 187 OFFCURVE",
"91 187 CURVE SMOOTH",
"86 187 OFFCURVE",
"83 186 OFFCURVE",
"82 183 CURVE",
"79 165 OFFCURVE",
"78 149 OFFCURVE",
"77 135 CURVE SMOOTH",
"74 104 OFFCURVE",
"68 73 OFFCURVE",
"63 43 CURVE SMOOTH",
"55 5 OFFCURVE",
"48 -24 OFFCURVE",
"43 -44 CURVE",
"45 -45 LINE",
"50 -44 OFFCURVE",
"56 -39 OFFCURVE",
"61 -32 CURVE SMOOTH",
"64 -28 OFFCURVE",
"71 7 OFFCURVE",
"83 70 CURVE SMOOTH",
"94 134 OFFCURVE",
"100 172 OFFCURVE",
"100 183 CURVE SMOOTH"
);
}
);
width = 158;
}
);
note = brokenbar;
unicode = 00A6;
},
{
glyphname = minus;
lastChange = "2021-03-29 15:46:53 +0000";
layers = (
{
hints = (
{
horizontal = 1;
place = "{96, 36}";
type = Stem;
},
{
place = "{18, 189}";
type = Stem;
}
);
layerId = "89156F97-8AE0-4F29-8E8C-D321EE696556";
paths = (
{
closed = 1;
nodes = (
"207 119 OFFCURVE",
"199 123 OFFCURVE",
"182 124 CURVE SMOOTH",
"145 130 OFFCURVE",
"116 132 OFFCURVE",
"94 132 CURVE SMOOTH",
"76 132 OFFCURVE",
"62 130 OFFCURVE",
"51 126 CURVE SMOOTH",
"29 119 OFFCURVE",
"18 111 OFFCURVE",
"18 103 CURVE SMOOTH",
"18 98 OFFCURVE",
"25 96 OFFCURVE",
"37 96 CURVE SMOOTH",
"42 96 LINE SMOOTH",
"83 96 OFFCURVE",
"112 103 OFFCURVE",
"131 105 CURVE SMOOTH",
"154 106 OFFCURVE",
"171 106 OFFCURVE",
"182 107 CURVE SMOOTH",
"199 108 OFFCURVE",
"207 110 OFFCURVE",
"207 115 CURVE SMOOTH"
);
}
);
width = 217;
}
);
note = minus;
unicode = 2212;
},
{
glyphname = multiply;
lastChange = "2021-03-29 15:46:53 +0000";
layers = (
{
hints = (
{
horizontal = 1;
place = "{54, 22}";
type = Stem;
}
);
layerId = "89156F97-8AE0-4F29-8E8C-D321EE696556";
paths = (
{
closed = 1;
nodes = (
"236 83 LINE",
"233 83 OFFCURVE",
"230 82 OFFCURVE",
"225 79 CURVE SMOOTH",
"220 77 OFFCURVE",
"217 76 OFFCURVE",
"214 76 CURVE SMOOTH",
"200 76 OFFCURVE",
"185 86 OFFCURVE",
"169 104 CURVE SMOOTH",
"155 120 OFFCURVE",
"146 136 OFFCURVE",
"142 151 CURVE",
"192 201 OFFCURVE",
"219 230 OFFCURVE",
"219 236 CURVE",
"218 238 LINE",
"211 238 OFFCURVE",
"197 227 OFFCURVE",
"176 206 CURVE SMOOTH",
"162 193 OFFCURVE",
"150 178 OFFCURVE",
"137 163 CURVE",
"128 193 OFFCURVE",
"120 215 OFFCURVE",
"113 227 CURVE SMOOTH",
"111 231 OFFCURVE",
"108 233 OFFCURVE",
"105 233 CURVE SMOOTH",
"94 233 OFFCURVE",
"89 230 OFFCURVE",
"89 224 CURVE SMOOTH",
"89 214 OFFCURVE",
"100 188 OFFCURVE",
"121 148 CURVE",
"68 94 OFFCURVE",
"43 62 OFFCURVE",
"43 50 CURVE SMOOTH",
"43 46 OFFCURVE",
"46 44 OFFCURVE",
"50 44 CURVE SMOOTH",
"53 44 OFFCURVE",
"56 46 OFFCURVE",
"59 48 CURVE SMOOTH",
"89 86 OFFCURVE",
"111 115 OFFCURVE",
"125 135 CURVE",
"131 117 OFFCURVE",
"141 101 OFFCURVE",
"153 85 CURVE SMOOTH",
"169 65 OFFCURVE",
"184 54 OFFCURVE",
"200 54 CURVE SMOOTH",
"206 54 OFFCURVE",
"215 57 OFFCURVE",
"224 63 CURVE SMOOTH",
"234 68 OFFCURVE",
"238 74 OFFCURVE",
"238 80 CURVE"
);
}
);
width = 264;
}
);
note = multiply;
unicode = 00D7;
},
{
glyphname = lslash;
lastChange = "2021-03-29 15:46:53 +0000";
layers = (
{
hints = (
{
horizontal = 1;
place = "{0, 16}";
type = Stem;
},
{
place = "{34, 25}";
type = Stem;
}
);
layerId = "89156F97-8AE0-4F29-8E8C-D321EE696556";
paths = (
{
closed = 1;
nodes = (
"324 651 OFFCURVE",
"318 654 OFFCURVE",
"307 654 CURVE SMOOTH",
"287 654 OFFCURVE",
"274 649 OFFCURVE",
"268 637 CURVE SMOOTH",
"246 598 OFFCURVE",
"231 567 OFFCURVE",
"220 546 CURVE SMOOTH",
"189 482 OFFCURVE",
"159 418 OFFCURVE",
"132 354 CURVE SMOOTH",
"117 318 OFFCURVE",
"105 291 OFFCURVE",
"99 273 CURVE SMOOTH",
"97 269 OFFCURVE",
"87 257 OFFCURVE",
"71 236 CURVE SMOOTH",
"55 215 OFFCURVE",
"47 203 OFFCURVE",
"47 202 CURVE SMOOTH",
"47 200 OFFCURVE",
"48 200 OFFCURVE",
"49 200 CURVE SMOOTH",
"55 200 OFFCURVE",
"67 210 OFFCURVE",
"83 232 CURVE",
"50 144 OFFCURVE",
"34 84 OFFCURVE",
"34 48 CURVE SMOOTH",
"34 16 OFFCURVE",
"50 0 OFFCURVE",
"82 0 CURVE SMOOTH",
"111 0 OFFCURVE",
"140 20 OFFCURVE",
"167 59 CURVE SMOOTH",
"169 62 OFFCURVE",
"171 65 OFFCURVE",
"171 67 CURVE SMOOTH",
"171 69 OFFCURVE",
"170 70 OFFCURVE",
"167 70 CURVE SMOOTH",
"168 70 OFFCURVE",
"158 61 OFFCURVE",
"136 43 CURVE SMOOTH",
"114 25 OFFCURVE",
"95 16 OFFCURVE",
"80 16 CURVE SMOOTH",
"66 16 OFFCURVE",
"59 27 OFFCURVE",
"59 48 CURVE SMOOTH",
"59 100 OFFCURVE",
"104 214 OFFCURVE",
"193 388 CURVE SMOOTH",
"219 440 OFFCURVE",
"234 466 OFFCURVE",
"234 466 CURVE",
"240 473 OFFCURVE",
"246 478 OFFCURVE",
"251 481 CURVE",
"260 501 OFFCURVE",
"267 516 OFFCURVE",
"272 526 CURVE SMOOTH",
"295 577 OFFCURVE",
"312 615 OFFCURVE",
"323 640 CURVE SMOOTH",
"324 642 OFFCURVE",
"324 644 OFFCURVE",
"324 645 CURVE SMOOTH"
);
},
{
closed = 1;
nodes = (
"418 403 OFFCURVE",
"415 405 OFFCURVE",
"410 405 CURVE SMOOTH",
"399 405 OFFCURVE",
"374 402 OFFCURVE",
"337 395 CURVE SMOOTH",
"291 388 OFFCURVE",
"241 374 OFFCURVE",
"190 355 CURVE SMOOTH",
"162 345 OFFCURVE",
"117 325 OFFCURVE",
"51 296 CURVE SMOOTH",
"12 279 OFFCURVE",
"-17 268 OFFCURVE",
"-37 259 CURVE SMOOTH",
"-40 258 OFFCURVE",
"-41 256 OFFCURVE",
"-41 250 CURVE SMOOTH",
"-41 235 OFFCURVE",
"-37 227 OFFCURVE",
"-29 227 CURVE SMOOTH",
"-27 227 OFFCURVE",
"-6 235 OFFCURVE",
"33 252 CURVE SMOOTH",
"87 275 OFFCURVE",
"142 299 OFFCURVE",
"197 323 CURVE SMOOTH",
"260 351 OFFCURVE",
"317 370 OFFCURVE",
"366 381 CURVE SMOOTH",
"386 386 OFFCURVE",
"401 389 OFFCURVE",
"411 390 CURVE SMOOTH",
"416 391 OFFCURVE",
"418 394 OFFCURVE",
"418 398 CURVE SMOOTH"
);
}
);
width = 155;
}
);
note = lslash;
unicode = 0142;
},
{
glyphname = exclam;
lastChange = "2021-03-29 15:46:53 +0000";
layers = (
{
hints = (
{
horizontal = 1;
place = "{-14, 21}";
target = up;
type = BottomGhost;
},
{
place = "{40, 260}";
type = Stem;
}
);
layerId = "89156F97-8AE0-4F29-8E8C-D321EE696556";
paths = (
{
closed = 1;
nodes = (
"300 602 OFFCURVE",
"295 607 OFFCURVE",
"282 607 CURVE SMOOTH",
"270 607 OFFCURVE",
"259 600 OFFCURVE",
"251 589 CURVE SMOOTH",
"228 559 OFFCURVE",
"197 487 OFFCURVE",
"158 375 CURVE SMOOTH",
"119 263 OFFCURVE",
"99 189 OFFCURVE",
"99 153 CURVE SMOOTH",
"99 148 OFFCURVE",
"102 145 OFFCURVE",
"106 145 CURVE SMOOTH",
"110 145 OFFCURVE",
"112 147 OFFCURVE",
"113 152 CURVE SMOOTH",
"115 164 OFFCURVE",
"117 174 OFFCURVE",
"118 181 CURVE SMOOTH",
"130 232 OFFCURVE",
"155 299 OFFCURVE",
"194 383 CURVE SMOOTH",
"228 458 OFFCURVE",
"261 523 OFFCURVE",
"295 578 CURVE SMOOTH",
"298 583 OFFCURVE",
"300 588 OFFCURVE",
"300 593 CURVE SMOOTH"
);
},
{
closed = 1;
nodes = (
"115 67 LINE",
"115 67 LINE",
"114 68 OFFCURVE",
"113 68 OFFCURVE",
"112 68 CURVE SMOOTH",
"100 68 OFFCURVE",
"86 63 OFFCURVE",
"68 51 CURVE SMOOTH",
"49 39 OFFCURVE",
"40 28 OFFCURVE",
"40 16 CURVE SMOOTH",
"40 11 OFFCURVE",
"42 5 OFFCURVE",
"47 -3 CURVE SMOOTH",
"50 -10 OFFCURVE",
"55 -14 OFFCURVE",
"60 -14 CURVE SMOOTH",
"67 -14 OFFCURVE",
"73 -10 OFFCURVE",
"81 -2 CURVE SMOOTH",
"88 6 OFFCURVE",
"93 12 OFFCURVE",
"95 19 CURVE SMOOTH",
"96 22 OFFCURVE",
"100 29 OFFCURVE",
"106 43 CURVE SMOOTH",
"112 54 OFFCURVE",
"115 62 OFFCURVE",
"115 66 CURVE SMOOTH"
);
}
);
width = 208;
}
);
note = exclam;
unicode = 0021;
},
{
glyphname = quotedbl;
lastChange = "2021-03-29 15:46:53 +0000";
layers = (
{
hints = (
{
horizontal = 1;
place = "{285, 193}";
type = Stem;
},
{
place = "{81, 53}";
type = Stem;
},
{
place = "{178, 53}";
type = Stem;
}
);
layerId = "89156F97-8AE0-4F29-8E8C-D321EE696556";
paths = (
{
closed = 1;
nodes = (
"138 471 OFFCURVE",
"132 478 OFFCURVE",
"118 478 CURVE SMOOTH",
"117 478 OFFCURVE",
"114 478 OFFCURVE",
"111 478 CURVE SMOOTH",
"105 477 OFFCURVE",
"97 473 OFFCURVE",
"87 465 CURVE SMOOTH",
"78 457 OFFCURVE",
"73 450 OFFCURVE",
"71 444 CURVE SMOOTH",
"70 442 OFFCURVE",
"70 440 OFFCURVE",
"71 439 CURVE SMOOTH",
"84 422 OFFCURVE",
"84 388 OFFCURVE",
"72 337 CURVE SMOOTH",
"65 303 OFFCURVE",
"61 286 OFFCURVE",
"63 285 CURVE",
"63 285 OFFCURVE",
"63 285 OFFCURVE",
"64 285 CURVE SMOOTH",
"66 285 OFFCURVE",
"71 295 OFFCURVE",
"80 315 CURVE SMOOTH",
"99 364 OFFCURVE",
"113 401 OFFCURVE",
"122 425 CURVE SMOOTH",
"129 448 OFFCURVE",
"134 460 OFFCURVE",
"134 458 CURVE"
);
},
{
closed = 1;
nodes = (
"235 471 OFFCURVE",
"229 478 OFFCURVE",
"215 478 CURVE SMOOTH",
"214 478 OFFCURVE",
"211 478 OFFCURVE",
"208 478 CURVE SMOOTH",
"201 477 OFFCURVE",
"194 473 OFFCURVE",
"184 465 CURVE SMOOTH",
"175 457 OFFCURVE",
"170 450 OFFCURVE",
"168 444 CURVE SMOOTH",
"167 442 OFFCURVE",
"167 440 OFFCURVE",
"168 439 CURVE SMOOTH",
"181 422 OFFCURVE",
"181 388 OFFCURVE",
"169 337 CURVE SMOOTH",
"162 303 OFFCURVE",
"158 286 OFFCURVE",
"160 285 CURVE",
"160 285 OFFCURVE",
"160 285 OFFCURVE",
"161 285 CURVE SMOOTH",
"162 285 OFFCURVE",
"168 295 OFFCURVE",
"177 315 CURVE SMOOTH",
"196 364 OFFCURVE",
"210 401 OFFCURVE",
"219 425 CURVE SMOOTH",
"226 448 OFFCURVE",
"231 460 OFFCURVE",
"231 458 CURVE"
);
}
);
width = 250;
}
);
note = quotedbl;
unicode = 0022;
},
{
glyphname = numbersign;
lastChange = "2021-03-29 15:46:53 +0000";
layers = (
{
hints = (
{
horizontal = 1;
place = "{169, 26}";
type = Stem;
},
{
horizontal = 1;
place = "{355, 21}";
type = Stem;
}
);
layerId = "89156F97-8AE0-4F29-8E8C-D321EE696556";
paths = (
{
closed = 1;
nodes = (
"422 363 OFFCURVE",
"420 365 OFFCURVE",
"416 366 CURVE SMOOTH",
"375 371 OFFCURVE",
"345 373 OFFCURVE",
"324 374 CURVE",
"348 442 OFFCURVE",
"359 488 OFFCURVE",
"359 514 CURVE SMOOTH",
"359 528 OFFCURVE",
"357 535 OFFCURVE",
"353 535 CURVE SMOOTH",
"351 535 OFFCURVE",
"348 529 OFFCURVE",
"347 517 CURVE SMOOTH",
"344 497 OFFCURVE",
"338 472 OFFCURVE",
"329 445 CURVE SMOOTH",
"325 433 OFFCURVE",
"315 410 OFFCURVE",
"301 375 CURVE",
"276 376 OFFCURVE",
"253 376 OFFCURVE",
"232 376 CURVE SMOOTH",
"205 376 LINE",
"228 438 OFFCURVE",
"239 481 OFFCURVE",
"239 503 CURVE SMOOTH",
"239 513 OFFCURVE",
"238 518 OFFCURVE",
"235 518 CURVE SMOOTH",
"231 518 OFFCURVE",
"228 512 OFFCURVE",
"227 500 CURVE SMOOTH",
"224 470 OFFCURVE",
"210 428 OFFCURVE",
"186 375 CURVE",
"123 374 OFFCURVE",
"81 372 OFFCURVE",
"62 370 CURVE SMOOTH",
"61 370 OFFCURVE",
"60 370 OFFCURVE",
"59 369 CURVE",
"60 365 OFFCURVE",
"65 360 OFFCURVE",
"75 354 CURVE SMOOTH",
"85 349 OFFCURVE",
"91 346 OFFCURVE",
"95 346 CURVE SMOOTH",
"86 346 OFFCURVE",
"113 348 OFFCURVE",
"175 351 CURVE",
"162 324 OFFCURVE",
"145 290 OFFCURVE",
"124 248 CURVE SMOOTH",
"114 229 OFFCURVE",
"106 215 OFFCURVE",
"102 205 CURVE",
"97 200 OFFCURVE",
"92 197 OFFCURVE",
"89 195 CURVE",
"41 193 OFFCURVE",
"11 191 OFFCURVE",
"1 190 CURVE SMOOTH",
"0 190 OFFCURVE",
"-1 190 OFFCURVE",
"-1 189 CURVE SMOOTH",
"-1 185 OFFCURVE",
"4 181 OFFCURVE",
"14 175 CURVE SMOOTH",
"24 169 OFFCURVE",
"30 166 OFFCURVE",
"34 166 CURVE SMOOTH",
"32 166 OFFCURVE",
"47 167 OFFCURVE",
"77 169 CURVE",
"50 109 OFFCURVE",
"37 79 OFFCURVE",
"37 77 CURVE SMOOTH",
"37 72 OFFCURVE",
"41 70 OFFCURVE",
"49 70 CURVE SMOOTH",
"63 70 OFFCURVE",
"72 74 OFFCURVE",
"77 82 CURVE SMOOTH",
"96 119 OFFCURVE",
"110 148 OFFCURVE",
"120 171 CURVE",
"150 172 OFFCURVE",
"181 174 OFFCURVE",
"211 175 CURVE",
"189 132 OFFCURVE",
"170 92 OFFCURVE",
"152 56 CURVE",
"152 51 OFFCURVE",
"156 49 OFFCURVE",
"164 49 CURVE SMOOTH",
"178 49 OFFCURVE",
"187 53 OFFCURVE",
"192 62 CURVE SMOOTH",
"200 76 OFFCURVE",
"204 86 OFFCURVE",
"208 94 CURVE SMOOTH",
"219 118 OFFCURVE",
"232 144 OFFCURVE",
"245 176 CURVE",
"286 177 OFFCURVE",
"321 178 OFFCURVE",
"350 178 CURVE SMOOTH",
"357 178 OFFCURVE",
"361 180 OFFCURVE",
"361 182 CURVE SMOOTH",
"361 183 OFFCURVE",
"359 184 OFFCURVE",
"355 185 CURVE SMOOTH",
"311 191 OFFCURVE",
"276 194 OFFCURVE",
"253 195 CURVE",
"278 254 OFFCURVE",
"299 307 OFFCURVE",
"317 355 CURVE",
"354 356 OFFCURVE",
"385 357 OFFCURVE",
"410 357 CURVE SMOOTH",
"418 357 OFFCURVE",
"422 359 OFFCURVE",
"422 362 CURVE SMOOTH"
);
},
{
closed = 1;
nodes = (
"273 307 OFFCURVE",
"249 254 OFFCURVE",
"221 196 CURVE",
"192 197 OFFCURVE",
"162 197 OFFCURVE",
"131 196 CURVE",
"157 253 OFFCURVE",
"179 305 OFFCURVE",
"197 352 CURVE",
"229 352 OFFCURVE",
"261 354 OFFCURVE",
"293 355 CURVE"
);
}
);
width = 427;
}
);
note = numbersign;
unicode = 0023;
},
{
glyphname = dollar;
lastChange = "2021-03-29 15:46:53 +0000";
layers = (
{
hints = (
{
place = "{-27, 22}";
type = Stem;
},
{
place = "{37, 28}";
type = Stem;
},
{
place = "{107, 39}";
type = Stem;
},
{
place = "{223, 43}";
type = Stem;
},
{
place = "{279, 20}";
type = Stem;
}
);
layerId = "89156F97-8AE0-4F29-8E8C-D321EE696556";
paths = (
{
closed = 1;
nodes = (
"321 654 OFFCURVE",
"320 655 OFFCURVE",
"317 655 CURVE SMOOTH",
"299 655 OFFCURVE",
"271 622 OFFCURVE",
"234 559 CURVE",
"205 561 OFFCURVE",
"179 556 OFFCURVE",
"153 543 CURVE SMOOTH",
"123 529 OFFCURVE",
"107 508 OFFCURVE",
"107 482 CURVE SMOOTH",
"107 458 OFFCURVE",
"124 435 OFFCURVE",
"155 413 CURVE",
"120 342 OFFCURVE",
"92 277 OFFCURVE",
"71 218 CURVE",
"49 222 OFFCURVE",
"31 233 OFFCURVE",
"17 250 CURVE SMOOTH",
"3 266 OFFCURVE",
"-5 286 OFFCURVE",
"-5 308 CURVE SMOOTH",
"-5 333 OFFCURVE",
"5 353 OFFCURVE",
"24 368 CURVE SMOOTH",
"41 381 OFFCURVE",
"63 388 OFFCURVE",
"89 388 CURVE SMOOTH",
"99 388 OFFCURVE",
"104 388 OFFCURVE",
"105 389 CURVE",
"104 391 OFFCURVE",
"96 392 OFFCURVE",
"81 392 CURVE SMOOTH",
"51 392 OFFCURVE",
"28 383 OFFCURVE",
"7 365 CURVE SMOOTH",
"-15 346 OFFCURVE",
"-27 323 OFFCURVE",
"-27 295 CURVE SMOOTH",
"-27 246 OFFCURVE",
"6 219 OFFCURVE",
"69 210 CURVE",
"48 148 OFFCURVE",
"37 102 OFFCURVE",
"37 70 CURVE SMOOTH",
"37 67 OFFCURVE",
"44 65 OFFCURVE",
"57 65 CURVE SMOOTH",
"62 65 OFFCURVE",
"65 66 OFFCURVE",
"65 67 CURVE SMOOTH",
"67 86 OFFCURVE",
"67 101 OFFCURVE",
"68 112 CURVE SMOOTH",
"73 142 OFFCURVE",
"81 173 OFFCURVE",
"91 208 CURVE",
"132 207 OFFCURVE",
"170 216 OFFCURVE",
"204 234 CURVE SMOOTH",
"245 256 OFFCURVE",
"266 286 OFFCURVE",
"266 324 CURVE SMOOTH",
"266 350 OFFCURVE",
"257 371 OFFCURVE",
"241 387 CURVE SMOOTH",
"235 393 OFFCURVE",
"217 407 OFFCURVE",
"185 427 CURVE",
"207 467 OFFCURVE",
"230 507 OFFCURVE",
"255 548 CURVE",
"271 542 OFFCURVE",
"279 534 OFFCURVE",
"279 522 CURVE SMOOTH",
"279 504 OFFCURVE",
"268 494 OFFCURVE",
"244 494 CURVE SMOOTH",
"238 494 OFFCURVE",
"235 493 OFFCURVE",
"235 491 CURVE SMOOTH",
"235 490 OFFCURVE",
"238 489 OFFCURVE",
"244 489 CURVE SMOOTH",
"281 489 OFFCURVE",
"299 499 OFFCURVE",
"299 519 CURVE SMOOTH",
"299 535 OFFCURVE",
"286 547 OFFCURVE",
"258 555 CURVE",
"281 590 OFFCURVE",
"302 622 OFFCURVE",
"321 652 CURVE"
);
},
{
closed = 1;
nodes = (
"230 553 LINE",
"210 518 OFFCURVE",
"189 481 OFFCURVE",
"168 440 CURVE",
"154 453 OFFCURVE",
"146 468 OFFCURVE",
"146 486 CURVE SMOOTH",
"146 532 OFFCURVE",
"171 553 OFFCURVE",
"221 553 CURVE SMOOTH"
);
},
{
closed = 1;
nodes = (
"223 276 OFFCURVE",
"203 245 OFFCURVE",
"163 229 CURVE SMOOTH",
"140 219 OFFCURVE",
"117 215 OFFCURVE",
"97 215 CURVE SMOOTH",
"93 215 LINE",
"111 271 OFFCURVE",
"138 333 OFFCURVE",
"172 402 CURVE",
"206 378 OFFCURVE",
"223 352 OFFCURVE",
"223 322 CURVE SMOOTH"
);
}
);
width = 266;
}
);
note = dollar;
unicode = 0024;
},
{
glyphname = percent;
lastChange = "2021-03-29 15:46:53 +0000";
layers = (
{
hints = (
{
horizontal = 1;
place = "{-44, 29}";
type = Stem;
},
{
horizontal = 1;
place = "{313, 18}";
type = Stem;
},
{
horizontal = 1;
place = "{359, 14}";
type = Stem;
},
{
horizontal = 1;
place = "{708, 17}";
type = Stem;
},
{
place = "{127, 20}";
type = Stem;
},
{
place = "{359, 20}";
type = Stem;
},
{
place = "{385, 26}";
type = Stem;
},
{
place = "{663, 33}";
type = Stem;
}
);
layerId = "89156F97-8AE0-4F29-8E8C-D321EE696556";
paths = (
{
closed = 1;
nodes = (
"696 674 OFFCURVE",
"691 678 OFFCURVE",
"678 678 CURVE SMOOTH",
"676 678 OFFCURVE",
"675 678 OFFCURVE",
"673 678 CURVE",
"666 694 OFFCURVE",
"645 706 OFFCURVE",
"610 714 CURVE SMOOTH",
"582 721 OFFCURVE",
"556 725 OFFCURVE",
"532 725 CURVE SMOOTH",
"501 725 OFFCURVE",
"464 722 OFFCURVE",
"421 716 CURVE SMOOTH",
"384 712 OFFCURVE",
"348 706 OFFCURVE",
"311 700 CURVE SMOOTH",
"313 700 OFFCURVE",
"303 700 OFFCURVE",
"281 700 CURVE SMOOTH",
"278 700 OFFCURVE",
"276 700 OFFCURVE",
"275 700 CURVE",
"304 690 OFFCURVE",
"318 664 OFFCURVE",
"318 625 CURVE SMOOTH",
"318 590 OFFCURVE",
"307 549 OFFCURVE",
"285 503 CURVE SMOOTH",
"263 457 OFFCURVE",
"238 422 OFFCURVE",
"210 396 CURVE SMOOTH",
"193 381 OFFCURVE",
"179 373 OFFCURVE",
"167 373 CURVE SMOOTH",
"154 373 OFFCURVE",
"147 382 OFFCURVE",
"147 400 CURVE SMOOTH",
"147 427 OFFCURVE",
"166 474 OFFCURVE",
"203 542 CURVE SMOOTH",
"240 609 OFFCURVE",
"259 644 OFFCURVE",
"259 646 CURVE SMOOTH",
"259 655 OFFCURVE",
"253 659 OFFCURVE",
"239 659 CURVE SMOOTH",
"229 659 OFFCURVE",
"215 640 OFFCURVE",
"194 604 CURVE SMOOTH",
"181 580 OFFCURVE",
"168 558 OFFCURVE",
"160 536 CURVE SMOOTH",
"138 485 OFFCURVE",
"127 443 OFFCURVE",
"127 411 CURVE SMOOTH",
"127 376 OFFCURVE",
"141 359 OFFCURVE",
"166 359 CURVE SMOOTH",
"197 359 OFFCURVE",
"231 384 OFFCURVE",
"270 433 CURVE SMOOTH",
"299 471 OFFCURVE",
"323 509 OFFCURVE",
"339 548 CURVE SMOOTH",
"353 581 OFFCURVE",
"360 611 OFFCURVE",
"360 635 CURVE SMOOTH",
"360 658 OFFCURVE",
"352 675 OFFCURVE",
"337 685 CURVE",
"447 700 OFFCURVE",
"514 708 OFFCURVE",
"542 708 CURVE SMOOTH",
"613 708 OFFCURVE",
"653 697 OFFCURVE",
"663 675 CURVE",
"653 673 OFFCURVE",
"643 668 OFFCURVE",
"636 661 CURVE SMOOTH",
"571 607 OFFCURVE",
"523 564 OFFCURVE",
"492 535 CURVE SMOOTH",
"387 435 OFFCURVE",
"290 336 OFFCURVE",
"204 237 CURVE SMOOTH",
"131 151 OFFCURVE",
"77 78 OFFCURVE",
"40 16 CURVE SMOOTH",
"8 -38 OFFCURVE",
"-9 -75 OFFCURVE",
"-9 -96 CURVE SMOOTH",
"-9 -102 OFFCURVE",
"-7 -107 OFFCURVE",
"-2 -113 CURVE SMOOTH",
"2 -118 OFFCURVE",
"7 -121 OFFCURVE",
"12 -121 CURVE SMOOTH",
"17 -121 OFFCURVE",
"19 -118 OFFCURVE",
"21 -112 CURVE SMOOTH",
"29 -80 OFFCURVE",
"38 -55 OFFCURVE",
"47 -37 CURVE SMOOTH",
"113 105 OFFCURVE",
"280 296 OFFCURVE",
"551 533 CURVE SMOOTH",
"613 587 OFFCURVE",
"661 627 OFFCURVE",
"693 654 CURVE SMOOTH",
"695 656 OFFCURVE",
"696 660 OFFCURVE",
"696 663 CURVE SMOOTH"
);
},
{
closed = 1;
nodes = (
"591 228 OFFCURVE",
"578 232 OFFCURVE",
"550 232 CURVE",
"543 297 OFFCURVE",
"520 331 OFFCURVE",
"477 331 CURVE SMOOTH",
"449 331 OFFCURVE",
"427 316 OFFCURVE",
"409 288 CURVE SMOOTH",
"393 263 OFFCURVE",
"385 237 OFFCURVE",
"385 207 CURVE SMOOTH",
"385 180 OFFCURVE",
"391 152 OFFCURVE",
"404 124 CURVE",
"374 83 OFFCURVE",
"359 43 OFFCURVE",
"359 5 CURVE SMOOTH",
"359 -28 OFFCURVE",
"371 -44 OFFCURVE",
"396 -44 CURVE SMOOTH",
"413 -44 OFFCURVE",
"434 -33 OFFCURVE",
"459 -11 CURVE SMOOTH",
"484 10 OFFCURVE",
"495 20 OFFCURVE",
"493 20 CURVE SMOOTH",
"494 20 OFFCURVE",
"496 20 OFFCURVE",
"498 19 CURVE SMOOTH",
"500 18 OFFCURVE",
"502 18 OFFCURVE",
"503 18 CURVE SMOOTH",
"510 18 OFFCURVE",
"518 20 OFFCURVE",
"525 25 CURVE",
"506 25 OFFCURVE",
"496 25 OFFCURVE",
"495 25 CURVE",
"533 78 OFFCURVE",
"552 131 OFFCURVE",
"552 185 CURVE SMOOTH",
"552 191 OFFCURVE",
"552 197 OFFCURVE",
"551 203 CURVE",
"558 203 OFFCURVE",
"565 205 OFFCURVE",
"574 208 CURVE SMOOTH",
"585 213 OFFCURVE",
"591 217 OFFCURVE",
"591 221 CURVE SMOOTH"
);
},
{
closed = 1;
nodes = (
"494 219 OFFCURVE",
"453 186 OFFCURVE",
"414 134 CURVE",
"411 143 OFFCURVE",
"410 155 OFFCURVE",
"410 168 CURVE SMOOTH",
"410 198 OFFCURVE",
"416 226 OFFCURVE",
"428 253 CURVE SMOOTH",
"445 293 OFFCURVE",
"463 313 OFFCURVE",
"484 313 CURVE SMOOTH",
"505 313 OFFCURVE",
"523 285 OFFCURVE",
"535 231 CURVE"
);
},
{
closed = 1;
nodes = (
"536 182 OFFCURVE",
"527 152 OFFCURVE",
"511 111 CURVE SMOOTH",
"495 70 OFFCURVE",
"480 44 OFFCURVE",
"466 30 CURVE",
"447 35 OFFCURVE",
"430 61 OFFCURVE",
"416 109 CURVE",
"423 122 OFFCURVE",
"441 141 OFFCURVE",
"471 164 CURVE SMOOTH",
"501 188 OFFCURVE",
"523 201 OFFCURVE",
"537 204 CURVE"
);
},
{
closed = 1;
nodes = (
"438 -1 OFFCURVE",
"417 -14 OFFCURVE",
"399 -14 CURVE SMOOTH",
"386 -14 OFFCURVE",
"379 -3 OFFCURVE",
"379 19 CURVE SMOOTH",
"379 38 OFFCURVE",
"390 66 OFFCURVE",
"409 101 CURVE",
"424 53 OFFCURVE",
"441 28 OFFCURVE",
"462 25 CURVE"
);
}
);
width = 598;
}
);
note = percent;
unicode = 0025;
},
{
glyphname = ampersand;
lastChange = "2021-03-29 15:46:53 +0000";
layers = (
{
hints = (
{
horizontal = 1;
place = "{-230, 13}";
type = Stem;
},
{
horizontal = 1;
place = "{0, 20}";
type = Stem;
},
{
horizontal = 1;
place = "{207, -20}";
target = down;
type = TopGhost;
},
{
horizontal = 1;
place = "{333, 34}";
type = Stem;
},
{
horizontal = 1;
place = "{589, 26}";
type = Stem;
},
{
place = "{49, 29}";
type = Stem;
},
{
place = "{584, 18}";
type = Stem;
},
{
place = "{650, 36}";
type = Stem;
}
);
layerId = "89156F97-8AE0-4F29-8E8C-D321EE696556";
paths = (
{
closed = 1;
nodes = (
"686 348 OFFCURVE",
"659 368 OFFCURVE",
"607 368 CURVE SMOOTH",
"556 368 OFFCURVE",
"503 350 OFFCURVE",
"448 313 CURVE",
"466 392 OFFCURVE",
"479 446 OFFCURVE",
"489 471 CURVE",
"523 491 OFFCURVE",
"546 506 OFFCURVE",
"561 518 CURVE SMOOTH",
"588 542 OFFCURVE",
"602 564 OFFCURVE",
"602 586 CURVE SMOOTH",
"602 605 OFFCURVE",
"594 615 OFFCURVE",
"578 615 CURVE SMOOTH",
"563 615 OFFCURVE",
"546 604 OFFCURVE",
"527 585 CURVE SMOOTH",
"515 573 OFFCURVE",
"503 555 OFFCURVE",
"491 530 CURVE SMOOTH",
"485 518 OFFCURVE",
"477 497 OFFCURVE",
"466 467 CURVE",
"405 435 OFFCURVE",
"343 403 OFFCURVE",
"281 370 CURVE SMOOTH",
"212 333 OFFCURVE",
"155 293 OFFCURVE",
"108 250 CURVE",
"88 272 OFFCURVE",
"78 296 OFFCURVE",
"78 326 CURVE SMOOTH",
"78 372 OFFCURVE",
"103 412 OFFCURVE",
"152 446 CURVE SMOOTH",
"196 475 OFFCURVE",
"242 490 OFFCURVE",
"292 490 CURVE SMOOTH",
"298 490 OFFCURVE",
"309 488 OFFCURVE",
"322 485 CURVE SMOOTH",
"334 483 OFFCURVE",
"344 482 OFFCURVE",
"351 482 CURVE SMOOTH",
"352 482 OFFCURVE",
"352 483 OFFCURVE",
"353 485 CURVE",
"353 488 OFFCURVE",
"344 492 OFFCURVE",
"324 495 CURVE SMOOTH",
"309 497 OFFCURVE",
"296 498 OFFCURVE",
"288 498 CURVE SMOOTH",
"234 498 OFFCURVE",
"182 482 OFFCURVE",
"133 450 CURVE SMOOTH",
"77 415 OFFCURVE",
"49 371 OFFCURVE",
"49 321 CURVE SMOOTH",
"49 287 OFFCURVE",
"63 257 OFFCURVE",
"89 233 CURVE",
"39 182 OFFCURVE",
"14 139 OFFCURVE",
"14 101 CURVE SMOOTH",
"14 64 OFFCURVE",
"37 36 OFFCURVE",
"84 19 CURVE SMOOTH",
"117 7 OFFCURVE",
"156 0 OFFCURVE",
"200 0 CURVE SMOOTH",
"245 0 OFFCURVE",
"292 6 OFFCURVE",
"340 18 CURVE",
"282 -139 OFFCURVE",
"217 -217 OFFCURVE",
"144 -217 CURVE SMOOTH",
"107 -217 OFFCURVE",
"86 -200 OFFCURVE",
"81 -168 CURVE",
"80 -165 OFFCURVE",
"79 -164 OFFCURVE",
"77 -164 CURVE SMOOTH",
"74 -164 OFFCURVE",
"73 -165 OFFCURVE",
"73 -168 CURVE SMOOTH",
"73 -188 OFFCURVE",
"83 -204 OFFCURVE",
"101 -216 CURVE SMOOTH",
"116 -225 OFFCURVE",
"134 -230 OFFCURVE",
"156 -230 CURVE SMOOTH",
"256 -230 OFFCURVE",
"333 -142 OFFCURVE",
"388 34 CURVE",
"481 64 OFFCURVE",
"558 112 OFFCURVE",
"618 181 CURVE SMOOTH",
"663 233 OFFCURVE",
"686 276 OFFCURVE",
"686 309 CURVE SMOOTH"
);
},
{
closed = 1;
nodes = (
"584 568 OFFCURVE",
"572 550 OFFCURVE",
"547 526 CURVE SMOOTH",
"527 506 OFFCURVE",
"509 492 OFFCURVE",
"495 484 CURVE",
"515 528 OFFCURVE",
"532 558 OFFCURVE",
"548 572 CURVE SMOOTH",
"561 583 OFFCURVE",
"570 589 OFFCURVE",
"577 589 CURVE SMOOTH",
"581 589 OFFCURVE",
"584 585 OFFCURVE",
"584 579 CURVE SMOOTH"
);
},
{
closed = 1;
nodes = (
"650 254 OFFCURVE",
"630 217 OFFCURVE",
"591 172 CURVE SMOOTH",
"542 116 OFFCURVE",
"475 74 OFFCURVE",
"390 48 CURVE",
"417 160 OFFCURVE",
"435 244 OFFCURVE",
"446 301 CURVE",
"487 323 OFFCURVE",
"529 333 OFFCURVE",
"571 333 CURVE SMOOTH",
"623 333 OFFCURVE",
"650 316 OFFCURVE",
"650 281 CURVE SMOOTH"
);
},
{
closed = 1;
nodes = (
"449 415 OFFCURVE",
"434 361 OFFCURVE",
"418 294 CURVE",
"372 265 OFFCURVE",
"340 245 OFFCURVE",
"320 236 CURVE SMOOTH",
"280 217 OFFCURVE",
"244 207 OFFCURVE",
"211 207 CURVE SMOOTH",
"183 207 OFFCURVE",
"158 215 OFFCURVE",
"134 229 CURVE",
"184 285 OFFCURVE",
"248 337 OFFCURVE",
"325 382 CURVE SMOOTH",
"385 416 OFFCURVE",
"431 440 OFFCURVE",
"463 456 CURVE"
);
},
{
closed = 1;
nodes = (
"387 168 OFFCURVE",
"363 85 OFFCURVE",
"344 33 CURVE",
"307 25 OFFCURVE",
"271 20 OFFCURVE",
"236 20 CURVE SMOOTH",
"196 20 OFFCURVE",
"162 26 OFFCURVE",
"133 37 CURVE SMOOTH",
"94 53 OFFCURVE",
"75 79 OFFCURVE",
"75 113 CURVE SMOOTH",
"75 142 OFFCURVE",
"89 174 OFFCURVE",
"119 211 CURVE",
"145 196 OFFCURVE",
"174 188 OFFCURVE",
"204 188 CURVE SMOOTH",
"265 188 OFFCURVE",
"335 220 OFFCURVE",
"415 284 CURVE"
);
}
);
width = 678;
}
);
note = ampersand;
unicode = 0026;
},
{
glyphname = quotesingle;
lastChange = "2021-03-29 15:46:53 +0000";
layers = (
{
hints = (
{
horizontal = 1;
place = "{285, 193}";
type = Stem;
},
{
place = "{81, 53}";
type = Stem;
}
);
layerId = "89156F97-8AE0-4F29-8E8C-D321EE696556";
paths = (
{
closed = 1;
nodes = (
"138 471 OFFCURVE",
"132 478 OFFCURVE",
"118 478 CURVE SMOOTH",
"117 478 OFFCURVE",
"114 478 OFFCURVE",
"111 478 CURVE SMOOTH",
"105 477 OFFCURVE",
"97 473 OFFCURVE",
"87 465 CURVE SMOOTH",
"78 457 OFFCURVE",
"73 450 OFFCURVE",
"71 444 CURVE SMOOTH",
"70 442 OFFCURVE",
"70 440 OFFCURVE",
"71 439 CURVE SMOOTH",
"84 422 OFFCURVE",
"84 388 OFFCURVE",
"72 337 CURVE SMOOTH",
"65 303 OFFCURVE",
"61 286 OFFCURVE",
"63 285 CURVE",
"63 285 OFFCURVE",
"63 285 OFFCURVE",
"64 285 CURVE SMOOTH",
"66 285 OFFCURVE",
"71 295 OFFCURVE",
"80 315 CURVE SMOOTH",
"99 364 OFFCURVE",
"113 401 OFFCURVE",
"122 425 CURVE SMOOTH",
"129 448 OFFCURVE",
"134 460 OFFCURVE",
"134 458 CURVE"
);
}
);
width = 153;
}
);
note = quotesingle;
unicode = 0027;
},
{
glyphname = parenleft;
lastChange = "2021-03-29 15:46:53 +0000";
layers = (
{
hints = (
{
horizontal = 1;
place = "{-59, 20}";
type = Stem;
},
{
horizontal = 1;
place = "{587, 10}";
type = Stem;
},
{
place = "{13, 52}";
type = Stem;
}
);
layerId = "89156F97-8AE0-4F29-8E8C-D321EE696556";
paths = (
{
closed = 1;
nodes = (
"528 595 OFFCURVE",
"526 597 OFFCURVE",
"523 597 CURVE SMOOTH",
"438 597 OFFCURVE",
"353 571 OFFCURVE",
"271 518 CURVE SMOOTH",
"192 467 OFFCURVE",
"129 404 OFFCURVE",
"84 327 CURVE SMOOTH",
"55 279 OFFCURVE",
"35 227 OFFCURVE",
"23 169 CURVE SMOOTH",
"17 142 OFFCURVE",
"13 113 OFFCURVE",
"13 83 CURVE SMOOTH",
"13 -11 OFFCURVE",
"44 -59 OFFCURVE",
"105 -59 CURVE SMOOTH",
"114 -59 OFFCURVE",
"126 -57 OFFCURVE",
"141 -54 CURVE SMOOTH",
"159 -50 OFFCURVE",
"168 -47 OFFCURVE",
"168 -42 CURVE SMOOTH",
"168 -39 OFFCURVE",
"166 -37 OFFCURVE",
"162 -37 CURVE SMOOTH",
"161 -37 OFFCURVE",
"158 -37 OFFCURVE",
"154 -38 CURVE SMOOTH",
"150 -39 OFFCURVE",
"147 -39 OFFCURVE",
"144 -39 CURVE SMOOTH",
"92 -39 OFFCURVE",
"66 7 OFFCURVE",
"66 97 CURVE SMOOTH",
"66 136 OFFCURVE",
"69 169 OFFCURVE",
"77 198 CURVE SMOOTH",
"91 251 OFFCURVE",
"113 299 OFFCURVE",
"143 344 CURVE SMOOTH",
"183 408 OFFCURVE",
"238 463 OFFCURVE",
"307 509 CURVE SMOOTH",
"384 561 OFFCURVE",
"456 587 OFFCURVE",
"523 587 CURVE SMOOTH",
"526 587 OFFCURVE",
"528 589 OFFCURVE",
"528 592 CURVE SMOOTH"
);
}
);
width = 273;
}
);
note = parenleft;
unicode = 0028;
},
{
glyphname = parenright;
lastChange = "2021-03-29 15:46:53 +0000";
layers = (
{
hints = (
{
horizontal = 1;
place = "{-88, 10}";
type = Stem;
},
{
place = "{384, 51}";
type = Stem;
}
);
layerId = "89156F97-8AE0-4F29-8E8C-D321EE696556";
paths = (
{
closed = 1;
nodes = (
"435 466 OFFCURVE",
"420 512 OFFCURVE",
"390 546 CURVE SMOOTH",
"361 580 OFFCURVE",
"318 598 OFFCURVE",
"263 598 CURVE SMOOTH",
"238 598 OFFCURVE",
"226 595 OFFCURVE",
"226 589 CURVE SMOOTH",
"226 587 OFFCURVE",
"228 585 OFFCURVE",
"231 585 CURVE SMOOTH",
"255 581 OFFCURVE",
"273 579 OFFCURVE",
"283 575 CURVE SMOOTH",
"351 552 OFFCURVE",
"384 497 OFFCURVE",
"384 409 CURVE SMOOTH",
"384 331 OFFCURVE",
"359 248 OFFCURVE",
"309 162 CURVE SMOOTH",
"259 77 OFFCURVE",
"200 13 OFFCURVE",
"132 -29 CURVE SMOOTH",
"77 -62 OFFCURVE",
"29 -79 OFFCURVE",
"-10 -79 CURVE SMOOTH",
"-21 -79 OFFCURVE",
"-27 -80 OFFCURVE",
"-27 -83 CURVE SMOOTH",
"-27 -86 OFFCURVE",
"-19 -88 OFFCURVE",
"-5 -88 CURVE SMOOTH",
"41 -88 OFFCURVE",
"87 -75 OFFCURVE",
"135 -48 CURVE SMOOTH",
"211 -5 OFFCURVE",
"279 61 OFFCURVE",
"339 148 CURVE SMOOTH",
"403 240 OFFCURVE",
"435 328 OFFCURVE",
"435 410 CURVE SMOOTH"
);
}
);
width = 435;
}
);
note = parenright;
unicode = 0029;
},
{
glyphname = asterisk;
lastChange = "2021-03-29 15:46:53 +0000";
layers = (
{
hints = (
{
horizontal = 1;
place = "{245, 21}";
type = Stem;
},
{
place = "{291, 20}";
type = Stem;
}
);
layerId = "89156F97-8AE0-4F29-8E8C-D321EE696556";
paths = (
{
closed = 1;
nodes = (
"538 252 LINE",
"537 256 OFFCURVE",
"534 260 OFFCURVE",
"529 266 CURVE SMOOTH",
"524 272 OFFCURVE",
"521 275 OFFCURVE",
"518 275 CURVE SMOOTH",
"511 275 OFFCURVE",
"501 274 OFFCURVE",
"488 273 CURVE SMOOTH",
"474 272 OFFCURVE",
"465 271 OFFCURVE",
"460 271 CURVE SMOOTH",
"427 270 OFFCURVE",
"383 268 OFFCURVE",
"329 267 CURVE",
"422 364 LINE SMOOTH",
"441 383 OFFCURVE",
"455 397 OFFCURVE",
"466 408 CURVE SMOOTH",
"466 409 OFFCURVE",
"467 410 OFFCURVE",
"467 412 CURVE SMOOTH",
"467 415 OFFCURVE",
"466 416 OFFCURVE",
"464 416 CURVE SMOOTH",
"457 416 OFFCURVE",
"406 371 OFFCURVE",
"311 278 CURVE",
"309 379 OFFCURVE",
"308 448 OFFCURVE",
"308 485 CURVE SMOOTH",
"308 490 OFFCURVE",
"306 492 OFFCURVE",
"303 492 CURVE SMOOTH",
"301 492 OFFCURVE",
"300 491 OFFCURVE",
"299 488 CURVE SMOOTH",
"295 478 OFFCURVE",
"293 444 OFFCURVE",
"291 384 CURVE SMOOTH",
"291 371 OFFCURVE",
"290 334 OFFCURVE",
"289 273 CURVE",
"184 375 LINE SMOOTH",
"162 396 OFFCURVE",
"146 412 OFFCURVE",
"136 423 CURVE",
"134 424 OFFCURVE",
"132 425 OFFCURVE",
"131 425 CURVE SMOOTH",
"128 425 OFFCURVE",
"127 424 OFFCURVE",
"127 421 CURVE SMOOTH",
"127 413 OFFCURVE",
"174 362 OFFCURVE",
"266 266 CURVE",
"168 264 OFFCURVE",
"101 263 OFFCURVE",
"65 263 CURVE SMOOTH",
"60 263 OFFCURVE",
"58 261 OFFCURVE",
"58 258 CURVE SMOOTH",
"58 257 OFFCURVE",
"59 256 OFFCURVE",
"62 255 CURVE SMOOTH",
"72 251 OFFCURVE",
"107 249 OFFCURVE",
"165 247 CURVE SMOOTH",
"175 247 OFFCURVE",
"212 246 OFFCURVE",
"276 245 CURVE",
"174 144 OFFCURVE",
"123 90 OFFCURVE",
"123 83 CURVE SMOOTH",
"123 79 OFFCURVE",
"129 77 OFFCURVE",
"143 77 CURVE SMOOTH",
"147 77 OFFCURVE",
"151 78 OFFCURVE",
"152 79 CURVE SMOOTH",
"157 85 OFFCURVE",
"161 89 OFFCURVE",
"163 92 CURVE SMOOTH",
"219 152 OFFCURVE",
"260 197 OFFCURVE",
"289 226 CURVE",
"288 123 OFFCURVE",
"290 51 OFFCURVE",
"295 13 CURVE",
"296 12 LINE",
"299 13 OFFCURVE",
"304 16 OFFCURVE",
"310 21 CURVE SMOOTH",
"315 26 OFFCURVE",
"318 29 OFFCURVE",
"318 32 CURVE SMOOTH",
"318 39 OFFCURVE",
"318 48 OFFCURVE",
"317 61 CURVE SMOOTH",
"316 75 OFFCURVE",
"315 86 OFFCURVE",
"315 90 CURVE SMOOTH",
"314 123 OFFCURVE",
"313 165 OFFCURVE",
"312 219 CURVE",
"404 125 OFFCURVE",
"454 79 OFFCURVE",
"461 79 CURVE SMOOTH",
"465 79 OFFCURVE",
"466 86 OFFCURVE",
"466 100 CURVE SMOOTH",
"466 105 OFFCURVE",
"466 107 OFFCURVE",
"465 109 CURVE",
"459 114 OFFCURVE",
"454 118 OFFCURVE",
"451 121 CURVE SMOOTH",
"391 175 OFFCURVE",
"348 217 OFFCURVE",
"319 244 CURVE",
"426 243 OFFCURVE",
"498 246 OFFCURVE",
"537 251 CURVE"
);
}
);
width = 569;
}
);
note = asterisk;
unicode = 002A;
},
{
glyphname = plus;
lastChange = "2021-03-29 15:46:53 +0000";
layers = (
{
hints = (
{
place = "{169, 32}";
type = Stem;
}
);
layerId = "89156F97-8AE0-4F29-8E8C-D321EE696556";
paths = (
{
closed = 1;
nodes = (
"349 211 OFFCURVE",
"347 212 OFFCURVE",
"344 213 CURVE SMOOTH",
"313 219 OFFCURVE",
"261 222 OFFCURVE",
"190 223 CURVE",
"199 293 OFFCURVE",
"201 344 OFFCURVE",
"201 379 CURVE SMOOTH",
"201 391 LINE",
"200 392 LINE",
"196 392 OFFCURVE",
"190 390 OFFCURVE",
"181 385 CURVE SMOOTH",
"173 380 OFFCURVE",
"169 376 OFFCURVE",
"169 373 CURVE SMOOTH",
"169 314 OFFCURVE",
"167 264 OFFCURVE",
"164 223 CURVE",
"95 223 OFFCURVE",
"46 221 OFFCURVE",
"17 218 CURVE",
"16 217 OFFCURVE",
"15 217 OFFCURVE",
"14 216 CURVE",
"15 212 OFFCURVE",
"19 207 OFFCURVE",
"28 201 CURVE SMOOTH",
"35 196 OFFCURVE",
"41 193 OFFCURVE",
"46 193 CURVE SMOOTH",
"44 193 OFFCURVE",
"56 194 OFFCURVE",
"83 196 CURVE SMOOTH",
"108 197 OFFCURVE",
"135 199 OFFCURVE",
"162 200 CURVE",
"158 143 OFFCURVE",
"153 102 OFFCURVE",
"150 74 CURVE SMOOTH",
"146 37 OFFCURVE",
"144 17 OFFCURVE",
"144 16 CURVE SMOOTH",
"144 12 OFFCURVE",
"145 10 OFFCURVE",
"148 10 CURVE SMOOTH",
"149 10 OFFCURVE",
"151 11 OFFCURVE",
"152 13 CURVE SMOOTH",
"162 37 OFFCURVE",
"174 99 OFFCURVE",
"187 200 CURVE",
"246 203 OFFCURVE",
"296 204 OFFCURVE",
"338 204 CURVE SMOOTH",
"345 204 OFFCURVE",
"349 206 OFFCURVE",
"349 209 CURVE SMOOTH"
);
}
);
width = 366;
}
);
note = plus;
unicode = 002B;
},
{
glyphname = comma;
lastChange = "2021-03-29 15:46:53 +0000";
layers = (
{
hints = (
{
horizontal = 1;
place = "{-115, 187}";
type = Stem;
},
{
place = "{69, 45}";
type = Stem;
}
);
layerId = "89156F97-8AE0-4F29-8E8C-D321EE696556";
paths = (
{
closed = 1;
nodes = (
"114 46 OFFCURVE",
"113 50 OFFCURVE",
"112 55 CURVE SMOOTH",
"112 54 LINE",
"104 67 OFFCURVE",
"95 72 OFFCURVE",
"88 72 CURVE SMOOTH",
"84 72 OFFCURVE",
"79 68 OFFCURVE",
"75 61 CURVE SMOOTH",
"71 54 OFFCURVE",
"69 48 OFFCURVE",
"69 43 CURVE SMOOTH",
"69 40 OFFCURVE",
"70 35 OFFCURVE",
"72 29 CURVE SMOOTH",
"74 23 OFFCURVE",
"75 18 OFFCURVE",
"75 15 CURVE SMOOTH",
"75 -8 OFFCURVE",
"66 -35 OFFCURVE",
"48 -67 CURVE SMOOTH",
"29 -100 OFFCURVE",
"20 -115 OFFCURVE",
"20 -114 CURVE",
"20 -115 OFFCURVE",
"20 -115 OFFCURVE",
"21 -115 CURVE SMOOTH",
"26 -115 OFFCURVE",
"37 -103 OFFCURVE",
"55 -79 CURVE SMOOTH",
"69 -61 OFFCURVE",
"80 -46 OFFCURVE",
"86 -34 CURVE SMOOTH",
"105 -3 OFFCURVE",
"114 22 OFFCURVE",
"114 40 CURVE SMOOTH"
);
}
);
width = 144;
}
);
note = comma;
unicode = 002C;
},
{
glyphname = hyphen;
lastChange = "2021-03-29 15:46:53 +0000";
layers = (
{
hints = (
{
horizontal = 1;
place = "{163, 25}";
type = Stem;
}
);
layerId = "89156F97-8AE0-4F29-8E8C-D321EE696556";
paths = (
{
closed = 1;
nodes = (
"274 176 OFFCURVE",
"273 177 OFFCURVE",
"271 178 CURVE SMOOTH",
"249 184 OFFCURVE",
"216 188 OFFCURVE",
"170 188 CURVE SMOOTH",
"141 188 OFFCURVE",
"110 186 OFFCURVE",
"78 182 CURVE",
"76 181 LINE",
"77 178 OFFCURVE",
"80 173 OFFCURVE",
"85 167 CURVE SMOOTH",
"89 162 OFFCURVE",
"93 159 OFFCURVE",
"96 159 CURVE SMOOTH",
"89 159 OFFCURVE",
"106 160 OFFCURVE",
"149 163 CURVE SMOOTH",
"194 167 OFFCURVE",
"234 169 OFFCURVE",
"268 169 CURVE SMOOTH",
"272 169 OFFCURVE",
"274 171 OFFCURVE",
"274 174 CURVE SMOOTH"
);
}
);
width = 283;
}
);
note = hyphen;
unicode = 002D;
},
{
glyphname = period;
lastChange = "2021-03-29 15:46:53 +0000";
layers = (
{
hints = (
{
horizontal = 1;
place = "{-14, 21}";
target = up;
type = BottomGhost;
},
{
place = "{40, 76}";
type = Stem;
}
);
layerId = "89156F97-8AE0-4F29-8E8C-D321EE696556";
paths = (
{
closed = 1;
nodes = (
"115 67 LINE",
"115 67 LINE",
"114 68 OFFCURVE",
"114 68 OFFCURVE",
"113 68 CURVE SMOOTH",
"108 68 OFFCURVE",
"98 65 OFFCURVE",
"84 57 CURVE SMOOTH",
"69 49 OFFCURVE",
"61 44 OFFCURVE",
"57 39 CURVE",
"46 34 OFFCURVE",
"40 27 OFFCURVE",
"40 15 CURVE SMOOTH",
"40 10 OFFCURVE",
"42 4 OFFCURVE",
"47 -4 CURVE SMOOTH",
"50 -10 OFFCURVE",
"55 -14 OFFCURVE",
"60 -14 CURVE SMOOTH",
"72 -14 OFFCURVE",
"83 -4 OFFCURVE",
"88 17 CURVE SMOOTH",
"92 31 OFFCURVE",
"97 42 OFFCURVE",
"102 49 CURVE",
"102 50 OFFCURVE",
"105 53 OFFCURVE",
"109 58 CURVE SMOOTH",
"113 63 OFFCURVE",
"116 66 OFFCURVE",
"116 67 CURVE"
);
}
);
width = 144;
}
);
note = period;
unicode = 002E;
},
{
glyphname = slash;
lastChange = "2021-03-29 15:46:53 +0000";
layers = (
{
hints = (
{
horizontal = 1;
place = "{-111, 790}";
type = Stem;
},
{
place = "{-9, 707}";
type = Stem;
}
);
layerId = "89156F97-8AE0-4F29-8E8C-D321EE696556";
paths = (
{
closed = 1;
nodes = (
"698 677 OFFCURVE",
"694 679 OFFCURVE",
"686 679 CURVE SMOOTH",
"670 679 OFFCURVE",
"654 674 OFFCURVE",
"636 661 CURVE",
"583 618 OFFCURVE",
"544 584 OFFCURVE",
"516 558 CURVE SMOOTH",
"416 465 OFFCURVE",
"321 369 OFFCURVE",
"233 269 CURVE SMOOTH",
"112 133 OFFCURVE",
"36 27 OFFCURVE",
"4 -52 CURVE SMOOTH",
"-5 -73 OFFCURVE",
"-9 -86 OFFCURVE",
"-9 -92 CURVE SMOOTH",
"-9 -95 OFFCURVE",
"-6 -100 OFFCURVE",
"-1 -105 CURVE SMOOTH",
"4 -109 OFFCURVE",
"7 -111 OFFCURVE",
"10 -111 CURVE SMOOTH",
"10 -111 OFFCURVE",
"10 -111 OFFCURVE",
"11 -110 CURVE",
"19 -81 OFFCURVE",
"28 -56 OFFCURVE",
"37 -35 CURVE SMOOTH",
"85 68 OFFCURVE",
"182 194 OFFCURVE",
"330 343 CURVE SMOOTH",
"437 452 OFFCURVE",
"559 561 OFFCURVE",
"694 669 CURVE SMOOTH",
"696 672 OFFCURVE",
"698 674 OFFCURVE",
"698 675 CURVE SMOOTH"
);
}
);
width = 424;
}
);
note = slash;
unicode = 002F;
},
{
glyphname = zero;
lastChange = "2021-03-29 15:46:53 +0000";
layers = (
{
hints = (
{
horizontal = 1;
place = "{-51, 40}";
type = Stem;
},
{
horizontal = 1;
place = "{456, 11}";
type = Stem;
},
{
horizontal = 1;
place = "{493, 21}";
target = up;
type = BottomGhost;
},
{
place = "{37, 15}";
type = Stem;
},
{
place = "{555, 11}";
type = Stem;
}
);
layerId = "89156F97-8AE0-4F29-8E8C-D321EE696556";
paths = (
{
closed = 1;
nodes = (
"566 330 OFFCURVE",
"565 345 OFFCURVE",
"563 359 CURVE SMOOTH",
"557 406 OFFCURVE",
"534 444 OFFCURVE",
"494 472 CURVE SMOOTH",
"457 499 OFFCURVE",
"414 513 OFFCURVE",
"366 513 CURVE SMOOTH",
"249 513 OFFCURVE",
"157 476 OFFCURVE",
"87 403 CURVE SMOOTH",
"50 364 OFFCURVE",
"32 322 OFFCURVE",
"32 276 CURVE SMOOTH",
"32 246 OFFCURVE",
"38 219 OFFCURVE",
"48 195 CURVE",
"41 168 OFFCURVE",
"37 142 OFFCURVE",
"37 114 CURVE SMOOTH",
"37 62 OFFCURVE",
"52 22 OFFCURVE",
"83 -8 CURVE SMOOTH",
"112 -37 OFFCURVE",
"153 -51 OFFCURVE",
"205 -51 CURVE SMOOTH",
"242 -51 OFFCURVE",
"280 -44 OFFCURVE",
"319 -29 CURVE SMOOTH",
"392 -1 OFFCURVE",
"451 44 OFFCURVE",
"496 105 CURVE SMOOTH",
"542 168 OFFCURVE",
"566 238 OFFCURVE",
"566 314 CURVE SMOOTH"
);
},
{
closed = 1;
nodes = (
"555 261 OFFCURVE",
"530 201 OFFCURVE",
"482 143 CURVE SMOOTH",
"440 93 OFFCURVE",
"387 53 OFFCURVE",
"323 23 CURVE SMOOTH",
"275 0 OFFCURVE",
"229 -11 OFFCURVE",
"186 -11 CURVE SMOOTH",
"145 -11 OFFCURVE",
"112 -1 OFFCURVE",
"88 20 CURVE SMOOTH",
"65 41 OFFCURVE",
"52 71 OFFCURVE",
"52 112 CURVE SMOOTH",
"52 121 OFFCURVE",
"57 139 OFFCURVE",
"67 165 CURVE",
"84 142 OFFCURVE",
"107 122 OFFCURVE",
"139 107 CURVE SMOOTH",
"170 93 OFFCURVE",
"200 86 OFFCURVE",
"231 86 CURVE SMOOTH",
"262 86 OFFCURVE",
"277 88 OFFCURVE",
"277 95 CURVE SMOOTH",
"277 98 OFFCURVE",
"274 99 OFFCURVE",
"267 99 CURVE SMOOTH",
"266 99 OFFCURVE",
"264 99 OFFCURVE",
"261 99 CURVE SMOOTH",
"258 99 OFFCURVE",
"257 99 OFFCURVE",
"257 99 CURVE SMOOTH",
"225 99 OFFCURVE",
"191 107 OFFCURVE",
"155 124 CURVE SMOOTH",
"116 143 OFFCURVE",
"89 165 OFFCURVE",
"76 191 CURVE",
"102 249 OFFCURVE",
"147 307 OFFCURVE",
"214 364 CURVE SMOOTH",
"286 426 OFFCURVE",
"351 456 OFFCURVE",
"408 456 CURVE SMOOTH",
"421 456 OFFCURVE",
"428 458 OFFCURVE",
"428 462 CURVE SMOOTH",
"428 466 OFFCURVE",
"421 467 OFFCURVE",
"409 467 CURVE SMOOTH",
"343 467 OFFCURVE",
"276 445 OFFCURVE",
"208 397 CURVE SMOOTH",
"144 353 OFFCURVE",
"97 299 OFFCURVE",
"64 238 CURVE",
"63 240 OFFCURVE",
"62 246 OFFCURVE",
"62 253 CURVE SMOOTH",
"62 280 OFFCURVE",
"67 307 OFFCURVE",
"80 333 CURVE SMOOTH",
"105 384 OFFCURVE",
"144 424 OFFCURVE",
"200 453 CURVE SMOOTH",
"250 480 OFFCURVE",
"306 493 OFFCURVE",
"366 493 CURVE SMOOTH",
"409 493 OFFCURVE",
"449 481 OFFCURVE",
"485 457 CURVE SMOOTH",
"524 431 OFFCURVE",
"547 398 OFFCURVE",
"553 357 CURVE SMOOTH",
"554 347 OFFCURVE",
"555 336 OFFCURVE",
"555 325 CURVE SMOOTH"
);
}
);
width = 570;
}
);
note = zero;
unicode = 0030;
},
{
glyphname = one;
lastChange = "2021-03-29 15:46:53 +0000";
layers = (
{
hints = (
{
horizontal = 1;
place = "{-13, 30}";
type = Stem;
}
);
layerId = "89156F97-8AE0-4F29-8E8C-D321EE696556";
paths = (
{
closed = 1;
nodes = (
"434 493 OFFCURVE",
"428 501 OFFCURVE",
"415 501 CURVE SMOOTH",
"407 501 OFFCURVE",
"394 495 OFFCURVE",
"380 483 CURVE SMOOTH",
"369 473 OFFCURVE",
"359 464 OFFCURVE",
"349 454 CURVE SMOOTH",
"316 425 OFFCURVE",
"279 392 OFFCURVE",
"240 357 CURVE SMOOTH",
"220 339 OFFCURVE",
"205 327 OFFCURVE",
"196 317 CURVE SMOOTH",
"191 314 OFFCURVE",
"189 309 OFFCURVE",
"189 305 CURVE SMOOTH",
"189 302 OFFCURVE",
"192 300 OFFCURVE",
"197 300 CURVE SMOOTH",
"201 300 OFFCURVE",
"226 318 OFFCURVE",
"269 355 CURVE SMOOTH",
"296 379 OFFCURVE",
"320 395 OFFCURVE",
"340 404 CURVE",
"339 401 OFFCURVE",
"337 398 OFFCURVE",
"334 393 CURVE SMOOTH",
"282 310 LINE SMOOTH",
"225 219 OFFCURVE",
"197 171 OFFCURVE",
"195 168 CURVE SMOOTH",
"162 108 OFFCURVE",
"143 58 OFFCURVE",
"139 17 CURVE",
"75 14 OFFCURVE",
"34 13 OFFCURVE",
"16 13 CURVE SMOOTH",
"12 13 OFFCURVE",
"10 9 OFFCURVE",
"10 -1 CURVE SMOOTH",
"10 -18 OFFCURVE",
"13 -27 OFFCURVE",
"20 -27 CURVE SMOOTH",
"44 -27 OFFCURVE",
"85 -22 OFFCURVE",
"141 -13 CURVE",
"145 -24 OFFCURVE",
"157 -29 OFFCURVE",
"173 -29 CURVE SMOOTH",
"178 -29 OFFCURVE",
"180 -26 OFFCURVE",
"180 -17 CURVE SMOOTH",
"180 -14 OFFCURVE",
"180 -11 OFFCURVE",
"179 -7 CURVE",
"216 -2 OFFCURVE",
"245 1 OFFCURVE",
"269 1 CURVE SMOOTH",
"272 1 OFFCURVE",
"276 1 OFFCURVE",
"283 1 CURVE SMOOTH",
"290 0 OFFCURVE",
"295 0 OFFCURVE",
"297 0 CURVE SMOOTH",
"302 0 OFFCURVE",
"305 3 OFFCURVE",
"305 8 CURVE SMOOTH",
"305 11 OFFCURVE",
"303 13 OFFCURVE",
"298 14 CURVE SMOOTH",
"282 17 OFFCURVE",
"253 18 OFFCURVE",
"208 18 CURVE SMOOTH",
"179 18 LINE",
"180 20 LINE",
"190 79 OFFCURVE",
"214 143 OFFCURVE",
"251 214 CURVE SMOOTH",
"284 277 OFFCURVE",
"320 335 OFFCURVE",
"364 388 CURVE SMOOTH",
"390 419 OFFCURVE",
"411 442 OFFCURVE",
"426 456 CURVE SMOOTH",
"431 463 OFFCURVE",
"434 470 OFFCURVE",
"434 479 CURVE SMOOTH"
);
}
);
width = 336;
}
);
note = one;
unicode = 0031;
},
{
glyphname = two;
lastChange = "2021-03-29 15:46:53 +0000";
layers = (
{
hints = (
{
horizontal = 1;
place = "{-60, 43}";
type = Stem;
},
{
horizontal = 1;
place = "{6, 11}";
type = Stem;
},
{
horizontal = 1;
place = "{55, 25}";
type = Stem;
},
{
horizontal = 1;
place = "{462, 14}";
type = Stem;
},
{
place = "{15, 19}";
type = Stem;
},
{
place = "{227, 16}";
type = Stem;
},
{
place = "{531, 48}";
type = Stem;
},
{
place = "{591, 12}";
type = Stem;
}
);
layerId = "89156F97-8AE0-4F29-8E8C-D321EE696556";
paths = (
{
closed = 1;
nodes = (
"603 52 OFFCURVE",
"591 75 OFFCURVE",
"566 97 CURVE SMOOTH",
"542 119 OFFCURVE",
"518 129 OFFCURVE",
"493 129 CURVE SMOOTH",
"488 129 OFFCURVE",
"486 128 OFFCURVE",
"486 125 CURVE SMOOTH",
"486 124 OFFCURVE",
"488 124 OFFCURVE",
"491 123 CURVE SMOOTH",
"514 117 OFFCURVE",
"535 105 OFFCURVE",
"555 90 CURVE SMOOTH",
"579 72 OFFCURVE",
"591 52 OFFCURVE",
"591 32 CURVE SMOOTH",
"591 14 OFFCURVE",
"579 1 OFFCURVE",
"555 -8 CURVE SMOOTH",
"537 -14 OFFCURVE",
"518 -17 OFFCURVE",
"496 -17 CURVE SMOOTH",
"469 -17 OFFCURVE",
"428 -10 OFFCURVE",
"371 3 CURVE SMOOTH",
"293 22 OFFCURVE",
"233 37 OFFCURVE",
"194 48 CURVE",
"282 88 OFFCURVE",
"360 133 OFFCURVE",
"428 182 CURVE SMOOTH",
"529 257 OFFCURVE",
"580 324 OFFCURVE",
"580 384 CURVE SMOOTH",
"580 415 OFFCURVE",
"566 439 OFFCURVE",
"541 455 CURVE SMOOTH",
"518 469 OFFCURVE",
"490 476 OFFCURVE",
"457 476 CURVE SMOOTH",
"410 476 OFFCURVE",
"363 464 OFFCURVE",
"314 439 CURVE SMOOTH",
"256 409 OFFCURVE",
"227 373 OFFCURVE",
"227 332 CURVE SMOOTH",
"227 325 OFFCURVE",
"229 315 OFFCURVE",
"232 305 CURVE SMOOTH",
"236 292 OFFCURVE",
"240 285 OFFCURVE",
"245 285 CURVE SMOOTH",
"246 285 OFFCURVE",
"247 287 OFFCURVE",
"247 290 CURVE SMOOTH",
"247 293 OFFCURVE",
"246 297 OFFCURVE",
"245 304 CURVE SMOOTH",
"244 310 OFFCURVE",
"243 314 OFFCURVE",
"243 317 CURVE SMOOTH",
"243 360 OFFCURVE",
"269 395 OFFCURVE",
"320 425 CURVE SMOOTH",
"364 449 OFFCURVE",
"409 462 OFFCURVE",
"454 462 CURVE SMOOTH",
"475 462 OFFCURVE",
"492 457 OFFCURVE",
"506 447 CURVE SMOOTH",
"523 436 OFFCURVE",
"531 421 OFFCURVE",
"531 401 CURVE SMOOTH",
"531 344 OFFCURVE",
"489 279 OFFCURVE",
"403 212 CURVE SMOOTH",
"372 188 OFFCURVE",
"347 172 OFFCURVE",
"330 161 CURVE SMOOTH",
"266 119 OFFCURVE",
"211 86 OFFCURVE",
"163 62 CURVE",
"126 74 OFFCURVE",
"96 80 OFFCURVE",
"73 80 CURVE SMOOTH",
"34 80 OFFCURVE",
"15 67 OFFCURVE",
"15 39 CURVE SMOOTH",
"15 17 OFFCURVE",
"29 6 OFFCURVE",
"58 6 CURVE SMOOTH",
"84 6 OFFCURVE",
"120 15 OFFCURVE",
"166 35 CURVE",
"215 15 OFFCURVE",
"262 -6 OFFCURVE",
"310 -26 CURVE SMOOTH",
"366 -48 OFFCURVE",
"417 -60 OFFCURVE",
"464 -60 CURVE SMOOTH",
"499 -60 OFFCURVE",
"529 -53 OFFCURVE",
"554 -42 CURVE SMOOTH",
"587 -27 OFFCURVE",
"603 -4 OFFCURVE",
"603 28 CURVE SMOOTH"
);
},
{
closed = 1;
nodes = (
"117 39 OFFCURVE",
"105 33 OFFCURVE",
"94 28 CURVE SMOOTH",
"81 21 OFFCURVE",
"68 17 OFFCURVE",
"58 17 CURVE SMOOTH",
"42 17 OFFCURVE",
"34 23 OFFCURVE",
"34 33 CURVE SMOOTH",
"34 48 OFFCURVE",
"48 55 OFFCURVE",
"73 55 CURVE SMOOTH",
"81 55 OFFCURVE",
"99 52 OFFCURVE",
"128 46 CURVE"
);
}
);
width = 615;
}
);
note = two;
unicode = 0032;
},
{
glyphname = three;
lastChange = "2021-03-29 15:46:53 +0000";
layers = (
{
hints = (
{
horizontal = 1;
place = "{-54, 12}";
type = Stem;
},
{
horizontal = 1;
place = "{134, 18}";
type = Stem;
},
{
horizontal = 1;
place = "{468, 22}";
type = Stem;
},
{
place = "{2, 36}";
type = Stem;
},
{
place = "{250, 29}";
type = Stem;
},
{
place = "{586, 26}";
type = Stem;
}
);
layerId = "89156F97-8AE0-4F29-8E8C-D321EE696556";
paths = (
{
closed = 1;
nodes = (
"612 433 OFFCURVE",
"589 456 OFFCURVE",
"544 472 CURVE SMOOTH",
"511 484 OFFCURVE",
"476 490 OFFCURVE",
"438 490 CURVE SMOOTH",
"402 490 OFFCURVE",
"365 485 OFFCURVE",
"326 472 CURVE SMOOTH",
"276 456 OFFCURVE",
"250 434 OFFCURVE",
"250 407 CURVE SMOOTH",
"250 389 OFFCURVE",
"256 379 OFFCURVE",
"267 379 CURVE SMOOTH",
"276 379 OFFCURVE",
"279 385 OFFCURVE",
"279 395 CURVE SMOOTH",
"279 421 OFFCURVE",
"300 441 OFFCURVE",
"341 454 CURVE SMOOTH",
"371 464 OFFCURVE",
"402 468 OFFCURVE",
"434 468 CURVE SMOOTH",
"466 468 OFFCURVE",
"495 466 OFFCURVE",
"523 459 CURVE SMOOTH",
"565 449 OFFCURVE",
"586 435 OFFCURVE",
"586 416 CURVE SMOOTH",
"586 390 OFFCURVE",
"561 364 OFFCURVE",
"508 340 CURVE SMOOTH",
"471 323 OFFCURVE",
"433 310 OFFCURVE",
"395 303 CURVE SMOOTH",
"366 298 OFFCURVE",
"344 295 OFFCURVE",
"330 294 CURVE",
"317 290 OFFCURVE",
"312 283 OFFCURVE",
"312 274 CURVE SMOOTH",
"312 265 OFFCURVE",
"316 260 OFFCURVE",
"325 260 CURVE SMOOTH",
"377 260 OFFCURVE",
"423 254 OFFCURVE",
"461 241 CURVE SMOOTH",
"518 223 OFFCURVE",
"546 194 OFFCURVE",
"546 153 CURVE SMOOTH",
"546 91 OFFCURVE",
"504 41 OFFCURVE",
"417 3 CURVE SMOOTH",
"348 -28 OFFCURVE",
"277 -42 OFFCURVE",
"206 -42 CURVE SMOOTH",
"163 -42 OFFCURVE",
"127 -33 OFFCURVE",
"96 -17 CURVE SMOOTH",
"57 3 OFFCURVE",
"38 33 OFFCURVE",
"38 72 CURVE SMOOTH",
"38 94 OFFCURVE",
"50 111 OFFCURVE",
"76 122 CURVE SMOOTH",
"95 130 OFFCURVE",
"117 134 OFFCURVE",
"143 134 CURVE SMOOTH",
"153 134 OFFCURVE",
"158 136 OFFCURVE",
"158 140 CURVE SMOOTH",
"158 148 OFFCURVE",
"144 152 OFFCURVE",
"117 152 CURVE SMOOTH",
"88 152 OFFCURVE",
"63 145 OFFCURVE",
"41 131 CURVE SMOOTH",
"15 115 OFFCURVE",
"2 93 OFFCURVE",
"2 67 CURVE SMOOTH",
"2 22 OFFCURVE",
"30 -10 OFFCURVE",
"87 -31 CURVE SMOOTH",
"127 -47 OFFCURVE",
"175 -54 OFFCURVE",
"229 -54 CURVE SMOOTH",
"310 -54 OFFCURVE",
"387 -39 OFFCURVE",
"459 -9 CURVE SMOOTH",
"552 30 OFFCURVE",
"599 85 OFFCURVE",
"599 154 CURVE SMOOTH",
"599 219 OFFCURVE",
"545 261 OFFCURVE",
"438 281 CURVE",
"554 303 OFFCURVE",
"612 343 OFFCURVE",
"612 403 CURVE SMOOTH"
);
}
);
width = 619;
}
);
note = three;
unicode = 0033;
},
{
glyphname = four;
lastChange = "2021-03-29 15:46:53 +0000";
layers = (
{
hints = (
{
horizontal = 1;
place = "{-23, 16}";
type = Stem;
},
{
horizontal = 1;
place = "{106, 46}";
type = Stem;
},
{
horizontal = 1;
place = "{164, 17}";
type = Stem;
},
{
horizontal = 1;
place = "{203, 11}";
type = Stem;
},
{
place = "{-2, 13}";
type = Stem;
},
{
place = "{616, 12}";
type = Stem;
}
);
layerId = "89156F97-8AE0-4F29-8E8C-D321EE696556";
paths = (
{
closed = 1;
nodes = (
"628 230 OFFCURVE",
"615 254 OFFCURVE",
"588 273 CURVE SMOOTH",
"564 290 OFFCURVE",
"538 298 OFFCURVE",
"509 298 CURVE SMOOTH",
"503 298 OFFCURVE",
"500 297 OFFCURVE",
"500 295 CURVE SMOOTH",
"500 294 OFFCURVE",
"502 293 OFFCURVE",
"504 292 CURVE",
"518 290 OFFCURVE",
"528 288 OFFCURVE",
"537 285 CURVE SMOOTH",
"555 279 OFFCURVE",
"572 270 OFFCURVE",
"587 257 CURVE SMOOTH",
"606 242 OFFCURVE",
"616 227 OFFCURVE",
"616 211 CURVE SMOOTH",
"616 185 OFFCURVE",
"591 167 OFFCURVE",
"542 156 CURVE SMOOTH",
"529 153 OFFCURVE",
"513 152 OFFCURVE",
"492 152 CURVE SMOOTH",
"461 152 OFFCURVE",
"420 155 OFFCURVE",
"371 161 CURVE",
"402 219 OFFCURVE",
"426 263 OFFCURVE",
"441 292 CURVE SMOOTH",
"453 314 OFFCURVE",
"463 334 OFFCURVE",
"471 350 CURVE",
"479 356 OFFCURVE",
"485 361 OFFCURVE",
"488 364 CURVE",
"490 367 OFFCURVE",
"504 394 OFFCURVE",
"527 447 CURVE SMOOTH",
"550 500 OFFCURVE",
"562 527 OFFCURVE",
"562 528 CURVE SMOOTH",
"562 535 OFFCURVE",
"557 538 OFFCURVE",
"544 538 CURVE SMOOTH",
"528 538 OFFCURVE",
"515 532 OFFCURVE",
"505 521 CURVE SMOOTH",
"480 492 OFFCURVE",
"460 471 OFFCURVE",
"447 457 CURVE SMOOTH",
"386 390 OFFCURVE",
"339 342 OFFCURVE",
"304 312 CURVE SMOOTH",
"244 259 OFFCURVE",
"187 223 OFFCURVE",
"133 203 CURVE",
"100 211 OFFCURVE",
"72 215 OFFCURVE",
"51 215 CURVE SMOOTH",
"16 215 OFFCURVE",
"-2 207 OFFCURVE",
"-2 191 CURVE SMOOTH",
"-2 173 OFFCURVE",
"11 164 OFFCURVE",
"37 164 CURVE SMOOTH",
"53 164 OFFCURVE",
"80 169 OFFCURVE",
"117 180 CURVE",
"198 156 OFFCURVE",
"265 139 OFFCURVE",
"317 128 CURVE",
"295 72 OFFCURVE",
"283 27 OFFCURVE",
"278 -9 CURVE",
"228 -10 OFFCURVE",
"193 -10 OFFCURVE",
"172 -10 CURVE SMOOTH",
"168 -10 OFFCURVE",
"166 -15 OFFCURVE",
"166 -25 CURVE SMOOTH",
"166 -43 OFFCURVE",
"169 -51 OFFCURVE",
"176 -51 CURVE SMOOTH",
"203 -51 OFFCURVE",
"245 -47 OFFCURVE",
"300 -37 CURVE SMOOTH",
"354 -28 OFFCURVE",
"396 -23 OFFCURVE",
"425 -23 CURVE SMOOTH",
"428 -23 OFFCURVE",
"431 -23 OFFCURVE",
"438 -24 CURVE SMOOTH",
"445 -25 OFFCURVE",
"449 -25 OFFCURVE",
"452 -25 CURVE SMOOTH",
"457 -25 OFFCURVE",
"460 -22 OFFCURVE",
"460 -17 CURVE SMOOTH",
"460 -13 OFFCURVE",
"458 -11 OFFCURVE",
"453 -10 CURVE SMOOTH",
"439 -8 OFFCURVE",
"409 -7 OFFCURVE",
"363 -7 CURVE SMOOTH",
"347 -7 OFFCURVE",
"327 -7 OFFCURVE",
"305 -8 CURVE",
"311 26 OFFCURVE",
"326 68 OFFCURVE",
"351 121 CURVE",
"401 111 OFFCURVE",
"443 106 OFFCURVE",
"474 106 CURVE SMOOTH",
"510 106 OFFCURVE",
"542 113 OFFCURVE",
"572 127 CURVE SMOOTH",
"609 145 OFFCURVE",
"628 170 OFFCURVE",
"628 203 CURVE SMOOTH"
);
},
{
closed = 1;
nodes = (
"392 302 OFFCURVE",
"358 229 OFFCURVE",
"333 166 CURVE",
"263 176 OFFCURVE",
"204 186 OFFCURVE",
"157 197 CURVE",
"239 230 OFFCURVE",
"333 293 OFFCURVE",
"434 385 CURVE"
);
},
{
closed = 1;
nodes = (
"76 184 OFFCURVE",
"61 181 OFFCURVE",
"50 181 CURVE SMOOTH",
"25 181 OFFCURVE",
"11 184 OFFCURVE",
"11 190 CURVE SMOOTH",
"11 199 OFFCURVE",
"22 203 OFFCURVE",
"42 203 CURVE SMOOTH",
"58 203 OFFCURVE",
"76 199 OFFCURVE",
"96 190 CURVE"
);
}
);
width = 577;
}
);
note = four;
unicode = 0034;
},
{
glyphname = five;
lastChange = "2021-03-29 15:46:53 +0000";
layers = (
{
hints = (
{
horizontal = 1;
place = "{-82, 21}";
type = Stem;
},
{
horizontal = 1;
place = "{99, 11}";
type = Stem;
},
{
horizontal = 1;
place = "{278, 22}";
type = Stem;
},
{
horizontal = 1;
place = "{404, 46}";
type = Stem;
},
{
horizontal = 1;
place = "{476, 21}";
type = Stem;
},
{
place = "{-15, 35}";
type = Stem;
},
{
place = "{231, 18}";
type = Stem;
},
{
place = "{603, 51}";
type = Stem;
},
{
place = "{732, 12}";
type = Stem;
}
);
layerId = "89156F97-8AE0-4F29-8E8C-D321EE696556";
paths = (
{
closed = 1;
nodes = (
"745 524 OFFCURVE",
"732 547 OFFCURVE",
"707 566 CURVE SMOOTH",
"681 585 OFFCURVE",
"656 595 OFFCURVE",
"628 595 CURVE SMOOTH",
"622 595 OFFCURVE",
"619 594 OFFCURVE",
"619 591 CURVE SMOOTH",
"619 590 OFFCURVE",
"621 589 OFFCURVE",
"625 588 CURVE SMOOTH",
"637 585 OFFCURVE",
"649 583 OFFCURVE",
"657 580 CURVE SMOOTH",
"675 573 OFFCURVE",
"692 563 OFFCURVE",
"706 551 CURVE SMOOTH",
"724 536 OFFCURVE",
"732 520 OFFCURVE",
"732 504 CURVE SMOOTH",
"732 486 OFFCURVE",
"719 471 OFFCURVE",
"692 461 CURVE SMOOTH",
"671 453 OFFCURVE",
"649 449 OFFCURVE",
"627 449 CURVE SMOOTH",
"601 449 OFFCURVE",
"561 453 OFFCURVE",
"508 462 CURVE SMOOTH",
"470 468 OFFCURVE",
"432 476 OFFCURVE",
"394 483 CURVE SMOOTH",
"344 492 OFFCURVE",
"306 497 OFFCURVE",
"282 497 CURVE SMOOTH",
"248 497 OFFCURVE",
"231 486 OFFCURVE",
"231 465 CURVE SMOOTH",
"231 457 OFFCURVE",
"235 449 OFFCURVE",
"242 442 CURVE SMOOTH",
"250 434 OFFCURVE",
"257 430 OFFCURVE",
"264 430 CURVE SMOOTH",
"268 430 OFFCURVE",
"270 432 OFFCURVE",
"270 437 CURVE SMOOTH",
"270 439 OFFCURVE",
"266 443 OFFCURVE",
"259 447 CURVE SMOOTH",
"253 452 OFFCURVE",
"249 458 OFFCURVE",
"249 463 CURVE SMOOTH",
"249 471 OFFCURVE",
"258 476 OFFCURVE",
"276 476 CURVE SMOOTH",
"292 476 OFFCURVE",
"325 467 OFFCURVE",
"377 450 CURVE SMOOTH",
"471 419 OFFCURVE",
"542 404 OFFCURVE",
"589 404 CURVE SMOOTH",
"626 404 OFFCURVE",
"659 410 OFFCURVE",
"688 423 CURVE SMOOTH",
"726 439 OFFCURVE",
"745 465 OFFCURVE",
"745 498 CURVE SMOOTH"
);
},
{
closed = 1;
nodes = (
"655 238 OFFCURVE",
"637 263 OFFCURVE",
"603 280 CURVE SMOOTH",
"577 294 OFFCURVE",
"544 300 OFFCURVE",
"505 300 CURVE SMOOTH",
"479 300 OFFCURVE",
"447 294 OFFCURVE",
"409 282 CURVE SMOOTH",
"377 273 OFFCURVE",
"345 263 OFFCURVE",
"314 253 CURVE",
"322 267 OFFCURVE",
"338 296 OFFCURVE",
"364 342 CURVE SMOOTH",
"391 392 OFFCURVE",
"406 419 OFFCURVE",
"406 423 CURVE SMOOTH",
"406 431 OFFCURVE",
"399 435 OFFCURVE",
"385 435 CURVE SMOOTH",
"372 435 OFFCURVE",
"362 429 OFFCURVE",
"353 418 CURVE",
"344 400 OFFCURVE",
"337 384 OFFCURVE",
"332 372 CURVE SMOOTH",
"308 321 OFFCURVE",
"288 287 OFFCURVE",
"276 269 CURVE SMOOTH",
"263 252 OFFCURVE",
"257 241 OFFCURVE",
"257 238 CURVE SMOOTH",
"257 231 OFFCURVE",
"261 228 OFFCURVE",
"270 228 CURVE SMOOTH",
"273 228 OFFCURVE",
"282 230 OFFCURVE",
"298 236 CURVE SMOOTH",
"382 264 OFFCURVE",
"451 278 OFFCURVE",
"505 278 CURVE SMOOTH",
"571 278 OFFCURVE",
"603 257 OFFCURVE",
"603 215 CURVE SMOOTH",
"603 183 OFFCURVE",
"587 150 OFFCURVE",
"554 113 CURVE SMOOTH",
"504 57 OFFCURVE",
"438 13 OFFCURVE",
"356 -18 CURVE SMOOTH",
"281 -47 OFFCURVE",
"203 -61 OFFCURVE",
"123 -61 CURVE SMOOTH",
"101 -61 OFFCURVE",
"80 -58 OFFCURVE",
"62 -53 CURVE SMOOTH",
"34 -46 OFFCURVE",
"20 -35 OFFCURVE",
"20 -19 CURVE SMOOTH",
"20 7 OFFCURVE",
"61 34 OFFCURVE",
"143 62 CURVE SMOOTH",
"214 86 OFFCURVE",
"268 99 OFFCURVE",
"305 99 CURVE SMOOTH",
"317 99 OFFCURVE",
"324 101 OFFCURVE",
"324 104 CURVE SMOOTH",
"324 108 OFFCURVE",
"317 110 OFFCURVE",
"305 110 CURVE SMOOTH",
"250 110 OFFCURVE",
"188 101 OFFCURVE",
"119 82 CURVE SMOOTH",
"29 57 OFFCURVE",
"-15 26 OFFCURVE",
"-15 -12 CURVE SMOOTH",
"-15 -37 OFFCURVE",
"3 -56 OFFCURVE",
"39 -68 CURVE SMOOTH",
"65 -77 OFFCURVE",
"92 -82 OFFCURVE",
"123 -82 CURVE SMOOTH",
"217 -82 OFFCURVE",
"306 -68 OFFCURVE",
"390 -40 CURVE SMOOTH",
"487 -7 OFFCURVE",
"561 43 OFFCURVE",
"613 105 CURVE SMOOTH",
"640 140 OFFCURVE",
"655 172 OFFCURVE",
"655 202 CURVE SMOOTH"
);
}
);
width = 684;
}
);
note = five;
unicode = 0035;
},
{
glyphname = six;
lastChange = "2021-03-29 15:46:53 +0000";
layers = (
{
hints = (
{
horizontal = 1;
place = "{-59, 17}";
type = Stem;
},
{
horizontal = 1;
place = "{191, 27}";
type = Stem;
},
{
place = "{10, 49}";
type = Stem;
},
{
place = "{431, 47}";
type = Stem;
}
);
layerId = "89156F97-8AE0-4F29-8E8C-D321EE696556";
paths = (
{
closed = 1;
nodes = (
"515 486 OFFCURVE",
"512 488 OFFCURVE",
"505 488 CURVE SMOOTH",
"503 488 OFFCURVE",
"499 488 OFFCURVE",
"495 486 CURVE SMOOTH",
"391 445 OFFCURVE",
"292 386 OFFCURVE",
"195 309 CURVE SMOOTH",
"71 211 OFFCURVE",
"10 121 OFFCURVE",
"10 38 CURVE SMOOTH",
"10 5 OFFCURVE",
"23 -20 OFFCURVE",
"50 -36 CURVE",
"47 -48 OFFCURVE",
"45 -61 OFFCURVE",
"45 -72 CURVE SMOOTH",
"45 -90 OFFCURVE",
"48 -99 OFFCURVE",
"54 -99 CURVE SMOOTH",
"61 -99 OFFCURVE",
"67 -92 OFFCURVE",
"69 -78 CURVE SMOOTH",
"70 -67 OFFCURVE",
"72 -58 OFFCURVE",
"73 -48 CURVE",
"94 -55 OFFCURVE",
"118 -59 OFFCURVE",
"145 -59 CURVE SMOOTH",
"181 -59 OFFCURVE",
"219 -53 OFFCURVE",
"259 -42 CURVE SMOOTH",
"312 -28 OFFCURVE",
"358 -6 OFFCURVE",
"398 23 CURVE SMOOTH",
"451 60 OFFCURVE",
"478 100 OFFCURVE",
"478 143 CURVE SMOOTH",
"478 193 OFFCURVE",
"447 218 OFFCURVE",
"388 218 CURVE SMOOTH",
"328 218 OFFCURVE",
"266 195 OFFCURVE",
"201 149 CURVE SMOOTH",
"142 106 OFFCURVE",
"96 58 OFFCURVE",
"66 2 CURVE",
"61 12 OFFCURVE",
"59 25 OFFCURVE",
"59 38 CURVE SMOOTH",
"59 109 OFFCURVE",
"100 183 OFFCURVE",
"181 261 CURVE SMOOTH",
"238 316 OFFCURVE",
"310 369 OFFCURVE",
"396 416 CURVE SMOOTH",
"441 441 OFFCURVE",
"475 457 OFFCURVE",
"499 467 CURVE SMOOTH",
"509 472 OFFCURVE",
"515 477 OFFCURVE",
"515 482 CURVE SMOOTH"
);
},
{
closed = 1;
nodes = (
"431 108 OFFCURVE",
"409 73 OFFCURVE",
"363 38 CURVE SMOOTH",
"328 10 OFFCURVE",
"289 -10 OFFCURVE",
"246 -25 CURVE SMOOTH",
"212 -36 OFFCURVE",
"181 -42 OFFCURVE",
"152 -42 CURVE SMOOTH",
"123 -42 OFFCURVE",
"99 -35 OFFCURVE",
"83 -21 CURVE",
"105 32 OFFCURVE",
"143 81 OFFCURVE",
"199 124 CURVE SMOOTH",
"257 168 OFFCURVE",
"313 191 OFFCURVE",
"368 191 CURVE SMOOTH",
"410 191 OFFCURVE",
"431 175 OFFCURVE",
"431 143 CURVE SMOOTH"
);
}
);
width = 516;
}
);
note = six;
unicode = 0036;
},
{
glyphname = seven;
lastChange = "2021-03-29 15:46:53 +0000";
layers = (
{
hints = (
{
horizontal = 1;
place = "{454, 15}";
type = Stem;
},
{
place = "{11, 13}";
type = Stem;
},
{
place = "{55, 44}";
type = Stem;
}
);
layerId = "89156F97-8AE0-4F29-8E8C-D321EE696556";
paths = (
{
closed = 1;
nodes = (
"515 498 LINE",
"496 479 OFFCURVE",
"469 469 OFFCURVE",
"435 469 CURVE SMOOTH",
"409 469 OFFCURVE",
"367 476 OFFCURVE",
"311 489 CURVE SMOOTH",
"255 502 OFFCURVE",
"211 508 OFFCURVE",
"181 508 CURVE SMOOTH",
"142 508 OFFCURVE",
"106 501 OFFCURVE",
"74 485 CURVE SMOOTH",
"32 466 OFFCURVE",
"11 439 OFFCURVE",
"11 405 CURVE SMOOTH",
"11 375 OFFCURVE",
"26 352 OFFCURVE",
"54 335 CURVE SMOOTH",
"79 320 OFFCURVE",
"105 313 OFFCURVE",
"137 313 CURVE SMOOTH",
"143 313 OFFCURVE",
"146 314 OFFCURVE",
"146 317 CURVE SMOOTH",
"146 318 OFFCURVE",
"144 320 OFFCURVE",
"141 320 CURVE SMOOTH",
"126 322 OFFCURVE",
"114 323 OFFCURVE",
"104 326 CURVE SMOOTH",
"86 332 OFFCURVE",
"68 340 OFFCURVE",
"53 352 CURVE SMOOTH",
"34 366 OFFCURVE",
"25 380 OFFCURVE",
"25 396 CURVE SMOOTH",
"25 420 OFFCURVE",
"48 439 OFFCURVE",
"95 453 CURVE SMOOTH",
"110 458 OFFCURVE",
"136 460 OFFCURVE",
"171 460 CURVE SMOOTH",
"197 460 OFFCURVE",
"235 459 OFFCURVE",
"286 456 CURVE SMOOTH",
"337 453 OFFCURVE",
"375 452 OFFCURVE",
"401 452 CURVE SMOOTH",
"424 452 OFFCURVE",
"444 453 OFFCURVE",
"460 454 CURVE",
"351 377 OFFCURVE",
"267 310 OFFCURVE",
"209 254 CURVE SMOOTH",
"106 154 OFFCURVE",
"55 67 OFFCURVE",
"55 -7 CURVE SMOOTH",
"55 -39 OFFCURVE",
"67 -55 OFFCURVE",
"92 -55 CURVE SMOOTH",
"97 -55 OFFCURVE",
"104 -53 OFFCURVE",
"113 -50 CURVE SMOOTH",
"122 -48 OFFCURVE",
"126 -45 OFFCURVE",
"126 -42 CURVE SMOOTH",
"126 -35 OFFCURVE",
"123 -31 OFFCURVE",
"114 -31 CURVE SMOOTH",
"112 -31 OFFCURVE",
"110 -32 OFFCURVE",
"108 -32 CURVE",
"106 -34 OFFCURVE",
"105 -34 OFFCURVE",
"105 -34 CURVE SMOOTH",
"101 -34 OFFCURVE",
"99 -28 OFFCURVE",
"99 -15 CURVE SMOOTH",
"99 58 OFFCURVE",
"154 150 OFFCURVE",
"264 263 CURVE SMOOTH",
"351 352 OFFCURVE",
"438 424 OFFCURVE",
"528 482 CURVE"
);
}
);
width = 385;
}
);
note = seven;
unicode = 0037;
},
{
glyphname = eight;
lastChange = "2021-03-29 15:46:53 +0000";
layers = (
{
hints = (
{
horizontal = 1;
place = "{-18, 23}";
type = Stem;
},
{
horizontal = 1;
place = "{500, 26}";
type = Stem;
},
{
place = "{44, 33}";
type = Stem;
},
{
place = "{174, 29}";
type = Stem;
},
{
place = "{285, 48}";
type = Stem;
},
{
place = "{391, 17}";
type = Stem;
}
);
layerId = "89156F97-8AE0-4F29-8E8C-D321EE696556";
paths = (
{
closed = 1;
nodes = (
"450 466 OFFCURVE",
"448 468 OFFCURVE",
"445 473 CURVE SMOOTH",
"437 483 OFFCURVE",
"433 487 OFFCURVE",
"432 488 CURVE SMOOTH",
"407 513 OFFCURVE",
"369 525 OFFCURVE",
"319 525 CURVE SMOOTH",
"276 525 OFFCURVE",
"241 515 OFFCURVE",
"216 495 CURVE SMOOTH",
"188 473 OFFCURVE",
"174 441 OFFCURVE",
"174 398 CURVE SMOOTH",
"174 356 OFFCURVE",
"186 317 OFFCURVE",
"211 282 CURVE",
"100 207 OFFCURVE",
"44 143 OFFCURVE",
"44 86 CURVE SMOOTH",
"44 53 OFFCURVE",
"56 27 OFFCURVE",
"81 8 CURVE SMOOTH",
"103 -10 OFFCURVE",
"131 -18 OFFCURVE",
"166 -18 CURVE SMOOTH",
"210 -18 OFFCURVE",
"248 -4 OFFCURVE",
"280 23 CURVE SMOOTH",
"315 51 OFFCURVE",
"333 86 OFFCURVE",
"333 129 CURVE SMOOTH",
"333 180 OFFCURVE",
"307 233 OFFCURVE",
"255 288 CURVE",
"271 304 OFFCURVE",
"285 315 OFFCURVE",
"295 324 CURVE SMOOTH",
"371 393 OFFCURVE",
"409 453 OFFCURVE",
"409 504 CURVE SMOOTH",
"409 536 OFFCURVE",
"393 564 OFFCURVE",
"363 589 CURVE SMOOTH",
"360 591 OFFCURVE",
"358 592 OFFCURVE",
"356 592 CURVE SMOOTH",
"352 592 OFFCURVE",
"350 588 OFFCURVE",
"351 580 CURVE",
"378 563 OFFCURVE",
"391 539 OFFCURVE",
"391 507 CURVE SMOOTH",
"391 476 OFFCURVE",
"379 443 OFFCURVE",
"355 409 CURVE SMOOTH",
"343 391 OFFCURVE",
"325 372 OFFCURVE",
"302 353 CURVE SMOOTH",
"282 336 OFFCURVE",
"261 320 OFFCURVE",
"241 304 CURVE",
"216 345 OFFCURVE",
"203 384 OFFCURVE",
"203 421 CURVE SMOOTH",
"203 473 OFFCURVE",
"238 500 OFFCURVE",
"309 500 CURVE SMOOTH",
"332 500 OFFCURVE",
"355 496 OFFCURVE",
"381 490 CURVE SMOOTH",
"410 483 OFFCURVE",
"432 473 OFFCURVE",
"447 461 CURVE",
"449 464 OFFCURVE",
"450 466 OFFCURVE",
"450 466 CURVE"
);
},
{
closed = 1;
nodes = (
"285 83 OFFCURVE",
"274 56 OFFCURVE",
"251 35 CURVE SMOOTH",
"228 15 OFFCURVE",
"200 5 OFFCURVE",
"167 5 CURVE SMOOTH",
"142 5 OFFCURVE",
"122 12 OFFCURVE",
"105 26 CURVE SMOOTH",
"86 41 OFFCURVE",
"77 60 OFFCURVE",
"77 85 CURVE SMOOTH",
"77 116 OFFCURVE",
"94 151 OFFCURVE",
"128 188 CURVE SMOOTH",
"156 219 OFFCURVE",
"187 243 OFFCURVE",
"222 263 CURVE",
"264 208 OFFCURVE",
"285 159 OFFCURVE",
"285 115 CURVE SMOOTH"
);
}
);
width = 394;
}
);
note = eight;
unicode = 0038;
},
{
glyphname = nine;
lastChange = "2021-03-29 15:46:53 +0000";
layers = (
{
hints = (
{
horizontal = 1;
place = "{148, 12}";
type = Stem;
},
{
horizontal = 1;
place = "{506, -20}";
target = down;
type = TopGhost;
},
{
place = "{28, 49}";
type = Stem;
},
{
place = "{162, 24}";
type = Stem;
},
{
place = "{528, 30}";
type = Stem;
}
);
layerId = "89156F97-8AE0-4F29-8E8C-D321EE696556";
paths = (
{
closed = 1;
nodes = (
"559 473 OFFCURVE",
"540 486 OFFCURVE",
"503 496 CURVE SMOOTH",
"477 503 OFFCURVE",
"449 506 OFFCURVE",
"420 506 CURVE SMOOTH",
"360 506 OFFCURVE",
"302 496 OFFCURVE",
"247 475 CURVE SMOOTH",
"201 458 OFFCURVE",
"155 427 OFFCURVE",
"107 381 CURVE SMOOTH",
"54 330 OFFCURVE",
"28 282 OFFCURVE",
"28 240 CURVE SMOOTH",
"28 212 OFFCURVE",
"39 189 OFFCURVE",
"63 172 CURVE SMOOTH",
"84 157 OFFCURVE",
"109 148 OFFCURVE",
"139 148 CURVE SMOOTH",
"188 148 OFFCURVE",
"255 187 OFFCURVE",
"339 264 CURVE",
"220 104 OFFCURVE",
"162 -10 OFFCURVE",
"162 -78 CURVE SMOOTH",
"162 -93 OFFCURVE",
"165 -106 OFFCURVE",
"172 -119 CURVE SMOOTH",
"181 -133 OFFCURVE",
"192 -140 OFFCURVE",
"206 -140 CURVE SMOOTH",
"209 -140 OFFCURVE",
"211 -139 OFFCURVE",
"211 -138 CURVE",
"211 -138 OFFCURVE",
"206 -133 OFFCURVE",
"197 -124 CURVE SMOOTH",
"189 -118 OFFCURVE",
"185 -105 OFFCURVE",
"185 -88 CURVE SMOOTH",
"185 -53 OFFCURVE",
"211 5 OFFCURVE",
"262 86 CURVE SMOOTH",
"292 132 OFFCURVE",
"338 199 OFFCURVE",
"404 287 CURVE SMOOTH",
"455 356 OFFCURVE",
"481 394 OFFCURVE",
"481 401 CURVE SMOOTH",
"481 410 OFFCURVE",
"475 415 OFFCURVE",
"464 415 CURVE SMOOTH",
"453 415 OFFCURVE",
"440 407 OFFCURVE",
"425 388 CURVE SMOOTH",
"413 374 OFFCURVE",
"404 359 OFFCURVE",
"392 346 CURVE SMOOTH",
"355 303 OFFCURVE",
"316 265 OFFCURVE",
"276 232 CURVE SMOOTH",
"218 184 OFFCURVE",
"171 161 OFFCURVE",
"138 161 CURVE SMOOTH",
"97 161 OFFCURVE",
"77 183 OFFCURVE",
"77 229 CURVE SMOOTH",
"77 276 OFFCURVE",
"96 322 OFFCURVE",
"133 370 CURVE SMOOTH",
"167 413 OFFCURVE",
"207 444 OFFCURVE",
"253 463 CURVE SMOOTH",
"293 479 OFFCURVE",
"336 487 OFFCURVE",
"384 487 CURVE SMOOTH",
"414 487 OFFCURVE",
"443 484 OFFCURVE",
"469 477 CURVE SMOOTH",
"508 467 OFFCURVE",
"528 453 OFFCURVE",
"528 433 CURVE SMOOTH",
"528 426 OFFCURVE",
"526 419 OFFCURVE",
"522 412 CURVE SMOOTH",
"517 406 OFFCURVE",
"515 402 OFFCURVE",
"515 401 CURVE SMOOTH",
"515 399 OFFCURVE",
"516 398 OFFCURVE",
"518 398 CURVE SMOOTH",
"523 398 OFFCURVE",
"532 406 OFFCURVE",
"542 421 CURVE SMOOTH",
"553 436 OFFCURVE",
"559 447 OFFCURVE",
"559 453 CURVE SMOOTH"
);
}
);
width = 509;
}
);
note = nine;
unicode = 0039;
},
{
glyphname = colon;
lastChange = "2021-03-29 15:46:53 +0000";
layers = (
{
hints = (
{
horizontal = 1;
place = "{-14, 21}";
target = up;
type = BottomGhost;
},
{
place = "{40, 131}";
type = Stem;
}
);
layerId = "89156F97-8AE0-4F29-8E8C-D321EE696556";
paths = (
{
closed = 1;
nodes = (
"171 215 OFFCURVE",
"169 218 OFFCURVE",
"166 218 CURVE SMOOTH",
"160 218 OFFCURVE",
"147 207 OFFCURVE",
"129 187 CURVE",
"118 182 OFFCURVE",
"112 175 OFFCURVE",
"112 163 CURVE SMOOTH",
"112 159 OFFCURVE",
"114 152 OFFCURVE",
"119 144 CURVE SMOOTH",
"124 138 OFFCURVE",
"127 134 OFFCURVE",
"132 134 CURVE SMOOTH",
"144 134 OFFCURVE",
"154 144 OFFCURVE",
"161 165 CURVE SMOOTH",
"167 189 OFFCURVE",
"171 204 OFFCURVE",
"171 209 CURVE SMOOTH"
);
},
{
closed = 1;
nodes = (
"115 67 LINE",
"115 67 LINE",
"114 68 OFFCURVE",
"114 68 OFFCURVE",
"113 68 CURVE SMOOTH",
"108 68 OFFCURVE",
"98 65 OFFCURVE",
"84 57 CURVE SMOOTH",
"69 49 OFFCURVE",
"61 44 OFFCURVE",
"57 39 CURVE",
"46 34 OFFCURVE",
"40 27 OFFCURVE",
"40 15 CURVE SMOOTH",
"40 10 OFFCURVE",
"42 4 OFFCURVE",
"47 -4 CURVE SMOOTH",
"50 -10 OFFCURVE",
"55 -14 OFFCURVE",
"60 -14 CURVE SMOOTH",
"72 -14 OFFCURVE",
"83 -4 OFFCURVE",
"88 17 CURVE SMOOTH",
"92 31 OFFCURVE",
"97 42 OFFCURVE",
"102 49 CURVE",
"102 50 OFFCURVE",
"105 53 OFFCURVE",
"109 58 CURVE SMOOTH",
"113 63 OFFCURVE",
"116 66 OFFCURVE",
"116 67 CURVE"
);
}
);
width = 144;
}
);
note = colon;
unicode = 003A;
},
{
glyphname = semicolon;
lastChange = "2021-03-29 15:46:53 +0000";
layers = (
{
hints = (
{
horizontal = 1;
place = "{-139, 356}";
type = Stem;
},
{
place = "{67, 46}";
type = Stem;
}
);
layerId = "89156F97-8AE0-4F29-8E8C-D321EE696556";
paths = (
{
closed = 1;
nodes = (
"171 215 OFFCURVE",
"169 218 OFFCURVE",
"166 218 CURVE SMOOTH",
"160 218 OFFCURVE",
"147 207 OFFCURVE",
"129 187 CURVE",
"118 182 OFFCURVE",
"112 175 OFFCURVE",
"112 163 CURVE SMOOTH",
"112 159 OFFCURVE",
"114 152 OFFCURVE",
"119 144 CURVE SMOOTH",
"124 138 OFFCURVE",
"127 134 OFFCURVE",
"132 134 CURVE SMOOTH",
"144 134 OFFCURVE",
"154 144 OFFCURVE",
"161 165 CURVE SMOOTH",
"167 189 OFFCURVE",
"171 204 OFFCURVE",
"171 209 CURVE SMOOTH"
);
},
{
closed = 1;
nodes = (
"112 22 OFFCURVE",
"111 27 OFFCURVE",
"109 31 CURVE",
"109 30 LINE",
"101 43 OFFCURVE",
"92 48 OFFCURVE",
"86 48 CURVE SMOOTH",
"81 48 OFFCURVE",
"77 45 OFFCURVE",
"72 37 CURVE SMOOTH",
"68 30 OFFCURVE",
"67 24 OFFCURVE",
"67 19 CURVE SMOOTH",
"67 16 OFFCURVE",
"67 11 OFFCURVE",
"69 5 CURVE SMOOTH",
"71 -1 OFFCURVE",
"72 -6 OFFCURVE",
"72 -9 CURVE SMOOTH",
"72 -31 OFFCURVE",
"63 -59 OFFCURVE",
"45 -91 CURVE SMOOTH",
"27 -124 OFFCURVE",
"17 -139 OFFCURVE",
"17 -138 CURVE",
"17 -139 OFFCURVE",
"17 -139 OFFCURVE",
"18 -139 CURVE SMOOTH",
"23 -139 OFFCURVE",
"34 -126 OFFCURVE",
"52 -103 CURVE SMOOTH",
"67 -85 OFFCURVE",
"77 -69 OFFCURVE",
"84 -58 CURVE SMOOTH",
"103 -27 OFFCURVE",
"112 -2 OFFCURVE",
"112 16 CURVE SMOOTH"
);
}
);
width = 144;
}
);
note = semicolon;
unicode = 003B;
},
{
glyphname = less;
lastChange = "2021-03-29 15:46:53 +0000";
layers = (
{
hints = (
{
horizontal = 1;
place = "{129, 291}";
type = Stem;
},
{
place = "{81, 137}";
type = Stem;
}
);
layerId = "89156F97-8AE0-4F29-8E8C-D321EE696556";
paths = (
{
closed = 1;
nodes = (
"218 418 OFFCURVE",
"216 420 OFFCURVE",
"211 420 CURVE SMOOTH",
"204 420 OFFCURVE",
"199 416 OFFCURVE",
"193 409 CURVE SMOOTH",
"181 394 OFFCURVE",
"159 366 OFFCURVE",
"130 325 CURVE SMOOTH",
"97 277 OFFCURVE",
"81 250 OFFCURVE",
"81 243 CURVE SMOOTH",
"81 240 OFFCURVE",
"82 238 OFFCURVE",
"84 238 CURVE",
"104 221 OFFCURVE",
"124 205 OFFCURVE",
"144 189 CURVE SMOOTH",
"166 171 OFFCURVE",
"184 152 OFFCURVE",
"199 133 CURVE",
"206 129 LINE",
"213 128 OFFCURVE",
"216 133 OFFCURVE",
"216 142 CURVE SMOOTH",
"216 148 OFFCURVE",
"185 191 OFFCURVE",
"124 269 CURVE",
"186 356 OFFCURVE",
"218 405 OFFCURVE",
"218 414 CURVE SMOOTH"
);
}
);
width = 302;
}
);
note = less;
unicode = 003C;
},
{
glyphname = equal;
lastChange = "2021-03-29 15:46:53 +0000";
layers = (
{
hints = (
{
horizontal = 1;
place = "{67, 25}";
type = Stem;
},
{
horizontal = 1;
place = "{163, 25}";
type = Stem;
}
);
layerId = "89156F97-8AE0-4F29-8E8C-D321EE696556";
paths = (
{
closed = 1;
nodes = (
"285 176 OFFCURVE",
"284 177 OFFCURVE",
"282 178 CURVE SMOOTH",
"266 184 OFFCURVE",
"224 188 OFFCURVE",
"157 188 CURVE SMOOTH",
"100 188 OFFCURVE",
"66 186 OFFCURVE",
"53 182 CURVE",
"52 181 LINE",
"53 178 OFFCURVE",
"56 173 OFFCURVE",
"61 167 CURVE SMOOTH",
"66 162 OFFCURVE",
"68 159 OFFCURVE",
"71 159 CURVE SMOOTH",
"95 159 OFFCURVE",
"129 161 OFFCURVE",
"176 164 CURVE SMOOTH",
"221 167 OFFCURVE",
"256 169 OFFCURVE",
"279 169 CURVE SMOOTH",
"283 169 OFFCURVE",
"285 171 OFFCURVE",
"285 175 CURVE SMOOTH"
);
},
{
closed = 1;
nodes = (
"285 78 OFFCURVE",
"284 79 OFFCURVE",
"282 80 CURVE SMOOTH",
"266 87 OFFCURVE",
"224 91 OFFCURVE",
"157 91 CURVE SMOOTH",
"100 91 OFFCURVE",
"66 89 OFFCURVE",
"53 85 CURVE",
"52 83 LINE",
"53 80 OFFCURVE",
"56 75 OFFCURVE",
"61 69 CURVE SMOOTH",
"66 64 OFFCURVE",
"68 61 OFFCURVE",
"71 61 CURVE SMOOTH",
"95 61 OFFCURVE",
"129 63 OFFCURVE",
"176 67 CURVE SMOOTH",
"221 70 OFFCURVE",
"256 72 OFFCURVE",
"279 72 CURVE SMOOTH",
"283 72 OFFCURVE",
"285 74 OFFCURVE",
"285 77 CURVE SMOOTH"
);
}
);
width = 331;
}
);
note = equal;
unicode = 003D;
},
{
glyphname = greater;
lastChange = "2021-03-29 15:46:53 +0000";
layers = (
{
hints = (
{
horizontal = 1;
place = "{123, 291}";
type = Stem;
},
{
place = "{81, 137}";
type = Stem;
}
);
layerId = "89156F97-8AE0-4F29-8E8C-D321EE696556";
paths = (
{
closed = 1;
nodes = (
"218 302 OFFCURVE",
"217 304 OFFCURVE",
"215 305 CURVE",
"195 321 OFFCURVE",
"174 337 OFFCURVE",
"152 355 CURVE SMOOTH",
"131 372 OFFCURVE",
"114 390 OFFCURVE",
"100 409 CURVE",
"92 413 LINE",
"86 414 OFFCURVE",
"82 409 OFFCURVE",
"82 401 CURVE SMOOTH",
"82 394 OFFCURVE",
"113 352 OFFCURVE",
"175 274 CURVE",
"112 186 OFFCURVE",
"81 138 OFFCURVE",
"81 128 CURVE SMOOTH",
"81 124 OFFCURVE",
"83 123 OFFCURVE",
"86 123 CURVE SMOOTH",
"93 123 OFFCURVE",
"99 126 OFFCURVE",
"105 133 CURVE SMOOTH",
"118 148 OFFCURVE",
"139 177 OFFCURVE",
"167 218 CURVE SMOOTH",
"200 265 OFFCURVE",
"218 293 OFFCURVE",
"218 299 CURVE SMOOTH"
);
}
);
width = 302;
}
);
note = greater;
unicode = 003E;
},
{
glyphname = question;
lastChange = "2021-03-29 15:46:53 +0000";
layers = (
{
hints = (
{
horizontal = 1;
place = "{471, -20}";
target = down;
type = TopGhost;
},
{
horizontal = 1;
place = "{679, 10}";
type = Stem;
},
{
place = "{86, 17}";
type = Stem;
},
{
place = "{468, 17}";
type = Stem;
}
);
layerId = "89156F97-8AE0-4F29-8E8C-D321EE696556";
paths = (
{
closed = 1;
nodes = (
"485 596 OFFCURVE",
"468 629 OFFCURVE",
"436 654 CURVE SMOOTH",
"406 676 OFFCURVE",
"370 689 OFFCURVE",
"327 689 CURVE SMOOTH",
"278 689 OFFCURVE",
"230 675 OFFCURVE",
"181 647 CURVE SMOOTH",
"130 618 OFFCURVE",
"96 581 OFFCURVE",
"79 539 CURVE SMOOTH",
"71 521 OFFCURVE",
"67 506 OFFCURVE",
"67 494 CURVE SMOOTH",
"67 466 OFFCURVE",
"86 452 OFFCURVE",
"122 452 CURVE SMOOTH",
"140 452 OFFCURVE",
"162 456 OFFCURVE",
"189 465 CURVE SMOOTH",
"219 473 OFFCURVE",
"238 484 OFFCURVE",
"250 494 CURVE SMOOTH",
"251 495 OFFCURVE",
"252 497 OFFCURVE",
"252 499 CURVE SMOOTH",
"252 502 OFFCURVE",
"251 504 OFFCURVE",
"250 504 CURVE",
"250 504 OFFCURVE",
"242 500 OFFCURVE",
"228 494 CURVE SMOOTH",
"191 479 OFFCURVE",
"162 471 OFFCURVE",
"140 471 CURVE SMOOTH",
"115 471 OFFCURVE",
"103 482 OFFCURVE",
"103 502 CURVE SMOOTH",
"103 511 OFFCURVE",
"105 523 OFFCURVE",
"112 540 CURVE SMOOTH",
"129 582 OFFCURVE",
"158 616 OFFCURVE",
"198 641 CURVE SMOOTH",
"237 667 OFFCURVE",
"280 679 OFFCURVE",
"327 679 CURVE SMOOTH",
"364 679 OFFCURVE",
"395 671 OFFCURVE",
"422 654 CURVE SMOOTH",
"453 634 OFFCURVE",
"468 606 OFFCURVE",
"468 571 CURVE SMOOTH",
"468 518 OFFCURVE",
"432 467 OFFCURVE",
"359 421 CURVE SMOOTH",
"326 400 OFFCURVE",
"292 379 OFFCURVE",
"258 357 CURVE SMOOTH",
"208 325 OFFCURVE",
"170 295 OFFCURVE",
"143 270 CURVE SMOOTH",
"105 235 OFFCURVE",
"86 204 OFFCURVE",
"86 179 CURVE SMOOTH",
"86 162 OFFCURVE",
"93 149 OFFCURVE",
"107 138 CURVE SMOOTH",
"108 137 OFFCURVE",
"109 137 OFFCURVE",
"109 137 CURVE",
"117 137 OFFCURVE",
"121 141 OFFCURVE",
"121 147 CURVE",
"121 147 OFFCURVE",
"118 151 OFFCURVE",
"112 158 CURVE SMOOTH",
"106 164 OFFCURVE",
"104 172 OFFCURVE",
"104 181 CURVE SMOOTH",
"104 220 OFFCURVE",
"170 276 OFFCURVE",
"304 350 CURVE SMOOTH",
"335 367 OFFCURVE",
"358 379 OFFCURVE",
"374 388 CURVE",
"448 435 OFFCURVE",
"485 490 OFFCURVE",
"485 554 CURVE SMOOTH"
);
},
{
closed = 1;
nodes = (
"115 67 LINE",
"115 67 LINE",
"114 68 OFFCURVE",
"114 68 OFFCURVE",
"113 68 CURVE SMOOTH",
"108 68 OFFCURVE",
"98 65 OFFCURVE",
"84 57 CURVE SMOOTH",
"69 49 OFFCURVE",
"61 44 OFFCURVE",
"57 39 CURVE",
"46 34 OFFCURVE",
"40 27 OFFCURVE",
"40 15 CURVE SMOOTH",
"40 10 OFFCURVE",
"42 4 OFFCURVE",
"47 -4 CURVE SMOOTH",
"50 -10 OFFCURVE",
"55 -14 OFFCURVE",
"60 -14 CURVE SMOOTH",
"72 -14 OFFCURVE",
"83 -4 OFFCURVE",
"88 17 CURVE SMOOTH",
"92 31 OFFCURVE",
"97 42 OFFCURVE",
"102 49 CURVE",
"102 50 OFFCURVE",
"105 53 OFFCURVE",
"109 58 CURVE SMOOTH",
"113 63 OFFCURVE",
"116 66 OFFCURVE",
"116 67 CURVE"
);
}
);
width = 502;
}
);
note = question;
unicode = 003F;
},
{
glyphname = at;
lastChange = "2021-03-29 15:46:53 +0000";
layers = (
{
hints = (
{
horizontal = 1;
place = "{27, 14}";
type = Stem;
},
{
horizontal = 1;
place = "{103, 19}";
type = Stem;
},
{
horizontal = 1;
place = "{131, 39}";
type = Stem;
},
{
horizontal = 1;
place = "{505, 22}";
type = Stem;
},
{
horizontal = 1;
place = "{583, 29}";
type = Stem;
},
{
place = "{49, 23}";
type = Stem;
},
{
place = "{174, 28}";
type = Stem;
},
{
place = "{371, 49}";
type = Stem;
},
{
place = "{488, 38}";
type = Stem;
},
{
place = "{662, 22}";
type = Stem;
}
);
layerId = "89156F97-8AE0-4F29-8E8C-D321EE696556";
paths = (
{
closed = 1;
nodes = (
"728 330 OFFCURVE",
"713 367 OFFCURVE",
"682 399 CURVE",
"683 409 OFFCURVE",
"684 418 OFFCURVE",
"684 427 CURVE SMOOTH",
"684 486 OFFCURVE",
"664 532 OFFCURVE",
"626 565 CURVE SMOOTH",
"590 597 OFFCURVE",
"542 613 OFFCURVE",
"482 613 CURVE SMOOTH",
"380 613 OFFCURVE",
"284 579 OFFCURVE",
"194 509 CURVE SMOOTH",
"97 435 OFFCURVE",
"49 349 OFFCURVE",
"49 251 CURVE SMOOTH",
"49 213 OFFCURVE",
"57 177 OFFCURVE",
"72 142 CURVE SMOOTH",
"89 103 OFFCURVE",
"122 73 OFFCURVE",
"170 52 CURVE SMOOTH",
"210 35 OFFCURVE",
"255 27 OFFCURVE",
"303 27 CURVE SMOOTH",
"370 27 OFFCURVE",
"439 42 OFFCURVE",
"511 71 CURVE SMOOTH",
"587 103 OFFCURVE",
"645 143 OFFCURVE",
"685 191 CURVE SMOOTH",
"713 225 OFFCURVE",
"728 257 OFFCURVE",
"728 288 CURVE SMOOTH"
);
},
{
closed = 1;
nodes = (
"682 281 OFFCURVE",
"680 269 OFFCURVE",
"676 257 CURVE SMOOTH",
"654 192 OFFCURVE",
"602 138 OFFCURVE",
"523 97 CURVE SMOOTH",
"452 60 OFFCURVE",
"378 41 OFFCURVE",
"303 41 CURVE SMOOTH",
"238 41 OFFCURVE",
"184 55 OFFCURVE",
"143 84 CURVE SMOOTH",
"96 117 OFFCURVE",
"72 164 OFFCURVE",
"72 227 CURVE SMOOTH",
"72 317 OFFCURVE",
"123 400 OFFCURVE",
"223 476 CURVE SMOOTH",
"317 547 OFFCURVE",
"411 583 OFFCURVE",
"505 583 CURVE SMOOTH",
"591 583 OFFCURVE",
"642 548 OFFCURVE",
"659 479 CURVE SMOOTH",
"661 470 OFFCURVE",
"662 461 OFFCURVE",
"662 452 CURVE SMOOTH",
"662 442 OFFCURVE",
"661 431 OFFCURVE",
"658 420 CURVE",
"637 434 OFFCURVE",
"618 441 OFFCURVE",
"599 441 CURVE SMOOTH",
"588 441 OFFCURVE",
"583 438 OFFCURVE",
"583 433 CURVE SMOOTH",
"583 432 OFFCURVE",
"584 432 OFFCURVE",
"585 431 CURVE",
"613 419 OFFCURVE",
"634 403 OFFCURVE",
"650 383 CURVE",
"642 354 OFFCURVE",
"631 324 OFFCURVE",
"615 292 CURVE SMOOTH",
"598 257 OFFCURVE",
"576 222 OFFCURVE",
"550 190 CURVE SMOOTH",
"514 144 OFFCURVE",
"484 122 OFFCURVE",
"459 122 CURVE SMOOTH",
"433 122 OFFCURVE",
"421 148 OFFCURVE",
"421 200 CURVE SMOOTH",
"421 264 OFFCURVE",
"432 325 OFFCURVE",
"456 383 CURVE",
"503 417 OFFCURVE",
"526 451 OFFCURVE",
"526 486 CURVE SMOOTH",
"526 514 OFFCURVE",
"510 527 OFFCURVE",
"478 527 CURVE SMOOTH",
"452 527 OFFCURVE",
"423 520 OFFCURVE",
"389 504 CURVE SMOOTH",
"335 479 OFFCURVE",
"287 436 OFFCURVE",
"243 375 CURVE SMOOTH",
"198 312 OFFCURVE",
"174 253 OFFCURVE",
"174 197 CURVE SMOOTH",
"174 153 OFFCURVE",
"191 131 OFFCURVE",
"224 131 CURVE SMOOTH",
"278 131 OFFCURVE",
"332 189 OFFCURVE",
"384 304 CURVE",
"375 268 OFFCURVE",
"371 238 OFFCURVE",
"371 213 CURVE SMOOTH",
"371 200 OFFCURVE",
"372 189 OFFCURVE",
"374 180 CURVE SMOOTH",
"378 160 OFFCURVE",
"388 143 OFFCURVE",
"402 126 CURVE SMOOTH",
"416 110 OFFCURVE",
"433 103 OFFCURVE",
"451 103 CURVE SMOOTH",
"492 103 OFFCURVE",
"536 136 OFFCURVE",
"583 203 CURVE SMOOTH",
"621 257 OFFCURVE",
"649 310 OFFCURVE",
"665 360 CURVE",
"676 338 OFFCURVE",
"682 316 OFFCURVE",
"682 294 CURVE SMOOTH"
);
},
{
closed = 1;
nodes = (
"488 460 OFFCURVE",
"482 443 OFFCURVE",
"469 425 CURVE",
"474 436 OFFCURVE",
"476 445 OFFCURVE",
"476 451 CURVE SMOOTH",
"476 459 OFFCURVE",
"473 463 OFFCURVE",
"467 463 CURVE SMOOTH",
"454 463 OFFCURVE",
"440 451 OFFCURVE",
"424 428 CURVE SMOOTH",
"408 407 OFFCURVE",
"399 388 OFFCURVE",
"397 373 CURVE",
"380 364 OFFCURVE",
"368 356 OFFCURVE",
"359 352 CURVE",
"348 348 OFFCURVE",
"342 344 OFFCURVE",
"342 340 CURVE SMOOTH",
"342 337 OFFCURVE",
"344 335 OFFCURVE",
"348 335 CURVE SMOOTH",
"356 335 OFFCURVE",
"367 337 OFFCURVE",
"379 342 CURVE",
"362 301 OFFCURVE",
"343 266 OFFCURVE",
"321 237 CURVE SMOOTH",
"289 192 OFFCURVE",
"258 170 OFFCURVE",
"229 170 CURVE SMOOTH",
"211 170 OFFCURVE",
"201 180 OFFCURVE",
"201 198 CURVE SMOOTH",
"201 240 OFFCURVE",
"235 303 OFFCURVE",
"301 384 CURVE SMOOTH",
"368 465 OFFCURVE",
"422 505 OFFCURVE",
"464 505 CURVE SMOOTH",
"480 505 OFFCURVE",
"488 496 OFFCURVE",
"488 478 CURVE SMOOTH"
);
}
);
width = 755;
}
);
note = at;
unicode = 0040;
},
{
glyphname = A;
lastChange = "2021-03-29 15:53:29 +0000";
layers = (
{
hints = (
{
horizontal = 1;
place = "{-183, 13}";
type = Stem;
},
{
horizontal = 1;
place = "{-122, 10}";
type = Stem;
},
{
horizontal = 1;
place = "{139, 16}";
type = Stem;
},
{
horizontal = 1;
place = "{670, -20}";
target = down;
type = TopGhost;
},
{
place = "{-190, 10}";
type = Stem;
},
{
place = "{-64, 44}";
type = Stem;
},
{
place = "{494, 17}";
type = Stem;
}
);
layerId = "89156F97-8AE0-4F29-8E8C-D321EE696556";
paths = (
{
closed = 1;
nodes = (
"676 -84 OFFCURVE",
"643 -112 OFFCURVE",
"614 -112 CURVE SMOOTH",
"591 -112 OFFCURVE",
"571 -92 OFFCURVE",
"554 -53 CURVE SMOOTH",
"525 12 OFFCURVE",
"511 133 OFFCURVE",
"511 307 CURVE SMOOTH",
"511 321 OFFCURVE",
"511 342 OFFCURVE",
"511 370 CURVE SMOOTH",
"511 397 OFFCURVE",
"511 417 OFFCURVE",
"511 431 CURVE SMOOTH",
"511 452 OFFCURVE",
"511 464 OFFCURVE",
"511 466 CURVE SMOOTH",
"510 481 OFFCURVE",
"506 487 OFFCURVE",
"501 487 CURVE SMOOTH",
"497 487 OFFCURVE",
"495 482 OFFCURVE",
"494 469 CURVE SMOOTH",
"490 414 OFFCURVE",
"486 382 OFFCURVE",
"485 373 CURVE SMOOTH",
"468 230 OFFCURVE",
"461 141 OFFCURVE",
"461 106 CURVE SMOOTH",
"461 50 OFFCURVE",
"467 7 OFFCURVE",
"482 -25 CURVE SMOOTH",
"492 -48 OFFCURVE",
"510 -71 OFFCURVE",
"535 -91 CURVE SMOOTH",
"560 -111 OFFCURVE",
"584 -122 OFFCURVE",
"608 -122 CURVE SMOOTH",
"624 -122 OFFCURVE",
"639 -117 OFFCURVE",
"655 -108 CURVE SMOOTH",
"666 -102 OFFCURVE",
"678 -88 OFFCURVE",
"692 -70 CURVE SMOOTH",
"705 -52 OFFCURVE",
"712 -38 OFFCURVE",
"713 -26 CURVE"
);
},
{
closed = 1;
nodes = (
"502 611 OFFCURVE",
"495 631 OFFCURVE",
"482 647 CURVE SMOOTH",
"468 662 OFFCURVE",
"449 670 OFFCURVE",
"425 670 CURVE SMOOTH",
"418 670 OFFCURVE",
"414 668 OFFCURVE",
"414 664 CURVE SMOOTH",
"414 661 OFFCURVE",
"417 659 OFFCURVE",
"423 658 CURVE SMOOTH",
"450 654 OFFCURVE",
"464 637 OFFCURVE",
"464 606 CURVE SMOOTH",
"464 555 OFFCURVE",
"435 477 OFFCURVE",
"379 371 CURVE SMOOTH",
"335 290 OFFCURVE",
"290 214 OFFCURVE",
"239 144 CURVE",
"222 143 OFFCURVE",
"206 141 OFFCURVE",
"191 139 CURVE",
"238 204 OFFCURVE",
"287 282 OFFCURVE",
"334 373 CURVE SMOOTH",
"394 487 OFFCURVE",
"424 572 OFFCURVE",
"424 624 CURVE SMOOTH",
"424 625 OFFCURVE",
"424 625 OFFCURVE",
"423 626 CURVE",
"419 626 OFFCURVE",
"416 624 OFFCURVE",
"415 619 CURVE SMOOTH",
"397 560 OFFCURVE",
"386 523 OFFCURVE",
"381 511 CURVE SMOOTH",
"333 384 OFFCURVE",
"261 258 OFFCURVE",
"168 135 CURVE",
"116 125 OFFCURVE",
"69 110 OFFCURVE",
"27 88 CURVE SMOOTH",
"-33 58 OFFCURVE",
"-64 24 OFFCURVE",
"-64 -15 CURVE SMOOTH",
"-64 -36 OFFCURVE",
"-54 -56 OFFCURVE",
"-34 -75 CURVE",
"-62 -95 OFFCURVE",
"-92 -111 OFFCURVE",
"-127 -123 CURVE SMOOTH",
"-134 -124 OFFCURVE",
"-137 -127 OFFCURVE",
"-137 -131 CURVE SMOOTH",
"-137 -134 OFFCURVE",
"-135 -135 OFFCURVE",
"-130 -135 CURVE SMOOTH",
"-105 -135 OFFCURVE",
"-68 -119 OFFCURVE",
"-22 -86 CURVE",
"-13 -92 OFFCURVE",
"-3 -99 OFFCURVE",
"9 -105 CURVE",
"-48 -148 OFFCURVE",
"-99 -170 OFFCURVE",
"-143 -170 CURVE SMOOTH",
"-168 -170 OFFCURVE",
"-181 -161 OFFCURVE",
"-181 -143 CURVE SMOOTH",
"-181 -137 OFFCURVE",
"-180 -130 OFFCURVE",
"-178 -124 CURVE",
"-186 -130 OFFCURVE",
"-190 -140 OFFCURVE",
"-190 -154 CURVE SMOOTH",
"-190 -174 OFFCURVE",
"-175 -183 OFFCURVE",
"-144 -183 CURVE SMOOTH",
"-97 -183 OFFCURVE",
"-40 -160 OFFCURVE",
"26 -113 CURVE",
"65 -131 OFFCURVE",
"98 -140 OFFCURVE",
"124 -140 CURVE SMOOTH",
"131 -140 OFFCURVE",
"134 -138 OFFCURVE",
"134 -135 CURVE SMOOTH",
"134 -132 OFFCURVE",
"131 -130 OFFCURVE",
"125 -129 CURVE SMOOTH",
"84 -122 OFFCURVE",
"54 -114 OFFCURVE",
"36 -105 CURVE",
"111 -49 OFFCURVE",
"188 29 OFFCURVE",
"269 129 CURVE",
"298 133 OFFCURVE",
"336 136 OFFCURVE",
"384 139 CURVE SMOOTH",
"408 141 OFFCURVE",
"427 143 OFFCURVE",
"439 143 CURVE SMOOTH",
"451 144 OFFCURVE",
"457 148 OFFCURVE",
"457 154 CURVE SMOOTH",
"457 156 OFFCURVE",
"455 157 OFFCURVE",
"450 157 CURVE",
"455 157 OFFCURVE",
"438 157 OFFCURVE",
"398 155 CURVE SMOOTH",
"345 153 OFFCURVE",
"307 150 OFFCURVE",
"284 148 CURVE",
"336 217 OFFCURVE",
"383 287 OFFCURVE",
"423 359 CURVE SMOOTH",
"475 455 OFFCURVE",
"502 530 OFFCURVE",
"502 586 CURVE SMOOTH"
);
},
{
closed = 1;
nodes = (
"151 28 OFFCURVE",
"84 -46 OFFCURVE",
"20 -97 CURVE",
"10 -90 OFFCURVE",
"0 -83 OFFCURVE",
"-7 -74 CURVE",
"49 -30 OFFCURVE",
"108 30 OFFCURVE",
"168 108 CURVE",
"185 113 OFFCURVE",
"203 118 OFFCURVE",
"222 122 CURVE"
);
},
{
closed = 1;
nodes = (
"87 32 OFFCURVE",
"35 -21 OFFCURVE",
"-15 -61 CURVE",
"-18 -53 OFFCURVE",
"-20 -45 OFFCURVE",
"-20 -36 CURVE SMOOTH",
"-20 -7 OFFCURVE",
"0 22 OFFCURVE",
"40 49 CURVE SMOOTH",
"68 69 OFFCURVE",
"103 86 OFFCURVE",
"142 100 CURVE"
);
}
);
width = 624;
}
);
note = A;
unicode = 0041;
},
{
glyphname = B;
lastChange = "2021-03-29 15:46:53 +0000";
layers = (
{
hints = (
{
horizontal = 1;
place = "{-111, 22}";
type = Stem;
},
{
horizontal = 1;
place = "{-88, 20}";
type = Stem;
},
{
horizontal = 1;
place = "{-52, 12}";
type = Stem;
},
{
horizontal = 1;
place = "{558, 15}";
type = Stem;
},
{
horizontal = 1;
place = "{582, 29}";
type = Stem;
},
{
horizontal = 1;
place = "{687, -20}";
target = down;
type = TopGhost;
},
{
place = "{1, 17}";
type = Stem;
},
{
place = "{81, 47}";
type = Stem;
},
{
place = "{776, 37}";
type = Stem;
}
);
layerId = "89156F97-8AE0-4F29-8E8C-D321EE696556";
paths = (
{
closed = 1;
nodes = (
"823 550 OFFCURVE",
"815 570 OFFCURVE",
"799 586 CURVE SMOOTH",
"783 602 OFFCURVE",
"764 611 OFFCURVE",
"740 611 CURVE SMOOTH",
"699 611 OFFCURVE",
"659 593 OFFCURVE",
"622 558 CURVE",
"574 568 OFFCURVE",
"524 576 OFFCURVE",
"475 573 CURVE SMOOTH",
"456 572 LINE",
"457 616 OFFCURVE",
"455 653 OFFCURVE",
"450 682 CURVE",
"449 685 OFFCURVE",
"448 687 OFFCURVE",
"447 687 CURVE SMOOTH",
"445 687 OFFCURVE",
"443 685 OFFCURVE",
"443 680 CURVE SMOOTH",
"443 674 OFFCURVE",
"443 665 OFFCURVE",
"444 653 CURVE SMOOTH",
"445 640 OFFCURVE",
"445 632 OFFCURVE",
"445 625 CURVE SMOOTH",
"445 608 OFFCURVE",
"444 590 OFFCURVE",
"443 572 CURVE",
"294 566 OFFCURVE",
"185 527 OFFCURVE",
"116 456 CURVE SMOOTH",
"92 432 OFFCURVE",
"81 406 OFFCURVE",
"81 378 CURVE SMOOTH",
"81 339 OFFCURVE",
"100 305 OFFCURVE",
"137 274 CURVE SMOOTH",
"171 245 OFFCURVE",
"208 228 OFFCURVE",
"247 225 CURVE",
"250 224 LINE",
"255 224 OFFCURVE",
"257 226 OFFCURVE",
"257 229 CURVE SMOOTH",
"257 231 OFFCURVE",
"255 232 OFFCURVE",
"251 233 CURVE SMOOTH",
"233 237 OFFCURVE",
"219 241 OFFCURVE",
"211 245 CURVE SMOOTH",
"155 268 OFFCURVE",
"127 305 OFFCURVE",
"127 356 CURVE SMOOTH",
"127 388 OFFCURVE",
"140 416 OFFCURVE",
"165 443 CURVE SMOOTH",
"229 509 OFFCURVE",
"321 547 OFFCURVE",
"442 556 CURVE",
"435 466 OFFCURVE",
"417 375 OFFCURVE",
"387 284 CURVE SMOOTH",
"352 181 OFFCURVE",
"310 100 OFFCURVE",
"258 41 CURVE",
"212 55 OFFCURVE",
"170 62 OFFCURVE",
"133 62 CURVE SMOOTH",
"100 62 OFFCURVE",
"71 56 OFFCURVE",
"48 44 CURVE SMOOTH",
"16 29 OFFCURVE",
"1 6 OFFCURVE",
"1 -24 CURVE SMOOTH",
"1 -48 OFFCURVE",
"13 -68 OFFCURVE",
"39 -86 CURVE SMOOTH",
"62 -103 OFFCURVE",
"86 -111 OFFCURVE",
"110 -111 CURVE SMOOTH",
"165 -111 OFFCURVE",
"209 -104 OFFCURVE",
"242 -88 CURVE SMOOTH",
"275 -74 OFFCURVE",
"308 -46 OFFCURVE",
"343 -4 CURVE",
"437 -43 OFFCURVE",
"487 -64 OFFCURVE",
"493 -66 CURVE SMOOTH",
"540 -81 OFFCURVE",
"593 -88 OFFCURVE",
"655 -88 CURVE SMOOTH",
"695 -88 OFFCURVE",
"732 -75 OFFCURVE",
"765 -48 CURVE SMOOTH",
"797 -22 OFFCURVE",
"813 11 OFFCURVE",
"813 50 CURVE SMOOTH",
"813 133 OFFCURVE",
"748 205 OFFCURVE",
"617 266 CURVE",
"666 269 OFFCURVE",
"709 280 OFFCURVE",
"746 299 CURVE SMOOTH",
"795 324 OFFCURVE",
"820 358 OFFCURVE",
"820 401 CURVE SMOOTH",
"820 436 OFFCURVE",
"803 467 OFFCURVE",
"768 495 CURVE SMOOTH",
"740 517 OFFCURVE",
"707 534 OFFCURVE",
"667 546 CURVE",
"696 570 OFFCURVE",
"724 582 OFFCURVE",
"750 582 CURVE SMOOTH",
"787 582 OFFCURVE",
"808 568 OFFCURVE",
"811 540 CURVE SMOOTH",
"814 522 OFFCURVE",
"815 513 OFFCURVE",
"818 513 CURVE SMOOTH",
"821 513 OFFCURVE",
"823 518 OFFCURVE",
"823 526 CURVE SMOOTH"
);
},
{
closed = 1;
nodes = (
"776 -39 OFFCURVE",
"733 -68 OFFCURVE",
"648 -68 CURVE SMOOTH",
"603 -68 OFFCURVE",
"553 -60 OFFCURVE",
"498 -42 CURVE SMOOTH",
"449 -26 OFFCURVE",
"402 -8 OFFCURVE",
"354 10 CURVE",
"388 48 OFFCURVE",
"422 105 OFFCURVE",
"457 182 CURVE SMOOTH",
"486 247 OFFCURVE",
"515 312 OFFCURVE",
"545 376 CURVE SMOOTH",
"580 448 OFFCURVE",
"618 501 OFFCURVE",
"655 535 CURVE",
"687 524 OFFCURVE",
"714 509 OFFCURVE",
"735 488 CURVE SMOOTH",
"760 464 OFFCURVE",
"772 436 OFFCURVE",
"772 405 CURVE SMOOTH",
"772 371 OFFCURVE",
"757 344 OFFCURVE",
"729 321 CURVE SMOOTH",
"704 302 OFFCURVE",
"675 290 OFFCURVE",
"637 283 CURVE SMOOTH",
"627 281 OFFCURVE",
"616 279 OFFCURVE",
"604 279 CURVE SMOOTH",
"596 279 OFFCURVE",
"589 279 OFFCURVE",
"585 279 CURVE",
"567 276 OFFCURVE",
"558 265 OFFCURVE",
"558 247 CURVE SMOOTH",
"558 242 OFFCURVE",
"559 238 OFFCURVE",
"561 238 CURVE SMOOTH",
"586 226 OFFCURVE",
"605 219 OFFCURVE",
"618 213 CURVE SMOOTH",
"724 162 OFFCURVE",
"776 97 OFFCURVE",
"776 19 CURVE SMOOTH"
);
},
{
closed = 1;
nodes = (
"574 507 OFFCURVE",
"535 448 OFFCURVE",
"495 367 CURVE SMOOTH",
"464 302 OFFCURVE",
"433 236 OFFCURVE",
"403 170 CURVE SMOOTH",
"370 100 OFFCURVE",
"340 50 OFFCURVE",
"314 22 CURVE",
"276 35 LINE",
"328 96 OFFCURVE",
"371 179 OFFCURVE",
"404 282 CURVE SMOOTH",
"434 376 OFFCURVE",
"450 467 OFFCURVE",
"455 557 CURVE",
"466 558 OFFCURVE",
"478 558 OFFCURVE",
"489 558 CURVE SMOOTH",
"530 558 OFFCURVE",
"571 554 OFFCURVE",
"611 546 CURVE"
);
},
{
closed = 1;
nodes = (
"289 -17 OFFCURVE",
"261 -40 OFFCURVE",
"222 -60 CURVE SMOOTH",
"184 -80 OFFCURVE",
"149 -89 OFFCURVE",
"117 -89 CURVE SMOOTH",
"93 -89 OFFCURVE",
"71 -83 OFFCURVE",
"51 -69 CURVE SMOOTH",
"29 -55 OFFCURVE",
"18 -36 OFFCURVE",
"18 -13 CURVE SMOOTH",
"18 10 OFFCURVE",
"31 29 OFFCURVE",
"58 40 CURVE SMOOTH",
"78 48 OFFCURVE",
"101 53 OFFCURVE",
"128 53 CURVE SMOOTH",
"167 53 OFFCURVE",
"208 46 OFFCURVE",
"251 31 CURVE",
"207 -16 OFFCURVE",
"163 -40 OFFCURVE",
"119 -40 CURVE SMOOTH",
"107 -40 OFFCURVE",
"102 -42 OFFCURVE",
"102 -45 CURVE SMOOTH",
"102 -49 OFFCURVE",
"108 -52 OFFCURVE",
"121 -52 CURVE SMOOTH",
"172 -52 OFFCURVE",
"221 -27 OFFCURVE",
"268 26 CURVE",
"282 20 OFFCURVE",
"295 14 OFFCURVE",
"306 9 CURVE"
);
}
);
width = 865;
}
);
note = B;
unicode = 0042;
},
{
glyphname = C;
lastChange = "2021-03-29 15:46:53 +0000";
layers = (
{
hints = (
{
horizontal = 1;
place = "{-208, 19}";
type = Stem;
},
{
horizontal = 1;
place = "{569, 25}";
type = Stem;
},
{
place = "{10, 33}";
type = Stem;
},
{
place = "{426, 13}";
type = Stem;
}
);
layerId = "89156F97-8AE0-4F29-8E8C-D321EE696556";
paths = (
{
closed = 1;
nodes = (
"713 157 OFFCURVE",
"713 158 OFFCURVE",
"713 159 CURVE",
"712 159 OFFCURVE",
"708 155 OFFCURVE",
"703 147 CURVE SMOOTH",
"664 86 OFFCURVE",
"607 38 OFFCURVE",
"532 0 CURVE SMOOTH",
"460 -36 OFFCURVE",
"387 -55 OFFCURVE",
"313 -55 CURVE SMOOTH",
"304 -55 OFFCURVE",
"295 -55 OFFCURVE",
"287 -54 CURVE",
"324 23 OFFCURVE",
"355 116 OFFCURVE",
"384 226 CURVE SMOOTH",
"409 328 OFFCURVE",
"428 425 OFFCURVE",
"438 518 CURVE",
"479 505 OFFCURVE",
"521 487 OFFCURVE",
"563 465 CURVE SMOOTH",
"583 454 OFFCURVE",
"622 432 OFFCURVE",
"680 397 CURVE SMOOTH",
"687 393 OFFCURVE",
"693 391 OFFCURVE",
"698 391 CURVE SMOOTH",
"708 391 OFFCURVE",
"712 397 OFFCURVE",
"712 408 CURVE SMOOTH",
"712 412 LINE SMOOTH",
"712 470 OFFCURVE",
"691 516 OFFCURVE",
"656 547 CURVE SMOOTH",
"623 578 OFFCURVE",
"576 594 OFFCURVE",
"516 594 CURVE SMOOTH",
"493 594 OFFCURVE",
"469 591 OFFCURVE",
"444 586 CURVE",
"445 600 OFFCURVE",
"445 614 OFFCURVE",
"445 626 CURVE SMOOTH",
"445 659 OFFCURVE",
"442 685 OFFCURVE",
"437 703 CURVE SMOOTH",
"436 706 OFFCURVE",
"435 708 OFFCURVE",
"433 708 CURVE SMOOTH",
"430 708 OFFCURVE",
"428 705 OFFCURVE",
"428 700 CURVE SMOOTH",
"428 694 OFFCURVE",
"428 684 OFFCURVE",
"429 671 CURVE SMOOTH",
"430 658 OFFCURVE",
"430 649 OFFCURVE",
"430 642 CURVE SMOOTH",
"430 624 OFFCURVE",
"430 604 OFFCURVE",
"429 583 CURVE",
"397 576 OFFCURVE",
"366 564 OFFCURVE",
"334 550 CURVE",
"309 553 OFFCURVE",
"287 555 OFFCURVE",
"271 555 CURVE SMOOTH",
"219 555 OFFCURVE",
"167 547 OFFCURVE",
"116 532 CURVE SMOOTH",
"46 511 OFFCURVE",
"10 480 OFFCURVE",
"10 441 CURVE SMOOTH",
"10 432 OFFCURVE",
"13 422 OFFCURVE",
"18 411 CURVE SMOOTH",
"22 401 OFFCURVE",
"29 395 OFFCURVE",
"36 395 CURVE SMOOTH",
"42 395 OFFCURVE",
"45 400 OFFCURVE",
"45 409 CURVE SMOOTH",
"45 410 OFFCURVE",
"45 413 OFFCURVE",
"45 416 CURVE",
"44 419 OFFCURVE",
"44 422 OFFCURVE",
"44 424 CURVE SMOOTH",
"44 451 OFFCURVE",
"63 477 OFFCURVE",
"102 500 CURVE SMOOTH",
"129 516 OFFCURVE",
"161 528 OFFCURVE",
"197 537 CURVE SMOOTH",
"224 543 OFFCURVE",
"252 546 OFFCURVE",
"277 546 CURVE SMOOTH",
"288 546 OFFCURVE",
"302 545 OFFCURVE",
"320 543 CURVE",
"244 504 OFFCURVE",
"179 446 OFFCURVE",
"123 367 CURVE SMOOTH",
"64 283 OFFCURVE",
"34 201 OFFCURVE",
"34 121 CURVE SMOOTH",
"34 53 OFFCURVE",
"55 0 OFFCURVE",
"96 -37 CURVE SMOOTH",
"135 -72 OFFCURVE",
"188 -90 OFFCURVE",
"257 -92 CURVE",
"226 -146 OFFCURVE",
"195 -180 OFFCURVE",
"163 -191 CURVE",
"155 -193 OFFCURVE",
"149 -194 OFFCURVE",
"144 -195 CURVE SMOOTH",
"140 -196 OFFCURVE",
"138 -198 OFFCURVE",
"138 -201 CURVE SMOOTH",
"138 -206 OFFCURVE",
"141 -208 OFFCURVE",
"147 -208 CURVE SMOOTH",
"185 -208 OFFCURVE",
"225 -169 OFFCURVE",
"268 -92 CURVE",
"349 -91 OFFCURVE",
"432 -70 OFFCURVE",
"518 -27 CURVE SMOOTH",
"607 19 OFFCURVE",
"671 75 OFFCURVE",
"710 142 CURVE SMOOTH",
"713 146 OFFCURVE",
"713 151 OFFCURVE",
"713 156 CURVE SMOOTH"
);
},
{
closed = 1;
nodes = (
"680 450 OFFCURVE",
"677 447 OFFCURVE",
"673 447 CURVE SMOOTH",
"670 447 OFFCURVE",
"666 448 OFFCURVE",
"660 451 CURVE SMOOTH",
"589 490 OFFCURVE",
"515 517 OFFCURVE",
"439 533 CURVE",
"440 545 OFFCURVE",
"441 557 OFFCURVE",
"442 567 CURVE",
"454 568 OFFCURVE",
"466 569 OFFCURVE",
"478 569 CURVE SMOOTH",
"517 569 OFFCURVE",
"553 562 OFFCURVE",
"588 548 CURVE SMOOTH",
"629 532 OFFCURVE",
"657 509 OFFCURVE",
"674 480 CURVE SMOOTH",
"678 471 OFFCURVE",
"680 464 OFFCURVE",
"680 457 CURVE SMOOTH"
);
},
{
closed = 1;
nodes = (
"427 556 OFFCURVE",
"427 546 OFFCURVE",
"426 536 CURVE",
"405 540 OFFCURVE",
"381 543 OFFCURVE",
"355 547 CURVE",
"377 556 OFFCURVE",
"402 562 OFFCURVE",
"428 566 CURVE"
);
},
{
closed = 1;
nodes = (
"415 426 OFFCURVE",
"398 328 OFFCURVE",
"373 228 CURVE SMOOTH",
"346 116 OFFCURVE",
"314 22 OFFCURVE",
"277 -53 CURVE",
"218 -48 OFFCURVE",
"172 -27 OFFCURVE",
"139 9 CURVE SMOOTH",
"105 44 OFFCURVE",
"89 90 OFFCURVE",
"89 150 CURVE SMOOTH",
"89 229 OFFCURVE",
"113 306 OFFCURVE",
"161 380 CURVE SMOOTH",
"208 454 OFFCURVE",
"268 507 OFFCURVE",
"339 541 CURVE",
"369 536 OFFCURVE",
"397 530 OFFCURVE",
"425 522 CURVE"
);
}
);
width = 681;
}
);
note = C;
unicode = 0043;
},
{
glyphname = D;
lastChange = "2021-03-29 15:46:53 +0000";
layers = (
{
hints = (
{
horizontal = 1;
place = "{-89, 23}";
type = Stem;
},
{
horizontal = 1;
place = "{-52, 12}";
type = Stem;
},
{
horizontal = 1;
place = "{78, 10}";
type = Stem;
},
{
horizontal = 1;
place = "{623, 27}";
type = Stem;
},
{
horizontal = 1;
place = "{687, -20}";
target = down;
type = TopGhost;
},
{
place = "{2, 16}";
type = Stem;
},
{
place = "{82, 34}";
type = Stem;
},
{
place = "{865, 57}";
type = Stem;
}
);
layerId = "89156F97-8AE0-4F29-8E8C-D321EE696556";
paths = (
{
closed = 1;
nodes = (
"922 349 OFFCURVE",
"892 411 OFFCURVE",
"833 464 CURVE SMOOTH",
"781 510 OFFCURVE",
"716 541 OFFCURVE",
"640 553 CURVE",
"675 599 OFFCURVE",
"713 623 OFFCURVE",
"755 623 CURVE SMOOTH",
"771 623 OFFCURVE",
"788 618 OFFCURVE",
"804 610 CURVE SMOOTH",
"822 600 OFFCURVE",
"833 588 OFFCURVE",
"837 574 CURVE SMOOTH",
"839 565 OFFCURVE",
"842 561 OFFCURVE",
"845 561 CURVE SMOOTH",
"846 561 OFFCURVE",
"847 562 OFFCURVE",
"847 565 CURVE SMOOTH",
"847 572 OFFCURVE",
"846 580 OFFCURVE",
"843 589 CURVE SMOOTH",
"836 608 OFFCURVE",
"824 623 OFFCURVE",
"806 634 CURVE SMOOTH",
"788 644 OFFCURVE",
"769 650 OFFCURVE",
"748 650 CURVE SMOOTH",
"697 650 OFFCURVE",
"650 619 OFFCURVE",
"603 558 CURVE",
"557 568 OFFCURVE",
"507 573 OFFCURVE",
"456 572 CURVE",
"457 617 OFFCURVE",
"455 653 OFFCURVE",
"450 682 CURVE",
"449 685 OFFCURVE",
"448 687 OFFCURVE",
"447 687 CURVE SMOOTH",
"445 687 OFFCURVE",
"443 685 OFFCURVE",
"443 680 CURVE SMOOTH",
"443 674 OFFCURVE",
"443 665 OFFCURVE",
"444 653 CURVE SMOOTH",
"445 640 OFFCURVE",
"445 632 OFFCURVE",
"445 625 CURVE SMOOTH",
"445 607 OFFCURVE",
"444 590 OFFCURVE",
"443 572 CURVE",
"296 567 OFFCURVE",
"188 528 OFFCURVE",
"117 453 CURVE SMOOTH",
"93 428 OFFCURVE",
"82 402 OFFCURVE",
"82 373 CURVE SMOOTH",
"82 335 OFFCURVE",
"99 301 OFFCURVE",
"134 271 CURVE SMOOTH",
"166 243 OFFCURVE",
"201 228 OFFCURVE",
"240 225 CURVE",
"242 224 LINE",
"247 224 OFFCURVE",
"249 226 OFFCURVE",
"249 229 CURVE SMOOTH",
"249 231 OFFCURVE",
"247 232 OFFCURVE",
"244 233 CURVE SMOOTH",
"223 238 OFFCURVE",
"207 242 OFFCURVE",
"197 247 CURVE SMOOTH",
"143 272 OFFCURVE",
"116 310 OFFCURVE",
"116 360 CURVE SMOOTH",
"116 390 OFFCURVE",
"128 417 OFFCURVE",
"152 443 CURVE SMOOTH",
"217 512 OFFCURVE",
"314 549 OFFCURVE",
"442 556 CURVE",
"435 467 OFFCURVE",
"417 378 OFFCURVE",
"388 288 CURVE SMOOTH",
"354 186 OFFCURVE",
"314 105 OFFCURVE",
"263 46 CURVE",
"197 73 OFFCURVE",
"144 87 OFFCURVE",
"107 87 CURVE SMOOTH",
"80 87 OFFCURVE",
"57 82 OFFCURVE",
"38 71 CURVE SMOOTH",
"14 58 OFFCURVE",
"2 40 OFFCURVE",
"2 15 CURVE SMOOTH",
"2 -10 OFFCURVE",
"15 -33 OFFCURVE",
"41 -54 CURVE SMOOTH",
"65 -73 OFFCURVE",
"89 -85 OFFCURVE",
"115 -87 CURVE SMOOTH",
"126 -88 OFFCURVE",
"139 -89 OFFCURVE",
"152 -89 CURVE SMOOTH",
"235 -89 OFFCURVE",
"298 -61 OFFCURVE",
"343 -4 CURVE",
"424 -37 OFFCURVE",
"501 -54 OFFCURVE",
"572 -54 CURVE SMOOTH",
"642 -54 OFFCURVE",
"706 -37 OFFCURVE",
"763 -4 CURVE SMOOTH",
"819 29 OFFCURVE",
"862 77 OFFCURVE",
"891 139 CURVE SMOOTH",
"911 182 OFFCURVE",
"922 228 OFFCURVE",
"922 276 CURVE SMOOTH"
);
},
{
closed = 1;
nodes = (
"865 178 OFFCURVE",
"836 105 OFFCURVE",
"779 48 CURVE SMOOTH",
"722 -10 OFFCURVE",
"650 -38 OFFCURVE",
"562 -38 CURVE SMOOTH",
"498 -38 OFFCURVE",
"428 -23 OFFCURVE",
"353 9 CURVE",
"383 43 OFFCURVE",
"415 93 OFFCURVE",
"448 161 CURVE SMOOTH",
"498 260 OFFCURVE",
"531 337 OFFCURVE",
"554 389 CURVE SMOOTH",
"585 459 OFFCURVE",
"612 509 OFFCURVE",
"632 540 CURVE",
"697 528 OFFCURVE",
"752 496 OFFCURVE",
"797 443 CURVE SMOOTH",
"842 390 OFFCURVE",
"865 331 OFFCURVE",
"865 265 CURVE SMOOTH"
);
},
{
closed = 1;
nodes = (
"564 515 OFFCURVE",
"528 454 OFFCURVE",
"485 361 CURVE SMOOTH",
"454 293 OFFCURVE",
"425 224 OFFCURVE",
"392 156 CURVE SMOOTH",
"363 93 OFFCURVE",
"335 49 OFFCURVE",
"313 26 CURVE",
"279 39 LINE",
"330 100 OFFCURVE",
"371 181 OFFCURVE",
"404 284 CURVE SMOOTH",
"433 377 OFFCURVE",
"450 468 OFFCURVE",
"455 557 CURVE",
"462 557 OFFCURVE",
"469 557 OFFCURVE",
"476 557 CURVE SMOOTH",
"517 557 OFFCURVE",
"556 553 OFFCURVE",
"594 546 CURVE"
);
},
{
closed = 1;
nodes = (
"290 -11 OFFCURVE",
"264 -30 OFFCURVE",
"229 -46 CURVE SMOOTH",
"197 -60 OFFCURVE",
"165 -67 OFFCURVE",
"134 -67 CURVE SMOOTH",
"107 -67 OFFCURVE",
"82 -59 OFFCURVE",
"58 -43 CURVE SMOOTH",
"31 -25 OFFCURVE",
"18 -3 OFFCURVE",
"18 22 CURVE SMOOTH",
"18 42 OFFCURVE",
"28 56 OFFCURVE",
"47 66 CURVE SMOOTH",
"62 73 OFFCURVE",
"80 78 OFFCURVE",
"101 78 CURVE SMOOTH",
"142 78 OFFCURVE",
"194 64 OFFCURVE",
"256 36 CURVE",
"211 -14 OFFCURVE",
"165 -40 OFFCURVE",
"119 -40 CURVE SMOOTH",
"107 -40 OFFCURVE",
"102 -42 OFFCURVE",
"102 -45 CURVE SMOOTH",
"102 -49 OFFCURVE",
"108 -52 OFFCURVE",
"121 -52 CURVE SMOOTH",
"173 -52 OFFCURVE",
"223 -25 OFFCURVE",
"271 29 CURVE",
"282 24 OFFCURVE",
"294 18 OFFCURVE",
"305 12 CURVE"
);
}
);
width = 934;
}
);
note = D;
unicode = 0044;
},
{
glyphname = E;
lastChange = "2021-03-29 15:46:53 +0000";
layers = (
{
hints = (
{
horizontal = 1;
place = "{-113, 20}";
type = Stem;
},
{
horizontal = 1;
place = "{-52, 12}";
type = Stem;
},
{
horizontal = 1;
place = "{48, 14}";
type = Stem;
},
{
horizontal = 1;
place = "{259, 25}";
type = Stem;
},
{
horizontal = 1;
place = "{468, 32}";
type = Stem;
},
{
horizontal = 1;
place = "{563, 22}";
type = Stem;
},
{
horizontal = 1;
place = "{648, -20}";
target = down;
type = TopGhost;
},
{
horizontal = 1;
place = "{687, -20}";
target = down;
type = TopGhost;
},
{
place = "{8, 24}";
type = Stem;
},
{
place = "{113, 37}";
type = Stem;
},
{
place = "{914, 15}";
type = Stem;
},
{
place = "{1021, 13}";
type = Stem;
}
);
layerId = "89156F97-8AE0-4F29-8E8C-D321EE696556";
paths = (
{
closed = 1;
nodes = (
"1035 543 OFFCURVE",
"1033 552 OFFCURVE",
"1029 563 CURVE SMOOTH",
"1026 574 OFFCURVE",
"1021 580 OFFCURVE",
"1017 580 CURVE SMOOTH",
"1015 580 OFFCURVE",
"1014 579 OFFCURVE",
"1014 577 CURVE SMOOTH",
"1014 576 OFFCURVE",
"1015 573 OFFCURVE",
"1017 568 CURVE SMOOTH",
"1020 564 OFFCURVE",
"1021 560 OFFCURVE",
"1021 554 CURVE SMOOTH",
"1021 534 OFFCURVE",
"1007 520 OFFCURVE",
"979 510 CURVE SMOOTH",
"960 504 OFFCURVE",
"938 501 OFFCURVE",
"912 501 CURVE SMOOTH",
"867 501 OFFCURVE",
"786 512 OFFCURVE",
"666 536 CURVE",
"709 598 OFFCURVE",
"751 629 OFFCURVE",
"794 629 CURVE SMOOTH",
"809 629 OFFCURVE",
"823 626 OFFCURVE",
"834 619 CURVE SMOOTH",
"847 612 OFFCURVE",
"853 599 OFFCURVE",
"853 585 CURVE SMOOTH",
"853 579 OFFCURVE",
"854 576 OFFCURVE",
"857 576 CURVE SMOOTH",
"860 576 OFFCURVE",
"862 580 OFFCURVE",
"862 587 CURVE SMOOTH",
"862 628 OFFCURVE",
"837 648 OFFCURVE",
"789 648 CURVE SMOOTH",
"733 648 OFFCURVE",
"678 613 OFFCURVE",
"624 543 CURVE",
"553 558 OFFCURVE",
"497 567 OFFCURVE",
"456 573 CURVE",
"457 616 OFFCURVE",
"455 653 OFFCURVE",
"450 682 CURVE",
"449 685 OFFCURVE",
"448 687 OFFCURVE",
"447 687 CURVE SMOOTH",
"445 687 OFFCURVE",
"443 685 OFFCURVE",
"443 680 CURVE SMOOTH",
"443 674 OFFCURVE",
"443 665 OFFCURVE",
"444 653 CURVE SMOOTH",
"445 640 OFFCURVE",
"445 632 OFFCURVE",
"445 625 CURVE SMOOTH",
"445 609 OFFCURVE",
"444 592 OFFCURVE",
"443 575 CURVE",
"392 581 OFFCURVE",
"350 585 OFFCURVE",
"313 585 CURVE SMOOTH",
"293 585 OFFCURVE",
"276 584 OFFCURVE",
"259 582 CURVE SMOOTH",
"219 578 OFFCURVE",
"185 566 OFFCURVE",
"160 547 CURVE SMOOTH",
"128 524 OFFCURVE",
"113 495 OFFCURVE",
"113 457 CURVE SMOOTH",
"113 390 OFFCURVE",
"155 333 OFFCURVE",
"239 285 CURVE SMOOTH",
"241 284 OFFCURVE",
"243 283 OFFCURVE",
"245 283 CURVE SMOOTH",
"248 283 OFFCURVE",
"249 284 OFFCURVE",
"249 286 CURVE SMOOTH",
"249 288 OFFCURVE",
"247 290 OFFCURVE",
"244 291 CURVE",
"181 335 OFFCURVE",
"150 385 OFFCURVE",
"150 439 CURVE SMOOTH",
"150 498 OFFCURVE",
"181 537 OFFCURVE",
"243 554 CURVE SMOOTH",
"267 561 OFFCURVE",
"295 563 OFFCURVE",
"331 563 CURVE SMOOTH",
"362 563 OFFCURVE",
"399 561 OFFCURVE",
"442 555 CURVE",
"435 465 OFFCURVE",
"416 374 OFFCURVE",
"386 284 CURVE SMOOTH",
"352 181 OFFCURVE",
"310 100 OFFCURVE",
"258 41 CURVE",
"212 55 OFFCURVE",
"175 62 OFFCURVE",
"146 62 CURVE SMOOTH",
"111 62 OFFCURVE",
"81 56 OFFCURVE",
"56 44 CURVE SMOOTH",
"24 28 OFFCURVE",
"8 4 OFFCURVE",
"8 -28 CURVE SMOOTH",
"8 -53 OFFCURVE",
"23 -74 OFFCURVE",
"53 -91 CURVE SMOOTH",
"79 -105 OFFCURVE",
"106 -113 OFFCURVE",
"134 -113 CURVE SMOOTH",
"216 -113 OFFCURVE",
"290 -77 OFFCURVE",
"357 -4 CURVE",
"427 -30 OFFCURVE",
"496 -57 OFFCURVE",
"565 -84 CURVE SMOOTH",
"656 -118 OFFCURVE",
"724 -135 OFFCURVE",
"772 -135 CURVE SMOOTH",
"815 -135 OFFCURVE",
"851 -123 OFFCURVE",
"881 -99 CURVE SMOOTH",
"913 -73 OFFCURVE",
"929 -39 OFFCURVE",
"929 3 CURVE SMOOTH",
"929 50 OFFCURVE",
"908 91 OFFCURVE",
"867 125 CURVE SMOOTH",
"862 130 OFFCURVE",
"858 132 OFFCURVE",
"856 132 CURVE SMOOTH",
"855 132 OFFCURVE",
"855 132 OFFCURVE",
"855 131 CURVE",
"855 131 OFFCURVE",
"865 115 OFFCURVE",
"884 83 CURVE SMOOTH",
"904 50 OFFCURVE",
"914 23 OFFCURVE",
"914 0 CURVE SMOOTH",
"914 -30 OFFCURVE",
"897 -53 OFFCURVE",
"863 -68 CURVE SMOOTH",
"837 -80 OFFCURVE",
"807 -85 OFFCURVE",
"771 -85 CURVE SMOOTH",
"716 -85 OFFCURVE",
"649 -73 OFFCURVE",
"568 -50 CURVE SMOOTH",
"502 -31 OFFCURVE",
"435 -11 OFFCURVE",
"369 9 CURVE",
"406 52 OFFCURVE",
"445 111 OFFCURVE",
"485 184 CURVE",
"491 168 OFFCURVE",
"498 160 OFFCURVE",
"505 160 CURVE",
"505 162 LINE",
"502 169 OFFCURVE",
"500 176 OFFCURVE",
"500 181 CURVE SMOOTH",
"500 212 OFFCURVE",
"536 234 OFFCURVE",
"609 247 CURVE SMOOTH",
"654 256 OFFCURVE",
"702 259 OFFCURVE",
"754 259 CURVE SMOOTH",
"763 259 OFFCURVE",
"775 258 OFFCURVE",
"791 257 CURVE SMOOTH",
"808 255 OFFCURVE",
"819 254 OFFCURVE",
"827 254 CURVE SMOOTH",
"829 254 OFFCURVE",
"831 255 OFFCURVE",
"831 257 CURVE SMOOTH",
"831 258 OFFCURVE",
"829 260 OFFCURVE",
"826 261 CURVE SMOOTH",
"782 276 OFFCURVE",
"723 284 OFFCURVE",
"648 284 CURVE SMOOTH",
"593 284 OFFCURVE",
"553 279 OFFCURVE",
"528 271 CURVE",
"594 407 OFFCURVE",
"636 487 OFFCURVE",
"652 514 CURVE",
"788 484 OFFCURVE",
"879 468 OFFCURVE",
"924 468 CURVE SMOOTH",
"998 468 OFFCURVE",
"1035 491 OFFCURVE",
"1035 537 CURVE SMOOTH"
);
},
{
closed = 1;
nodes = (
"580 483 OFFCURVE",
"547 431 OFFCURVE",
"516 371 CURVE SMOOTH",
"488 317 OFFCURVE",
"463 263 OFFCURVE",
"436 210 CURVE SMOOTH",
"389 116 OFFCURVE",
"350 53 OFFCURVE",
"319 22 CURVE",
"276 35 LINE",
"327 95 OFFCURVE",
"370 177 OFFCURVE",
"403 280 CURVE SMOOTH",
"432 372 OFFCURVE",
"450 464 OFFCURVE",
"455 553 CURVE",
"496 546 OFFCURVE",
"547 537 OFFCURVE",
"609 523 CURVE"
);
},
{
closed = 1;
nodes = (
"295 -15 OFFCURVE",
"266 -39 OFFCURVE",
"229 -60 CURVE SMOOTH",
"190 -83 OFFCURVE",
"155 -93 OFFCURVE",
"124 -93 CURVE SMOOTH",
"102 -93 OFFCURVE",
"81 -87 OFFCURVE",
"63 -76 CURVE SMOOTH",
"42 -64 OFFCURVE",
"31 -46 OFFCURVE",
"31 -24 CURVE SMOOTH",
"31 2 OFFCURVE",
"46 21 OFFCURVE",
"73 33 CURVE SMOOTH",
"95 43 OFFCURVE",
"120 48 OFFCURVE",
"148 48 CURVE SMOOTH",
"178 48 OFFCURVE",
"211 42 OFFCURVE",
"249 30 CURVE",
"206 -16 OFFCURVE",
"163 -40 OFFCURVE",
"119 -40 CURVE SMOOTH",
"107 -40 OFFCURVE",
"102 -42 OFFCURVE",
"102 -45 CURVE SMOOTH",
"102 -49 OFFCURVE",
"108 -52 OFFCURVE",
"121 -52 CURVE SMOOTH",
"171 -52 OFFCURVE",
"220 -27 OFFCURVE",
"267 25 CURVE",
"289 18 OFFCURVE",
"304 13 OFFCURVE",
"313 10 CURVE"
);
}
);
width = 931;
}
);
note = E;
unicode = 0045;
},
{
glyphname = F;
lastChange = "2021-03-29 15:46:53 +0000";
layers = (
{
hints = (
{
horizontal = 1;
place = "{-103, 18}";
type = Stem;
},
{
horizontal = 1;
place = "{-52, 12}";
type = Stem;
},
{
horizontal = 1;
place = "{250, 21}";
type = Stem;
},
{
horizontal = 1;
place = "{433, 29}";
type = Stem;
},
{
horizontal = 1;
place = "{538, -20}";
target = down;
type = TopGhost;
},
{
horizontal = 1;
place = "{622, 17}";
type = Stem;
},
{
horizontal = 1;
place = "{687, -20}";
target = down;
type = TopGhost;
},
{
place = "{39, 32}";
type = Stem;
},
{
place = "{445, 11}";
type = Stem;
},
{
place = "{848, 11}";
type = Stem;
}
);
layerId = "89156F97-8AE0-4F29-8E8C-D321EE696556";
paths = (
{
closed = 1;
nodes = (
"860 500 OFFCURVE",
"859 507 OFFCURVE",
"856 516 CURVE SMOOTH",
"852 527 OFFCURVE",
"848 533 OFFCURVE",
"844 533 CURVE SMOOTH",
"843 533 OFFCURVE",
"842 532 OFFCURVE",
"842 530 CURVE SMOOTH",
"842 529 OFFCURVE",
"843 526 OFFCURVE",
"846 523 CURVE SMOOTH",
"847 520 OFFCURVE",
"848 515 OFFCURVE",
"848 510 CURVE SMOOTH",
"848 478 OFFCURVE",
"816 462 OFFCURVE",
"751 462 CURVE SMOOTH",
"716 462 OFFCURVE",
"665 468 OFFCURVE",
"596 481 CURVE",
"649 575 OFFCURVE",
"699 622 OFFCURVE",
"748 622 CURVE SMOOTH",
"783 622 OFFCURVE",
"800 609 OFFCURVE",
"800 583 CURVE SMOOTH",
"800 578 OFFCURVE",
"801 575 OFFCURVE",
"804 575 CURVE SMOOTH",
"807 575 OFFCURVE",
"808 579 OFFCURVE",
"808 585 CURVE SMOOTH",
"808 621 OFFCURVE",
"786 639 OFFCURVE",
"743 639 CURVE SMOOTH",
"672 639 OFFCURVE",
"607 590 OFFCURVE",
"547 490 CURVE",
"485 503 OFFCURVE",
"454 508 OFFCURVE",
"451 508 CURVE",
"454 540 OFFCURVE",
"456 569 OFFCURVE",
"456 597 CURVE SMOOTH",
"456 632 OFFCURVE",
"454 660 OFFCURVE",
"450 682 CURVE SMOOTH",
"449 685 OFFCURVE",
"448 687 OFFCURVE",
"447 687 CURVE SMOOTH",
"445 687 OFFCURVE",
"443 685 OFFCURVE",
"443 680 CURVE SMOOTH",
"443 674 OFFCURVE",
"443 665 OFFCURVE",
"444 653 CURVE SMOOTH",
"445 640 OFFCURVE",
"445 632 OFFCURVE",
"445 625 CURVE SMOOTH",
"445 588 OFFCURVE",
"442 550 OFFCURVE",
"437 511 CURVE",
"343 529 OFFCURVE",
"269 538 OFFCURVE",
"217 538 CURVE SMOOTH",
"169 538 OFFCURVE",
"130 530 OFFCURVE",
"100 516 CURVE SMOOTH",
"59 496 OFFCURVE",
"39 466 OFFCURVE",
"39 423 CURVE SMOOTH",
"39 364 OFFCURVE",
"76 313 OFFCURVE",
"151 270 CURVE SMOOTH",
"153 269 OFFCURVE",
"155 268 OFFCURVE",
"156 268 CURVE SMOOTH",
"159 268 OFFCURVE",
"160 269 OFFCURVE",
"160 271 CURVE SMOOTH",
"160 272 OFFCURVE",
"159 274 OFFCURVE",
"156 276 CURVE SMOOTH",
"100 314 OFFCURVE",
"71 359 OFFCURVE",
"71 408 CURVE SMOOTH",
"71 482 OFFCURVE",
"124 519 OFFCURVE",
"232 519 CURVE SMOOTH",
"281 519 OFFCURVE",
"349 510 OFFCURVE",
"435 492 CURVE",
"426 425 OFFCURVE",
"410 358 OFFCURVE",
"390 294 CURVE SMOOTH",
"364 214 OFFCURVE",
"331 144 OFFCURVE",
"293 86 CURVE SMOOTH",
"238 2 OFFCURVE",
"180 -40 OFFCURVE",
"119 -40 CURVE SMOOTH",
"107 -40 OFFCURVE",
"102 -42 OFFCURVE",
"102 -45 CURVE SMOOTH",
"102 -49 OFFCURVE",
"108 -52 OFFCURVE",
"121 -52 CURVE SMOOTH",
"187 -52 OFFCURVE",
"249 -10 OFFCURVE",
"307 76 CURVE SMOOTH",
"348 136 OFFCURVE",
"380 209 OFFCURVE",
"407 294 CURVE SMOOTH",
"427 358 OFFCURVE",
"441 424 OFFCURVE",
"449 489 CURVE",
"536 470 LINE",
"514 431 OFFCURVE",
"487 378 OFFCURVE",
"457 309 CURVE SMOOTH",
"421 228 OFFCURVE",
"395 174 OFFCURVE",
"381 145 CURVE SMOOTH",
"347 78 OFFCURVE",
"314 28 OFFCURVE",
"282 -7 CURVE SMOOTH",
"235 -59 OFFCURVE",
"182 -85 OFFCURVE",
"126 -85 CURVE SMOOTH",
"105 -85 OFFCURVE",
"87 -80 OFFCURVE",
"71 -70 CURVE SMOOTH",
"53 -59 OFFCURVE",
"44 -43 OFFCURVE",
"44 -23 CURVE SMOOTH",
"44 1 OFFCURVE",
"56 19 OFFCURVE",
"80 31 CURVE SMOOTH",
"99 42 OFFCURVE",
"121 47 OFFCURVE",
"146 47 CURVE SMOOTH",
"152 47 OFFCURVE",
"155 48 OFFCURVE",
"155 50 CURVE SMOOTH",
"155 52 OFFCURVE",
"152 53 OFFCURVE",
"146 53 CURVE SMOOTH",
"116 53 OFFCURVE",
"89 48 OFFCURVE",
"66 35 CURVE SMOOTH",
"36 20 OFFCURVE",
"21 -1 OFFCURVE",
"21 -29 CURVE SMOOTH",
"21 -54 OFFCURVE",
"34 -74 OFFCURVE",
"62 -87 CURVE SMOOTH",
"83 -98 OFFCURVE",
"107 -103 OFFCURVE",
"135 -103 CURVE SMOOTH",
"203 -103 OFFCURVE",
"268 -67 OFFCURVE",
"330 2 CURVE SMOOTH",
"369 46 OFFCURVE",
"409 110 OFFCURVE",
"454 197 CURVE",
"455 190 OFFCURVE",
"458 183 OFFCURVE",
"463 175 CURVE SMOOTH",
"466 166 OFFCURVE",
"471 162 OFFCURVE",
"475 162 CURVE",
"475 162 LINE",
"475 164 OFFCURVE",
"474 167 OFFCURVE",
"472 172 CURVE SMOOTH",
"471 176 OFFCURVE",
"470 179 OFFCURVE",
"470 181 CURVE SMOOTH",
"470 208 OFFCURVE",
"502 228 OFFCURVE",
"565 239 CURVE SMOOTH",
"604 247 OFFCURVE",
"647 250 OFFCURVE",
"692 250 CURVE SMOOTH",
"699 250 OFFCURVE",
"710 249 OFFCURVE",
"724 247 CURVE SMOOTH",
"737 246 OFFCURVE",
"748 245 OFFCURVE",
"754 245 CURVE SMOOTH",
"757 245 OFFCURVE",
"758 246 OFFCURVE",
"758 248 CURVE SMOOTH",
"758 250 OFFCURVE",
"756 251 OFFCURVE",
"753 252 CURVE SMOOTH",
"714 264 OFFCURVE",
"663 271 OFFCURVE",
"599 271 CURVE SMOOTH",
"540 271 OFFCURVE",
"501 265 OFFCURVE",
"483 255 CURVE",
"545 383 OFFCURVE",
"579 451 OFFCURVE",
"583 460 CURVE",
"665 442 OFFCURVE",
"725 433 OFFCURVE",
"762 433 CURVE SMOOTH",
"827 433 OFFCURVE",
"860 453 OFFCURVE",
"860 494 CURVE SMOOTH"
);
}
);
width = 722;
}
);
note = F;
unicode = 0046;
},
{
glyphname = G;
lastChange = "2021-03-29 15:46:53 +0000";
layers = (
{
hints = (
{
horizontal = 1;
place = "{-305, 22}";
type = Stem;
},
{
horizontal = 1;
place = "{-36, 47}";
type = Stem;
},
{
horizontal = 1;
place = "{569, 25}";
type = Stem;
},
{
place = "{10, 33}";
type = Stem;
},
{
place = "{524, 13}";
type = Stem;
},
{
place = "{680, 31}";
type = Stem;
}
);
layerId = "89156F97-8AE0-4F29-8E8C-D321EE696556";
paths = (
{
closed = 1;
nodes = (
"712 412 LINE SMOOTH",
"712 523 OFFCURVE",
"649 584 OFFCURVE",
"540 593 CURVE",
"539 632 OFFCURVE",
"535 652 OFFCURVE",
"529 652 CURVE SMOOTH",
"526 652 OFFCURVE",
"524 649 OFFCURVE",
"524 644 CURVE SMOOTH",
"524 638 OFFCURVE",
"524 630 OFFCURVE",
"525 618 CURVE SMOOTH",
"526 608 OFFCURVE",
"526 599 OFFCURVE",
"526 594 CURVE",
"466 597 OFFCURVE",
"402 581 OFFCURVE",
"334 550 CURVE",
"309 553 OFFCURVE",
"287 555 OFFCURVE",
"271 555 CURVE SMOOTH",
"219 555 OFFCURVE",
"167 547 OFFCURVE",
"116 532 CURVE SMOOTH",
"46 511 OFFCURVE",
"10 480 OFFCURVE",
"10 441 CURVE SMOOTH",
"10 432 OFFCURVE",
"13 423 OFFCURVE",
"17 413 CURVE SMOOTH",
"23 401 OFFCURVE",
"29 395 OFFCURVE",
"36 395 CURVE SMOOTH",
"42 395 OFFCURVE",
"45 400 OFFCURVE",
"45 409 CURVE SMOOTH",
"45 410 OFFCURVE",
"45 413 OFFCURVE",
"45 416 CURVE",
"44 419 OFFCURVE",
"44 422 OFFCURVE",
"44 424 CURVE SMOOTH",
"44 451 OFFCURVE",
"63 477 OFFCURVE",
"102 500 CURVE SMOOTH",
"129 516 OFFCURVE",
"161 528 OFFCURVE",
"197 537 CURVE SMOOTH",
"224 543 OFFCURVE",
"252 546 OFFCURVE",
"277 546 CURVE SMOOTH",
"288 546 OFFCURVE",
"302 545 OFFCURVE",
"320 543 CURVE",
"243 504 OFFCURVE",
"176 444 OFFCURVE",
"120 363 CURVE SMOOTH",
"61 277 OFFCURVE",
"31 193 OFFCURVE",
"31 110 CURVE SMOOTH",
"31 69 OFFCURVE",
"40 37 OFFCURVE",
"57 10 CURVE SMOOTH",
"77 -20 OFFCURVE",
"105 -36 OFFCURVE",
"143 -36 CURVE SMOOTH",
"196 -36 OFFCURVE",
"257 -9 OFFCURVE",
"328 48 CURVE SMOOTH",
"385 92 OFFCURVE",
"434 142 OFFCURVE",
"475 197 CURVE",
"455 110 OFFCURVE",
"430 31 OFFCURVE",
"404 -38 CURVE SMOOTH",
"363 -143 OFFCURVE",
"321 -210 OFFCURVE",
"276 -238 CURVE SMOOTH",
"268 -243 OFFCURVE",
"256 -248 OFFCURVE",
"241 -251 CURVE SMOOTH",
"237 -252 OFFCURVE",
"234 -255 OFFCURVE",
"234 -257 CURVE SMOOTH",
"234 -262 OFFCURVE",
"237 -264 OFFCURVE",
"243 -264 CURVE SMOOTH",
"257 -264 OFFCURVE",
"274 -257 OFFCURVE",
"291 -244 CURVE SMOOTH",
"334 -210 OFFCURVE",
"375 -138 OFFCURVE",
"417 -29 CURVE SMOOTH",
"446 46 OFFCURVE",
"470 127 OFFCURVE",
"491 218 CURVE",
"538 282 OFFCURVE",
"561 321 OFFCURVE",
"561 333 CURVE SMOOTH",
"561 334 OFFCURVE",
"560 335 OFFCURVE",
"559 336 CURVE",
"558 336 OFFCURVE",
"555 333 OFFCURVE",
"550 325 CURVE SMOOTH",
"531 295 OFFCURVE",
"514 271 OFFCURVE",
"499 251 CURVE",
"517 333 OFFCURVE",
"529 409 OFFCURVE",
"536 479 CURVE",
"600 444 OFFCURVE",
"649 416 OFFCURVE",
"680 397 CURVE SMOOTH",
"687 393 OFFCURVE",
"693 391 OFFCURVE",
"698 391 CURVE SMOOTH",
"708 391 OFFCURVE",
"712 397 OFFCURVE",
"712 408 CURVE SMOOTH"
);
},
{
closed = 1;
nodes = (
"644 380 OFFCURVE",
"635 384 OFFCURVE",
"622 384 CURVE SMOOTH",
"595 384 OFFCURVE",
"567 335 OFFCURVE",
"540 239 CURVE SMOOTH",
"485 48 OFFCURVE",
"457 -48 OFFCURVE",
"456 -48 CURVE",
"415 -162 OFFCURVE",
"367 -233 OFFCURVE",
"312 -263 CURVE SMOOTH",
"287 -276 OFFCURVE",
"260 -283 OFFCURVE",
"233 -283 CURVE SMOOTH",
"175 -283 OFFCURVE",
"132 -252 OFFCURVE",
"105 -190 CURVE SMOOTH",
"104 -186 OFFCURVE",
"102 -184 OFFCURVE",
"101 -184 CURVE SMOOTH",
"99 -184 OFFCURVE",
"98 -185 OFFCURVE",
"98 -188 CURVE SMOOTH",
"98 -218 OFFCURVE",
"117 -244 OFFCURVE",
"156 -270 CURVE SMOOTH",
"191 -294 OFFCURVE",
"224 -305 OFFCURVE",
"256 -305 CURVE SMOOTH",
"283 -305 OFFCURVE",
"310 -299 OFFCURVE",
"333 -287 CURVE SMOOTH",
"409 -246 OFFCURVE",
"472 -162 OFFCURVE",
"523 -33 CURVE SMOOTH",
"545 24 OFFCURVE",
"577 129 OFFCURVE",
"615 283 CURVE SMOOTH",
"629 341 OFFCURVE",
"640 371 OFFCURVE",
"650 373 CURVE",
"651 373 OFFCURVE",
"652 373 OFFCURVE",
"652 373 CURVE"
);
},
{
closed = 1;
nodes = (
"680 450 OFFCURVE",
"677 447 OFFCURVE",
"673 447 CURVE SMOOTH",
"670 447 OFFCURVE",
"666 448 OFFCURVE",
"660 451 CURVE SMOOTH",
"613 477 OFFCURVE",
"572 495 OFFCURVE",
"538 506 CURVE",
"539 527 OFFCURVE",
"540 546 OFFCURVE",
"541 563 CURVE",
"604 550 OFFCURVE",
"649 523 OFFCURVE",
"674 480 CURVE SMOOTH",
"678 472 OFFCURVE",
"680 465 OFFCURVE",
"680 457 CURVE SMOOTH"
);
},
{
closed = 1;
nodes = (
"526 548 OFFCURVE",
"525 530 OFFCURVE",
"524 511 CURVE",
"478 525 OFFCURVE",
"422 538 OFFCURVE",
"355 547 CURVE",
"392 561 OFFCURVE",
"433 569 OFFCURVE",
"478 569 CURVE SMOOTH",
"495 569 OFFCURVE",
"511 568 OFFCURVE",
"526 566 CURVE"
);
},
{
closed = 1;
nodes = (
"516 405 OFFCURVE",
"503 320 OFFCURVE",
"483 231 CURVE",
"440 178 OFFCURVE",
"392 132 OFFCURVE",
"343 92 CURVE SMOOTH",
"276 38 OFFCURVE",
"219 10 OFFCURVE",
"172 10 CURVE SMOOTH",
"137 10 OFFCURVE",
"111 25 OFFCURVE",
"94 53 CURVE SMOOTH",
"80 77 OFFCURVE",
"72 106 OFFCURVE",
"72 143 CURVE SMOOTH",
"72 223 OFFCURVE",
"99 301 OFFCURVE",
"152 378 CURVE SMOOTH",
"203 453 OFFCURVE",
"266 507 OFFCURVE",
"339 541 CURVE",
"401 532 OFFCURVE",
"462 513 OFFCURVE",
"523 485 CURVE"
);
}
);
width = 681;
}
);
note = G;
unicode = 0047;
},
{
glyphname = H;
lastChange = "2021-03-29 15:46:53 +0000";
layers = (
{
hints = (
{
horizontal = 1;
place = "{-219, 13}";
type = Stem;
},
{
horizontal = 1;
place = "{-172, 14}";
type = Stem;
},
{
horizontal = 1;
place = "{196, 16}";
type = Stem;
},
{
place = "{19, 37}";
type = Stem;
},
{
place = "{383, 52}";
type = Stem;
},
{
place = "{551, 64}";
type = Stem;
}
);
layerId = "89156F97-8AE0-4F29-8E8C-D321EE696556";
paths = (
{
closed = 1;
nodes = (
"851 -48 OFFCURVE",
"850 -48 OFFCURVE",
"849 -47 CURVE",
"849 -47 OFFCURVE",
"839 -56 OFFCURVE",
"819 -75 CURVE SMOOTH",
"795 -98 OFFCURVE",
"775 -116 OFFCURVE",
"756 -129 CURVE SMOOTH",
"729 -148 OFFCURVE",
"705 -158 OFFCURVE",
"686 -158 CURVE SMOOTH",
"638 -158 OFFCURVE",
"615 -119 OFFCURVE",
"615 -41 CURVE SMOOTH",
"615 17 OFFCURVE",
"629 95 OFFCURVE",
"657 195 CURVE SMOOTH",
"675 253 OFFCURVE",
"700 333 OFFCURVE",
"735 433 CURVE SMOOTH",
"762 510 OFFCURVE",
"778 559 OFFCURVE",
"783 578 CURVE SMOOTH",
"784 582 OFFCURVE",
"785 586 OFFCURVE",
"785 590 CURVE SMOOTH",
"785 599 OFFCURVE",
"783 603 OFFCURVE",
"778 603 CURVE SMOOTH",
"773 603 OFFCURVE",
"769 596 OFFCURVE",
"763 580 CURVE SMOOTH",
"745 535 OFFCURVE",
"732 500 OFFCURVE",
"722 477 CURVE SMOOTH",
"649 300 OFFCURVE",
"609 204 OFFCURVE",
"602 186 CURVE SMOOTH",
"568 90 OFFCURVE",
"551 13 OFFCURVE",
"551 -43 CURVE SMOOTH",
"551 -129 OFFCURVE",
"589 -172 OFFCURVE",
"664 -172 CURVE SMOOTH",
"697 -172 OFFCURVE",
"732 -160 OFFCURVE",
"769 -135 CURVE SMOOTH",
"801 -113 OFFCURVE",
"827 -86 OFFCURVE",
"848 -55 CURVE SMOOTH",
"850 -52 OFFCURVE",
"851 -50 OFFCURVE",
"851 -48 CURVE SMOOTH"
);
},
{
closed = 1;
nodes = (
"596 214 OFFCURVE",
"594 215 OFFCURVE",
"590 215 CURVE SMOOTH",
"581 215 OFFCURVE",
"570 215 OFFCURVE",
"556 214 CURVE SMOOTH",
"538 213 OFFCURVE",
"526 212 OFFCURVE",
"521 212 CURVE SMOOTH",
"444 210 OFFCURVE",
"388 207 OFFCURVE",
"353 204 CURVE",
"408 311 OFFCURVE",
"435 396 OFFCURVE",
"435 462 CURVE SMOOTH",
"435 540 OFFCURVE",
"401 586 OFFCURVE",
"333 600 CURVE",
"333 630 OFFCURVE",
"331 644 OFFCURVE",
"328 644 CURVE SMOOTH",
"324 644 OFFCURVE",
"322 641 OFFCURVE",
"322 637 CURVE SMOOTH",
"322 634 OFFCURVE",
"322 628 OFFCURVE",
"322 620 CURVE SMOOTH",
"322 613 OFFCURVE",
"322 607 OFFCURVE",
"322 602 CURVE",
"313 603 OFFCURVE",
"302 604 OFFCURVE",
"292 604 CURVE SMOOTH",
"260 604 OFFCURVE",
"228 599 OFFCURVE",
"195 588 CURVE SMOOTH",
"152 574 OFFCURVE",
"115 553 OFFCURVE",
"82 525 CURVE SMOOTH",
"40 491 OFFCURVE",
"19 455 OFFCURVE",
"19 417 CURVE SMOOTH",
"19 390 OFFCURVE",
"32 363 OFFCURVE",
"58 338 CURVE SMOOTH",
"79 318 OFFCURVE",
"105 302 OFFCURVE",
"134 290 CURVE",
"135 290 OFFCURVE",
"137 290 OFFCURVE",
"138 290 CURVE SMOOTH",
"143 290 OFFCURVE",
"145 293 OFFCURVE",
"145 297 CURVE SMOOTH",
"145 300 OFFCURVE",
"144 302 OFFCURVE",
"142 303 CURVE",
"85 333 OFFCURVE",
"56 368 OFFCURVE",
"56 408 CURVE SMOOTH",
"56 453 OFFCURVE",
"84 497 OFFCURVE",
"138 538 CURVE SMOOTH",
"189 577 OFFCURVE",
"238 596 OFFCURVE",
"286 596 CURVE SMOOTH",
"299 596 OFFCURVE",
"312 594 OFFCURVE",
"322 590 CURVE",
"317 464 OFFCURVE",
"282 327 OFFCURVE",
"215 181 CURVE",
"173 170 OFFCURVE",
"136 154 OFFCURVE",
"104 134 CURVE SMOOTH",
"59 106 OFFCURVE",
"36 76 OFFCURVE",
"36 43 CURVE SMOOTH",
"36 15 OFFCURVE",
"52 -10 OFFCURVE",
"85 -34 CURVE",
"38 -92 OFFCURVE",
"-6 -128 OFFCURVE",
"-48 -141 CURVE SMOOTH",
"-59 -143 OFFCURVE",
"-67 -145 OFFCURVE",
"-73 -145 CURVE",
"-78 -147 OFFCURVE",
"-81 -149 OFFCURVE",
"-81 -152 CURVE SMOOTH",
"-81 -157 OFFCURVE",
"-78 -159 OFFCURVE",
"-72 -159 CURVE SMOOTH",
"-24 -159 OFFCURVE",
"31 -119 OFFCURVE",
"94 -40 CURVE",
"105 -47 OFFCURVE",
"117 -53 OFFCURVE",
"129 -58 CURVE",
"47 -157 OFFCURVE",
"-29 -206 OFFCURVE",
"-97 -206 CURVE SMOOTH",
"-124 -206 OFFCURVE",
"-139 -194 OFFCURVE",
"-139 -169 CURVE SMOOTH",
"-139 -166 OFFCURVE",
"-139 -162 OFFCURVE",
"-139 -159 CURVE",
"-144 -163 OFFCURVE",
"-147 -173 OFFCURVE",
"-147 -185 CURVE SMOOTH",
"-147 -208 OFFCURVE",
"-130 -219 OFFCURVE",
"-97 -219 CURVE SMOOTH",
"-20 -219 OFFCURVE",
"66 -169 OFFCURVE",
"161 -69 CURVE",
"188 -78 OFFCURVE",
"208 -82 OFFCURVE",
"220 -82 CURVE SMOOTH",
"227 -82 OFFCURVE",
"230 -80 OFFCURVE",
"230 -77 CURVE SMOOTH",
"230 -74 OFFCURVE",
"227 -73 OFFCURVE",
"222 -72 CURVE SMOOTH",
"195 -67 OFFCURVE",
"177 -63 OFFCURVE",
"169 -61 CURVE",
"235 10 OFFCURVE",
"293 91 OFFCURVE",
"342 181 CURVE",
"381 188 OFFCURVE",
"432 193 OFFCURVE",
"495 196 CURVE SMOOTH",
"528 198 OFFCURVE",
"555 199 OFFCURVE",
"575 200 CURVE",
"589 202 OFFCURVE",
"596 206 OFFCURVE",
"596 212 CURVE SMOOTH"
);
},
{
closed = 1;
nodes = (
"383 414 OFFCURVE",
"352 318 OFFCURVE",
"293 197 CURVE",
"269 194 OFFCURVE",
"248 189 OFFCURVE",
"228 184 CURVE",
"297 335 OFFCURVE",
"333 469 OFFCURVE",
"333 585 CURVE",
"367 569 OFFCURVE",
"383 536 OFFCURVE",
"383 484 CURVE SMOOTH"
);
},
{
closed = 1;
nodes = (
"234 86 OFFCURVE",
"187 13 OFFCURVE",
"137 -48 CURVE",
"124 -43 OFFCURVE",
"112 -36 OFFCURVE",
"104 -28 CURVE",
"141 21 OFFCURVE",
"176 79 OFFCURVE",
"209 146 CURVE",
"231 155 OFFCURVE",
"254 162 OFFCURVE",
"277 168 CURVE"
);
},
{
closed = 1;
nodes = (
"163 78 OFFCURVE",
"131 25 OFFCURVE",
"96 -21 CURVE",
"83 -7 OFFCURVE",
"76 9 OFFCURVE",
"76 25 CURVE SMOOTH",
"76 67 OFFCURVE",
"116 105 OFFCURVE",
"195 140 CURVE"
);
}
);
width = 705;
}
);
note = H;
unicode = 0048;
},
{
glyphname = I;
lastChange = "2021-03-29 15:46:53 +0000";
layers = (
{
hints = (
{
horizontal = 1;
place = "{-142, 12}";
type = Stem;
},
{
horizontal = 1;
place = "{175, 29}";
type = Stem;
},
{
place = "{35, 21}";
type = Stem;
},
{
place = "{318, 15}";
type = Stem;
},
{
place = "{339, 29}";
type = Stem;
},
{
place = "{537, 10}";
type = Stem;
}
);
layerId = "89156F97-8AE0-4F29-8E8C-D321EE696556";
paths = (
{
closed = 1;
nodes = (
"665 571 OFFCURVE",
"659 576 OFFCURVE",
"648 576 CURVE SMOOTH",
"624 576 OFFCURVE",
"587 562 OFFCURVE",
"539 535 CURVE",
"544 575 OFFCURVE",
"547 612 OFFCURVE",
"547 645 CURVE SMOOTH",
"547 680 OFFCURVE",
"545 699 OFFCURVE",
"542 701 CURVE",
"539 700 OFFCURVE",
"537 697 OFFCURVE",
"537 694 CURVE SMOOTH",
"537 636 OFFCURVE",
"532 580 OFFCURVE",
"523 525 CURVE",
"481 500 OFFCURVE",
"443 472 OFFCURVE",
"409 440 CURVE SMOOTH",
"362 396 OFFCURVE",
"339 357 OFFCURVE",
"339 324 CURVE SMOOTH",
"339 312 OFFCURVE",
"344 301 OFFCURVE",
"352 291 CURVE SMOOTH",
"361 281 OFFCURVE",
"371 276 OFFCURVE",
"383 276 CURVE SMOOTH",
"386 276 OFFCURVE",
"388 277 OFFCURVE",
"388 278 CURVE SMOOTH",
"388 279 OFFCURVE",
"386 281 OFFCURVE",
"383 283 CURVE SMOOTH",
"372 290 OFFCURVE",
"368 298 OFFCURVE",
"368 311 CURVE SMOOTH",
"368 328 OFFCURVE",
"376 352 OFFCURVE",
"393 382 CURVE SMOOTH",
"409 409 OFFCURVE",
"424 430 OFFCURVE",
"439 446 CURVE SMOOTH",
"459 466 OFFCURVE",
"485 485 OFFCURVE",
"520 506 CURVE",
"509 445 OFFCURVE",
"493 382 OFFCURVE",
"472 320 CURVE SMOOTH",
"445 238 OFFCURVE",
"411 163 OFFCURVE",
"372 97 CURVE SMOOTH",
"319 8 OFFCURVE",
"265 -50 OFFCURVE",
"209 -76 CURVE",
"189 -82 OFFCURVE",
"174 -86 OFFCURVE",
"164 -87 CURVE SMOOTH",
"159 -88 OFFCURVE",
"156 -91 OFFCURVE",
"156 -94 CURVE SMOOTH",
"156 -99 OFFCURVE",
"159 -101 OFFCURVE",
"164 -101 CURVE SMOOTH",
"188 -101 OFFCURVE",
"217 -90 OFFCURVE",
"248 -69 CURVE SMOOTH",
"320 -22 OFFCURVE",
"384 67 OFFCURVE",
"441 196 CURVE SMOOTH",
"487 301 OFFCURVE",
"520 409 OFFCURVE",
"537 516 CURVE",
"583 542 OFFCURVE",
"611 556 OFFCURVE",
"619 556 CURVE SMOOTH",
"620 556 OFFCURVE",
"620 556 OFFCURVE",
"620 555 CURVE SMOOTH",
"620 548 OFFCURVE",
"614 524 OFFCURVE",
"600 485 CURVE SMOOTH",
"542 301 OFFCURVE",
"471 148 OFFCURVE",
"389 27 CURVE SMOOTH",
"318 -77 OFFCURVE",
"248 -129 OFFCURVE",
"179 -129 CURVE SMOOTH",
"142 -129 OFFCURVE",
"111 -116 OFFCURVE",
"88 -88 CURVE SMOOTH",
"67 -63 OFFCURVE",
"56 -31 OFFCURVE",
"56 7 CURVE SMOOTH",
"56 51 OFFCURVE",
"68 99 OFFCURVE",
"93 149 CURVE SMOOTH",
"97 158 OFFCURVE",
"99 163 OFFCURVE",
"99 168 CURVE SMOOTH",
"99 171 OFFCURVE",
"99 173 OFFCURVE",
"98 174 CURVE",
"105 173 OFFCURVE",
"113 173 OFFCURVE",
"122 173 CURVE SMOOTH",
"132 173 OFFCURVE",
"147 173 OFFCURVE",
"168 175 CURVE SMOOTH",
"188 175 OFFCURVE",
"203 176 OFFCURVE",
"214 176 CURVE SMOOTH",
"283 176 OFFCURVE",
"318 164 OFFCURVE",
"318 142 CURVE SMOOTH",
"318 140 OFFCURVE",
"314 135 OFFCURVE",
"308 126 CURVE SMOOTH",
"301 119 OFFCURVE",
"297 114 OFFCURVE",
"297 111 CURVE SMOOTH",
"297 110 OFFCURVE",
"298 109 OFFCURVE",
"301 109 CURVE",
"323 122 OFFCURVE",
"333 136 OFFCURVE",
"333 154 CURVE SMOOTH",
"333 178 OFFCURVE",
"320 193 OFFCURVE",
"294 200 CURVE SMOOTH",
"279 204 OFFCURVE",
"257 206 OFFCURVE",
"225 206 CURVE SMOOTH",
"209 206 OFFCURVE",
"186 205 OFFCURVE",
"155 203 CURVE SMOOTH",
"124 201 OFFCURVE",
"102 200 OFFCURVE",
"86 200 CURVE SMOOTH",
"84 200 OFFCURVE",
"80 200 OFFCURVE",
"75 201 CURVE SMOOTH",
"70 202 OFFCURVE",
"67 202 OFFCURVE",
"65 202 CURVE SMOOTH",
"58 202 OFFCURVE",
"49 200 OFFCURVE",
"40 194 CURVE SMOOTH",
"29 188 OFFCURVE",
"23 182 OFFCURVE",
"23 176 CURVE SMOOTH",
"23 171 OFFCURVE",
"29 168 OFFCURVE",
"42 165 CURVE SMOOTH",
"54 163 OFFCURVE",
"61 161 OFFCURVE",
"61 158 CURVE SMOOTH",
"61 157 OFFCURVE",
"60 154 OFFCURVE",
"58 151 CURVE SMOOTH",
"43 122 OFFCURVE",
"35 83 OFFCURVE",
"35 32 CURVE SMOOTH",
"35 -18 OFFCURVE",
"46 -58 OFFCURVE",
"67 -89 CURVE SMOOTH",
"91 -124 OFFCURVE",
"127 -142 OFFCURVE",
"176 -142 CURVE SMOOTH",
"257 -142 OFFCURVE",
"335 -99 OFFCURVE",
"409 -11 CURVE SMOOTH",
"510 105 OFFCURVE",
"587 258 OFFCURVE",
"642 447 CURVE SMOOTH",
"657 501 OFFCURVE",
"665 539 OFFCURVE",
"665 561 CURVE SMOOTH"
);
}
);
width = 631;
}
);
note = I;
unicode = 0049;
},
{
glyphname = J;
lastChange = "2021-03-29 15:46:53 +0000";
layers = (
{
hints = (
{
horizontal = 1;
place = "{-230, 39}";
type = Stem;
},
{
horizontal = 1;
place = "{77, 10}";
type = Stem;
},
{
horizontal = 1;
place = "{651, 11}";
type = Stem;
},
{
place = "{11, 36}";
type = Stem;
},
{
place = "{394, 11}";
type = Stem;
}
);
layerId = "89156F97-8AE0-4F29-8E8C-D321EE696556";
paths = (
{
closed = 1;
nodes = (
"706 628 OFFCURVE",
"696 641 OFFCURVE",
"678 651 CURVE SMOOTH",
"663 658 OFFCURVE",
"646 662 OFFCURVE",
"628 662 CURVE SMOOTH",
"589 662 OFFCURVE",
"559 655 OFFCURVE",
"538 637 CURVE SMOOTH",
"521 623 OFFCURVE",
"504 596 OFFCURVE",
"488 557 CURVE",
"459 550 OFFCURVE",
"430 543 OFFCURVE",
"404 537 CURVE",
"405 555 OFFCURVE",
"406 572 OFFCURVE",
"406 588 CURVE SMOOTH",
"406 623 OFFCURVE",
"404 642 OFFCURVE",
"400 643 CURVE",
"396 642 OFFCURVE",
"394 640 OFFCURVE",
"394 637 CURVE SMOOTH",
"394 597 OFFCURVE",
"392 562 OFFCURVE",
"390 533 CURVE",
"138 465 OFFCURVE",
"11 357 OFFCURVE",
"11 212 CURVE SMOOTH",
"11 168 OFFCURVE",
"29 134 OFFCURVE",
"65 109 CURVE SMOOTH",
"96 87 OFFCURVE",
"135 77 OFFCURVE",
"181 77 CURVE SMOOTH",
"212 77 OFFCURVE",
"227 81 OFFCURVE",
"227 87 CURVE SMOOTH",
"227 88 OFFCURVE",
"226 89 OFFCURVE",
"223 89 CURVE SMOOTH",
"219 89 OFFCURVE",
"214 88 OFFCURVE",
"206 88 CURVE",
"200 86 OFFCURVE",
"194 86 OFFCURVE",
"191 86 CURVE SMOOTH",
"149 86 OFFCURVE",
"116 97 OFFCURVE",
"90 118 CURVE SMOOTH",
"62 141 OFFCURVE",
"48 171 OFFCURVE",
"48 212 CURVE SMOOTH",
"48 348 OFFCURVE",
"161 449 OFFCURVE",
"388 517 CURVE",
"380 451 OFFCURVE",
"367 385 OFFCURVE",
"347 315 CURVE SMOOTH",
"320 225 OFFCURVE",
"286 142 OFFCURVE",
"245 66 CURVE SMOOTH",
"190 -37 OFFCURVE",
"132 -103 OFFCURVE",
"70 -131 CURVE SMOOTH",
"60 -136 OFFCURVE",
"44 -141 OFFCURVE",
"22 -144 CURVE SMOOTH",
"17 -145 OFFCURVE",
"14 -148 OFFCURVE",
"14 -151 CURVE SMOOTH",
"14 -156 OFFCURVE",
"17 -158 OFFCURVE",
"23 -158 CURVE SMOOTH",
"48 -158 OFFCURVE",
"79 -145 OFFCURVE",
"113 -122 CURVE SMOOTH",
"189 -68 OFFCURVE",
"256 29 OFFCURVE",
"313 170 CURVE SMOOTH",
"362 292 OFFCURVE",
"391 409 OFFCURVE",
"402 521 CURVE",
"428 527 OFFCURVE",
"454 534 OFFCURVE",
"482 541 CURVE",
"448 428 OFFCURVE",
"424 342 OFFCURVE",
"407 285 CURVE SMOOTH",
"371 165 OFFCURVE",
"338 80 OFFCURVE",
"309 28 CURVE SMOOTH",
"262 -54 OFFCURVE",
"198 -118 OFFCURVE",
"115 -161 CURVE SMOOTH",
"76 -181 OFFCURVE",
"37 -191 OFFCURVE",
"-4 -191 CURVE SMOOTH",
"-71 -191 OFFCURVE",
"-119 -164 OFFCURVE",
"-145 -112 CURVE",
"-152 -96 OFFCURVE",
"-157 -85 OFFCURVE",
"-159 -76 CURVE SMOOTH",
"-161 -71 OFFCURVE",
"-162 -68 OFFCURVE",
"-163 -68 CURVE SMOOTH",
"-166 -68 OFFCURVE",
"-167 -70 OFFCURVE",
"-167 -75 CURVE SMOOTH",
"-167 -115 OFFCURVE",
"-146 -151 OFFCURVE",
"-106 -183 CURVE SMOOTH",
"-68 -214 OFFCURVE",
"-29 -230 OFFCURVE",
"12 -230 CURVE SMOOTH",
"47 -230 OFFCURVE",
"80 -222 OFFCURVE",
"111 -205 CURVE SMOOTH",
"196 -161 OFFCURVE",
"268 -93 OFFCURVE",
"328 -4 CURVE SMOOTH",
"374 66 OFFCURVE",
"419 155 OFFCURVE",
"456 267 CURVE SMOOTH",
"487 361 OFFCURVE",
"516 457 OFFCURVE",
"546 553 CURVE",
"597 561 OFFCURVE",
"635 568 OFFCURVE",
"660 573 CURVE SMOOTH",
"691 580 OFFCURVE",
"706 593 OFFCURVE",
"706 612 CURVE SMOOTH"
);
},
{
closed = 1;
nodes = (
"698 605 OFFCURVE",
"690 597 OFFCURVE",
"673 590 CURVE",
"621 579 OFFCURVE",
"582 571 OFFCURVE",
"555 568 CURVE",
"584 623 OFFCURVE",
"614 651 OFFCURVE",
"644 651 CURVE SMOOTH",
"680 651 OFFCURVE",
"698 639 OFFCURVE",
"698 618 CURVE SMOOTH"
);
}
);
width = 478;
}
);
note = J;
unicode = 004A;
},
{
glyphname = K;
lastChange = "2021-03-29 15:46:53 +0000";
layers = (
{
hints = (
{
horizontal = 1;
place = "{-198, 31}";
type = Stem;
},
{
horizontal = 1;
place = "{-143, 11}";
type = Stem;
},
{
horizontal = 1;
place = "{221, 18}";
type = Stem;
},
{
horizontal = 1;
place = "{566, 18}";
type = Stem;
},
{
place = "{1, 35}";
type = Stem;
},
{
place = "{250, 31}";
type = Stem;
},
{
place = "{991, 16}";
type = Stem;
}
);
layerId = "89156F97-8AE0-4F29-8E8C-D321EE696556";
paths = (
{
closed = 1;
nodes = (
"1185 457 OFFCURVE",
"1169 501 OFFCURVE",
"1136 536 CURVE SMOOTH",
"1104 571 OFFCURVE",
"1063 589 OFFCURVE",
"1013 589 CURVE SMOOTH",
"919 589 OFFCURVE",
"831 543 OFFCURVE",
"750 452 CURVE SMOOTH",
"698 394 OFFCURVE",
"643 309 OFFCURVE",
"583 194 CURVE",
"575 206 OFFCURVE",
"566 217 OFFCURVE",
"558 226 CURVE",
"580 275 OFFCURVE",
"602 331 OFFCURVE",
"624 392 CURVE SMOOTH",
"652 472 OFFCURVE",
"666 529 OFFCURVE",
"666 564 CURVE SMOOTH",
"666 571 OFFCURVE",
"665 576 OFFCURVE",
"663 577 CURVE SMOOTH",
"656 581 OFFCURVE",
"637 584 OFFCURVE",
"607 584 CURVE SMOOTH",
"523 584 OFFCURVE",
"441 569 OFFCURVE",
"359 540 CURVE SMOOTH",
"286 513 OFFCURVE",
"250 485 OFFCURVE",
"250 455 CURVE SMOOTH",
"250 445 OFFCURVE",
"257 432 OFFCURVE",
"269 416 CURVE SMOOTH",
"280 401 OFFCURVE",
"291 393 OFFCURVE",
"298 393 CURVE SMOOTH",
"300 393 OFFCURVE",
"301 394 OFFCURVE",
"301 395 CURVE",
"301 395 OFFCURVE",
"297 400 OFFCURVE",
"291 409 CURVE SMOOTH",
"284 419 OFFCURVE",
"281 429 OFFCURVE",
"281 440 CURVE SMOOTH",
"281 481 OFFCURVE",
"324 515 OFFCURVE",
"410 540 CURVE SMOOTH",
"474 559 OFFCURVE",
"535 567 OFFCURVE",
"591 567 CURVE SMOOTH",
"599 567 OFFCURVE",
"606 567 OFFCURVE",
"614 566 CURVE",
"592 461 OFFCURVE",
"561 362 OFFCURVE",
"523 270 CURVE",
"487 310 OFFCURVE",
"462 330 OFFCURVE",
"446 330 CURVE SMOOTH",
"440 330 OFFCURVE",
"436 328 OFFCURVE",
"433 325 CURVE",
"436 322 OFFCURVE",
"438 320 OFFCURVE",
"441 318 CURVE SMOOTH",
"470 301 OFFCURVE",
"495 279 OFFCURVE",
"516 256 CURVE",
"481 175 OFFCURVE",
"441 102 OFFCURVE",
"396 37 CURVE SMOOTH",
"334 -53 OFFCURVE",
"276 -106 OFFCURVE",
"220 -123 CURVE SMOOTH",
"199 -129 OFFCURVE",
"178 -132 OFFCURVE",
"160 -132 CURVE SMOOTH",
"119 -132 OFFCURVE",
"87 -117 OFFCURVE",
"66 -87 CURVE SMOOTH",
"46 -61 OFFCURVE",
"36 -27 OFFCURVE",
"36 15 CURVE SMOOTH",
"36 64 OFFCURVE",
"49 109 OFFCURVE",
"75 150 CURVE SMOOTH",
"105 198 OFFCURVE",
"143 221 OFFCURVE",
"189 221 CURVE SMOOTH",
"209 221 OFFCURVE",
"223 216 OFFCURVE",
"230 204 CURVE SMOOTH",
"234 199 OFFCURVE",
"237 192 OFFCURVE",
"239 185 CURVE",
"241 186 OFFCURVE",
"242 188 OFFCURVE",
"242 192 CURVE SMOOTH",
"242 206 OFFCURVE",
"236 218 OFFCURVE",
"221 226 CURVE SMOOTH",
"208 235 OFFCURVE",
"194 239 OFFCURVE",
"179 239 CURVE SMOOTH",
"125 239 OFFCURVE",
"83 217 OFFCURVE",
"48 173 CURVE SMOOTH",
"17 132 OFFCURVE",
"1 85 OFFCURVE",
"1 30 CURVE SMOOTH",
"1 -21 OFFCURVE",
"15 -63 OFFCURVE",
"45 -95 CURVE SMOOTH",
"74 -127 OFFCURVE",
"113 -143 OFFCURVE",
"163 -143 CURVE SMOOTH",
"307 -143 OFFCURVE",
"436 -26 OFFCURVE",
"550 209 CURVE",
"557 198 OFFCURVE",
"564 185 OFFCURVE",
"571 171 CURVE",
"542 114 OFFCURVE",
"522 77 OFFCURVE",
"512 61 CURVE SMOOTH",
"483 12 OFFCURVE",
"457 -19 OFFCURVE",
"434 -32 CURVE SMOOTH",
"426 -37 OFFCURVE",
"414 -41 OFFCURVE",
"400 -43 CURVE SMOOTH",
"397 -43 OFFCURVE",
"395 -45 OFFCURVE",
"395 -48 CURVE SMOOTH",
"395 -54 OFFCURVE",
"400 -58 OFFCURVE",
"410 -58 CURVE SMOOTH",
"439 -58 OFFCURVE",
"481 -10 OFFCURVE",
"534 85 CURVE SMOOTH",
"577 162 LINE",
"603 109 OFFCURVE",
"628 55 OFFCURVE",
"656 3 CURVE SMOOTH",
"685 -52 OFFCURVE",
"724 -98 OFFCURVE",
"768 -135 CURVE SMOOTH",
"816 -177 OFFCURVE",
"863 -198 OFFCURVE",
"906 -198 CURVE SMOOTH",
"937 -198 OFFCURVE",
"961 -187 OFFCURVE",
"979 -167 CURVE SMOOTH",
"998 -147 OFFCURVE",
"1007 -122 OFFCURVE",
"1007 -90 CURVE SMOOTH",
"1007 -48 OFFCURVE",
"992 -9 OFFCURVE",
"960 29 CURVE SMOOTH",
"957 33 OFFCURVE",
"953 35 OFFCURVE",
"950 35 CURVE SMOOTH",
"948 35 OFFCURVE",
"947 34 OFFCURVE",
"947 32 CURVE SMOOTH",
"947 31 OFFCURVE",
"948 29 OFFCURVE",
"950 27 CURVE SMOOTH",
"978 -11 OFFCURVE",
"991 -51 OFFCURVE",
"991 -94 CURVE SMOOTH",
"991 -143 OFFCURVE",
"973 -166 OFFCURVE",
"937 -166 CURVE SMOOTH",
"914 -166 OFFCURVE",
"885 -154 OFFCURVE",
"851 -131 CURVE SMOOTH",
"819 -109 OFFCURVE",
"772 -61 OFFCURVE",
"714 16 CURVE SMOOTH",
"672 72 OFFCURVE",
"631 129 OFFCURVE",
"590 185 CURVE",
"650 292 OFFCURVE",
"705 371 OFFCURVE",
"754 426 CURVE SMOOTH",
"833 511 OFFCURVE",
"916 554 OFFCURVE",
"1001 554 CURVE SMOOTH",
"1049 554 OFFCURVE",
"1090 542 OFFCURVE",
"1123 515 CURVE SMOOTH",
"1159 486 OFFCURVE",
"1177 449 OFFCURVE",
"1177 403 CURVE SMOOTH",
"1177 391 OFFCURVE",
"1178 386 OFFCURVE",
"1180 386 CURVE SMOOTH",
"1183 386 OFFCURVE",
"1185 392 OFFCURVE",
"1185 407 CURVE SMOOTH"
);
}
);
width = 789;
}
);
note = K;
unicode = 004B;
},
{
glyphname = L;
lastChange = "2021-03-29 15:46:53 +0000";
layers = (
{
hints = (
{
horizontal = 1;
place = "{-190, 49}";
type = Stem;
},
{
horizontal = 1;
place = "{-135, 26}";
type = Stem;
},
{
horizontal = 1;
place = "{-78, 146}";
type = Stem;
},
{
horizontal = 1;
place = "{582, 29}";
type = Stem;
},
{
place = "{-51, 20}";
type = Stem;
},
{
place = "{96, 31}";
type = Stem;
},
{
place = "{257, 17}";
type = Stem;
},
{
place = "{847, 10}";
type = Stem;
},
{
place = "{950, 11}";
type = Stem;
}
);
layerId = "89156F97-8AE0-4F29-8E8C-D321EE696556";
paths = (
{
closed = 1;
nodes = (
"961 -64 OFFCURVE",
"957 -48 OFFCURVE",
"946 -30 CURVE SMOOTH",
"937 -12 OFFCURVE",
"926 -1 OFFCURVE",
"916 5 CURVE",
"939 -30 OFFCURVE",
"950 -60 OFFCURVE",
"950 -84 CURVE SMOOTH",
"950 -122 OFFCURVE",
"918 -141 OFFCURVE",
"852 -141 CURVE SMOOTH",
"787 -141 OFFCURVE",
"699 -122 OFFCURVE",
"591 -81 CURVE SMOOTH",
"505 -48 OFFCURVE",
"420 -14 OFFCURVE",
"334 19 CURVE",
"358 51 OFFCURVE",
"380 85 OFFCURVE",
"402 119 CURVE SMOOTH",
"419 146 OFFCURVE",
"428 160 OFFCURVE",
"428 160 CURVE",
"445 168 OFFCURVE",
"458 175 OFFCURVE",
"467 178 CURVE",
"490 188 OFFCURVE",
"511 200 OFFCURVE",
"532 210 CURVE SMOOTH",
"749 321 OFFCURVE",
"858 427 OFFCURVE",
"858 526 CURVE SMOOTH",
"858 550 OFFCURVE",
"851 571 OFFCURVE",
"837 587 CURVE SMOOTH",
"823 603 OFFCURVE",
"805 611 OFFCURVE",
"781 611 CURVE SMOOTH",
"667 611 OFFCURVE",
"562 504 OFFCURVE",
"469 291 CURVE SMOOTH",
"460 270 OFFCURVE",
"452 248 OFFCURVE",
"444 227 CURVE SMOOTH",
"430 194 OFFCURVE",
"421 174 OFFCURVE",
"415 167 CURVE",
"393 163 OFFCURVE",
"371 162 OFFCURVE",
"350 161 CURVE",
"364 188 OFFCURVE",
"380 221 OFFCURVE",
"399 261 CURVE SMOOTH",
"453 377 OFFCURVE",
"489 449 OFFCURVE",
"508 479 CURVE SMOOTH",
"565 568 OFFCURVE",
"625 613 OFFCURVE",
"689 613 CURVE SMOOTH",
"696 613 OFFCURVE",
"700 614 OFFCURVE",
"700 616 CURVE SMOOTH",
"700 618 OFFCURVE",
"696 619 OFFCURVE",
"689 619 CURVE SMOOTH",
"623 619 OFFCURVE",
"561 576 OFFCURVE",
"503 489 CURVE SMOOTH",
"480 455 OFFCURVE",
"442 383 OFFCURVE",
"390 272 CURVE SMOOTH",
"369 225 OFFCURVE",
"351 188 OFFCURVE",
"336 161 CURVE",
"282 162 OFFCURVE",
"236 176 OFFCURVE",
"197 201 CURVE SMOOTH",
"150 231 OFFCURVE",
"127 272 OFFCURVE",
"127 322 CURVE SMOOTH",
"127 369 OFFCURVE",
"148 399 OFFCURVE",
"190 414 CURVE",
"191 415 OFFCURVE",
"191 416 OFFCURVE",
"191 417 CURVE SMOOTH",
"191 419 OFFCURVE",
"190 420 OFFCURVE",
"188 420 CURVE SMOOTH",
"186 420 OFFCURVE",
"183 419 OFFCURVE",
"181 417 CURVE SMOOTH",
"124 387 OFFCURVE",
"96 345 OFFCURVE",
"96 293 CURVE SMOOTH",
"96 194 OFFCURVE",
"166 144 OFFCURVE",
"306 144 CURVE SMOOTH",
"314 144 OFFCURVE",
"321 144 OFFCURVE",
"328 145 CURVE",
"306 103 OFFCURVE",
"284 67 OFFCURVE",
"263 39 CURVE",
"199 59 OFFCURVE",
"147 68 OFFCURVE",
"108 68 CURVE SMOOTH",
"68 68 OFFCURVE",
"33 60 OFFCURVE",
"4 45 CURVE SMOOTH",
"-33 26 OFFCURVE",
"-51 -2 OFFCURVE",
"-51 -38 CURVE SMOOTH",
"-51 -65 OFFCURVE",
"-37 -87 OFFCURVE",
"-9 -107 CURVE SMOOTH",
"17 -125 OFFCURVE",
"45 -135 OFFCURVE",
"72 -135 CURVE SMOOTH",
"124 -135 OFFCURVE",
"170 -121 OFFCURVE",
"213 -94 CURVE SMOOTH",
"244 -74 OFFCURVE",
"281 -41 OFFCURVE",
"322 6 CURVE",
"350 -6 OFFCURVE",
"398 -31 OFFCURVE",
"469 -70 CURVE SMOOTH",
"540 -109 OFFCURVE",
"594 -136 OFFCURVE",
"632 -152 CURVE SMOOTH",
"693 -178 OFFCURVE",
"744 -190 OFFCURVE",
"785 -190 CURVE SMOOTH",
"824 -190 OFFCURVE",
"861 -181 OFFCURVE",
"897 -162 CURVE SMOOTH",
"940 -139 OFFCURVE",
"961 -111 OFFCURVE",
"961 -76 CURVE SMOOTH"
);
},
{
closed = 1;
nodes = (
"847 487 OFFCURVE",
"791 417 OFFCURVE",
"680 327 CURVE SMOOTH",
"580 246 OFFCURVE",
"499 196 OFFCURVE",
"436 174 CURVE",
"469 226 OFFCURVE",
"493 268 OFFCURVE",
"510 297 CURVE SMOOTH",
"621 488 OFFCURVE",
"715 582 OFFCURVE",
"788 582 CURVE SMOOTH",
"803 582 OFFCURVE",
"817 579 OFFCURVE",
"829 572 CURVE SMOOTH",
"842 565 OFFCURVE",
"847 554 OFFCURVE",
"847 540 CURVE SMOOTH"
);
},
{
closed = 1;
nodes = (
"360 78 OFFCURVE",
"331 34 OFFCURVE",
"319 22 CURVE",
"309 25 OFFCURVE",
"294 29 OFFCURVE",
"274 36 CURVE",
"295 66 OFFCURVE",
"318 102 OFFCURVE",
"342 146 CURVE",
"363 147 OFFCURVE",
"385 150 OFFCURVE",
"408 153 CURVE"
);
},
{
closed = 1;
nodes = (
"291 -19 OFFCURVE",
"257 -46 OFFCURVE",
"207 -71 CURVE SMOOTH",
"158 -97 OFFCURVE",
"116 -109 OFFCURVE",
"82 -109 CURVE SMOOTH",
"54 -109 OFFCURVE",
"29 -102 OFFCURVE",
"8 -87 CURVE SMOOTH",
"-18 -70 OFFCURVE",
"-31 -49 OFFCURVE",
"-31 -24 CURVE SMOOTH",
"-31 5 OFFCURVE",
"-14 27 OFFCURVE",
"20 43 CURVE SMOOTH",
"47 55 OFFCURVE",
"76 61 OFFCURVE",
"109 61 CURVE SMOOTH",
"146 61 OFFCURVE",
"195 51 OFFCURVE",
"257 31 CURVE",
"204 -37 OFFCURVE",
"146 -71 OFFCURVE",
"85 -71 CURVE SMOOTH",
"76 -71 OFFCURVE",
"71 -72 OFFCURVE",
"71 -74 CURVE SMOOTH",
"71 -77 OFFCURVE",
"76 -78 OFFCURVE",
"86 -78 CURVE SMOOTH",
"151 -78 OFFCURVE",
"212 -43 OFFCURVE",
"267 28 CURVE",
"287 21 OFFCURVE",
"301 15 OFFCURVE",
"311 9 CURVE"
);
}
);
width = 555;
}
);
note = L;
unicode = 004C;
},
